<?plantuml 1.2026.1?><svg xmlns="http://www.w3.org/2000/svg" xmlns:xlink="http://www.w3.org/1999/xlink" contentStyleType="text/css" data-diagram-type="ACTIVITY" height="480px" preserveAspectRatio="none" style="width:426px;height:480px;background:#FFFFFF;" version="1.1" viewBox="0 0 426 480" width="426px" zoomAndPan="magnify"><defs/><g><ellipse cx="254.6377" cy="20" fill="#222222" rx="10" ry="10" style="stroke:#222222;stroke-width:1;"/><rect fill="#F1F1F1" height="33.9688" rx="12.5" ry="12.5" style="stroke:#181818;stroke-width:0.5;" width="140.4863" x="184.3945" y="50"/><text fill="#000000" font-family="sans-serif" font-size="12" lengthAdjust="spacing" textLength="120.4863" x="194.3945" y="71.1387">User makes request</text><rect fill="#F1F1F1" height="33.9688" rx="12.5" ry="12.5" style="stroke:#181818;stroke-width:0.5;" width="89.5273" x="209.874" y="103.9688"/><text fill="#000000" font-family="sans-serif" font-size="12" lengthAdjust="spacing" textLength="69.5273" x="219.874" y="125.1074">Extract JWT</text><polygon fill="#F1F1F1" points="219.5107,157.9375,289.7646,157.9375,301.7646,169.9375,289.7646,181.9375,219.5107,181.9375,207.5107,169.9375,219.5107,157.9375" style="stroke:#181818;stroke-width:0.5;"/><text fill="#000000" font-family="sans-serif" font-size="11" lengthAdjust="spacing" textLength="70.2539" x="219.5107" y="173.7456">Valid Token?</text><text fill="#000000" font-family="sans-serif" font-size="11" lengthAdjust="spacing" textLength="19.0083" x="188.5024" y="167.3433">yes</text><text fill="#000000" font-family="sans-serif" font-size="11" lengthAdjust="spacing" textLength="13.7017" x="301.7646" y="167.3433">no</text><rect fill="#F1F1F1" height="33.9688" rx="12.5" ry="12.5" style="stroke:#181818;stroke-width:0.5;" width="109.0156" x="94.2207" y="191.9375"/><text fill="#000000" font-family="sans-serif" font-size="12" lengthAdjust="spacing" textLength="89.0156" x="104.2207" y="213.0762">Get User Roles</text><rect fill="#F1F1F1" height="33.9688" rx="12.5" ry="12.5" style="stroke:#181818;stroke-width:0.5;" width="116.8145" x="90.3213" y="245.9063"/><text fill="#000000" font-family="sans-serif" font-size="12" lengthAdjust="spacing" textLength="96.8145" x="100.3213" y="267.0449">Get Permissions</text><polygon fill="#F1F1F1" points="92.5469,299.875,204.9102,299.875,216.9102,311.875,204.9102,323.875,92.5469,323.875,80.5469,311.875,92.5469,299.875" style="stroke:#181818;stroke-width:0.5;"/><text fill="#000000" font-family="sans-serif" font-size="11" lengthAdjust="spacing" textLength="112.3633" x="92.5469" y="315.6831">Permission Allowed?</text><text fill="#000000" font-family="sans-serif" font-size="11" lengthAdjust="spacing" textLength="19.0083" x="61.5386" y="309.2808">yes</text><text fill="#000000" font-family="sans-serif" font-size="11" lengthAdjust="spacing" textLength="13.7017" x="216.9102" y="309.2808">no</text><rect fill="#F1F1F1" height="33.9688" rx="12.5" ry="12.5" style="stroke:#181818;stroke-width:0.5;" width="119.0938" x="11" y="333.875"/><text fill="#000000" font-family="sans-serif" font-size="12" lengthAdjust="spacing" textLength="99.0938" x="21" y="355.0137">Process Request</text><rect fill="#F1F1F1" height="33.9688" rx="12.5" ry="12.5" style="stroke:#181818;stroke-width:0.5;" width="96.4355" x="178.6924" y="333.875"/><text fill="#000000" font-family="sans-serif" font-size="12" lengthAdjust="spacing" textLength="76.4355" x="188.6924" y="355.0137">Deny Access</text><polygon fill="#F1F1F1" points="148.7285,373.8438,160.7285,385.8438,148.7285,397.8438,136.7285,385.8438,148.7285,373.8438" style="stroke:#181818;stroke-width:0.5;"/><rect fill="#F1F1F1" height="33.9688" rx="12.5" ry="12.5" style="stroke:#181818;stroke-width:0.5;" width="110.8379" x="305.1279" y="191.9375"/><text fill="#000000" font-family="sans-serif" font-size="12" lengthAdjust="spacing" textLength="90.8379" x="315.1279" y="213.0762">Reject Request</text><polygon fill="#F1F1F1" points="254.6377,403.8438,266.6377,415.8438,254.6377,427.8438,242.6377,415.8438,254.6377,403.8438" style="stroke:#181818;stroke-width:0.5;"/><ellipse cx="254.6377" cy="458.8438" fill="none" rx="11" ry="11" style="stroke:#222222;stroke-width:1;"/><ellipse cx="254.6377" cy="458.8438" fill="#222222" rx="6" ry="6" style="stroke:#222222;stroke-width:1;"/><line style="stroke:#181818;stroke-width:1;" x1="254.6377" x2="254.6377" y1="30" y2="50"/><polygon fill="#181818" points="250.6377,40,254.6377,50,258.6377,40,254.6377,44" style="stroke:#181818;stroke-width:1;"/><line style="stroke:#181818;stroke-width:1;" x1="254.6377" x2="254.6377" y1="83.9688" y2="103.9688"/><polygon fill="#181818" points="250.6377,93.9688,254.6377,103.9688,258.6377,93.9688,254.6377,97.9688" style="stroke:#181818;stroke-width:1;"/><line style="stroke:#181818;stroke-width:1;" x1="148.7285" x2="148.7285" y1="225.9063" y2="245.9063"/><polygon fill="#181818" points="144.7285,235.9063,148.7285,245.9063,152.7285,235.9063,148.7285,239.9063" style="stroke:#181818;stroke-width:1;"/><line style="stroke:#181818;stroke-width:1;" x1="80.5469" x2="70.5469" y1="311.875" y2="311.875"/><line style="stroke:#181818;stroke-width:1;" x1="70.5469" x2="70.5469" y1="311.875" y2="333.875"/><polygon fill="#181818" points="66.5469,323.875,70.5469,333.875,74.5469,323.875,70.5469,327.875" style="stroke:#181818;stroke-width:1;"/><line style="stroke:#181818;stroke-width:1;" x1="216.9102" x2="226.9102" y1="311.875" y2="311.875"/><line style="stroke:#181818;stroke-width:1;" x1="226.9102" x2="226.9102" y1="311.875" y2="333.875"/><polygon fill="#181818" points="222.9102,323.875,226.9102,333.875,230.9102,323.875,226.9102,327.875" style="stroke:#181818;stroke-width:1;"/><line style="stroke:#181818;stroke-width:1;" x1="70.5469" x2="70.5469" y1="367.8438" y2="385.8438"/><line style="stroke:#181818;stroke-width:1;" x1="70.5469" x2="136.7285" y1="385.8438" y2="385.8438"/><polygon fill="#181818" points="126.7285,381.8438,136.7285,385.8438,126.7285,389.8438,130.7285,385.8438" style="stroke:#181818;stroke-width:1;"/><line style="stroke:#181818;stroke-width:1;" x1="226.9102" x2="226.9102" y1="367.8438" y2="385.8438"/><line style="stroke:#181818;stroke-width:1;" x1="226.9102" x2="160.7285" y1="385.8438" y2="385.8438"/><polygon fill="#181818" points="170.7285,381.8438,160.7285,385.8438,170.7285,389.8438,166.7285,385.8438" style="stroke:#181818;stroke-width:1;"/><line style="stroke:#181818;stroke-width:1;" x1="148.7285" x2="148.7285" y1="279.875" y2="299.875"/><polygon fill="#181818" points="144.7285,289.875,148.7285,299.875,152.7285,289.875,148.7285,293.875" style="stroke:#181818;stroke-width:1;"/><line style="stroke:#181818;stroke-width:1;" x1="207.5107" x2="148.7285" y1="169.9375" y2="169.9375"/><line style="stroke:#181818;stroke-width:1;" x1="148.7285" x2="148.7285" y1="169.9375" y2="191.9375"/><polygon fill="#181818" points="144.7285,181.9375,148.7285,191.9375,152.7285,181.9375,148.7285,185.9375" style="stroke:#181818;stroke-width:1;"/><line style="stroke:#181818;stroke-width:1;" x1="301.7646" x2="360.5469" y1="169.9375" y2="169.9375"/><line style="stroke:#181818;stroke-width:1;" x1="360.5469" x2="360.5469" y1="169.9375" y2="191.9375"/><polygon fill="#181818" points="356.5469,181.9375,360.5469,191.9375,364.5469,181.9375,360.5469,185.9375" style="stroke:#181818;stroke-width:1;"/><line style="stroke:#181818;stroke-width:1;" x1="148.7285" x2="148.7285" y1="397.8438" y2="415.8438"/><line style="stroke:#181818;stroke-width:1;" x1="148.7285" x2="242.6377" y1="415.8438" y2="415.8438"/><polygon fill="#181818" points="232.6377,411.8438,242.6377,415.8438,232.6377,419.8438,236.6377,415.8438" style="stroke:#181818;stroke-width:1;"/><line style="stroke:#181818;stroke-width:1;" x1="360.5469" x2="360.5469" y1="225.9063" y2="415.8438"/><line style="stroke:#181818;stroke-width:1;" x1="360.5469" x2="266.6377" y1="415.8438" y2="415.8438"/><polygon fill="#181818" points="276.6377,411.8438,266.6377,415.8438,276.6377,419.8438,272.6377,415.8438" style="stroke:#181818;stroke-width:1;"/><line style="stroke:#181818;stroke-width:1;" x1="254.6377" x2="254.6377" y1="137.9375" y2="157.9375"/><polygon fill="#181818" points="250.6377,147.9375,254.6377,157.9375,258.6377,147.9375,254.6377,151.9375" style="stroke:#181818;stroke-width:1;"/><line style="stroke:#181818;stroke-width:1;" x1="254.6377" x2="254.6377" y1="427.8438" y2="447.8438"/><polygon fill="#181818" points="250.6377,437.8438,254.6377,447.8438,258.6377,437.8438,254.6377,441.8438" style="stroke:#181818;stroke-width:1;"/><?plantuml-src NOz13e8m44NtFSKiuGgmC2GQ4rU4eAuR-CHAQRKpHhczXO0QbtrzypB3eeCebHqPWGRTWodW_W1B7kdk9K4tGeTp7P-ce-IahMcfzZtS9YMvm54oWbD5bEqXD7SgRy7vYag4mJ0RxoABSCfy6HNM-YVQ_reSBeDlm4pLkX0HB8CIvnTZ2pTIqKpM_EjQqodrAsKLheWNV1gBm-9lRm00?></g></svg>