<?plantuml 1.2026.1?><svg xmlns="http://www.w3.org/2000/svg" xmlns:xlink="http://www.w3.org/1999/xlink" contentStyleType="text/css" data-diagram-type="CLASS" height="386px" preserveAspectRatio="none" style="width:497px;height:386px;background:#FFFFFF;" version="1.1" viewBox="0 0 497 386" width="497px" zoomAndPan="magnify"><defs/><g><!--class WEB--><g class="entity" data-qualified-name="WEB" data-source-line="3" id="ent0002"><rect fill="#F1F1F1" height="48" rx="2.5" ry="2.5" style="stroke:#181818;stroke-width:0.5;" width="159.0117" x="201.33" y="115"/><ellipse cx="216.33" cy="131" fill="#ADD1B2" rx="11" ry="11" style="stroke:#181818;stroke-width:1;"/><path d="M219.2988,136.6406 Q218.7206,136.9375 218.08,137.0781 Q217.4394,137.2344 216.7363,137.2344 Q214.2363,137.2344 212.9081,135.5938 Q211.5956,133.9375 211.5956,130.8125 Q211.5956,127.6875 212.9081,126.0313 Q214.2363,124.375 216.7363,124.375 Q217.4394,124.375 218.08,124.5313 Q218.7363,124.6875 219.2988,124.9844 L219.2988,127.7031 Q218.6738,127.125 218.08,126.8594 Q217.4863,126.5781 216.8613,126.5781 Q215.5175,126.5781 214.83,127.6563 Q214.1425,128.7188 214.1425,130.8125 Q214.1425,132.9063 214.83,133.9844 Q215.5175,135.0469 216.8613,135.0469 Q217.4863,135.0469 218.08,134.7813 Q218.6738,134.5 219.2988,133.9219 L219.2988,136.6406 Z " fill="#000000"/><text fill="#000000" font-family="sans-serif" font-size="14" lengthAdjust="spacing" textLength="127.0117" x="230.33" y="135.8467">Web App (Next.js)</text><line style="stroke:#181818;stroke-width:0.5;" x1="202.33" x2="359.3417" y1="147" y2="147"/><line style="stroke:#181818;stroke-width:0.5;" x1="202.33" x2="359.3417" y1="155" y2="155"/></g><!--class MOBILE--><g class="entity" data-qualified-name="MOBILE" data-source-line="4" id="ent0003"><rect fill="#F1F1F1" height="48" rx="2.5" ry="2.5" style="stroke:#181818;stroke-width:0.5;" width="159.6816" x="7" y="115"/><ellipse cx="22" cy="131" fill="#ADD1B2" rx="11" ry="11" style="stroke:#181818;stroke-width:1;"/><path d="M24.9688,136.6406 Q24.3906,136.9375 23.75,137.0781 Q23.1094,137.2344 22.4063,137.2344 Q19.9063,137.2344 18.5781,135.5938 Q17.2656,133.9375 17.2656,130.8125 Q17.2656,127.6875 18.5781,126.0313 Q19.9063,124.375 22.4063,124.375 Q23.1094,124.375 23.75,124.5313 Q24.4063,124.6875 24.9688,124.9844 L24.9688,127.7031 Q24.3438,127.125 23.75,126.8594 Q23.1563,126.5781 22.5313,126.5781 Q21.1875,126.5781 20.5,127.6563 Q19.8125,128.7188 19.8125,130.8125 Q19.8125,132.9063 20.5,133.9844 Q21.1875,135.0469 22.5313,135.0469 Q23.1563,135.0469 23.75,134.7813 Q24.3438,134.5 24.9688,133.9219 L24.9688,136.6406 Z " fill="#000000"/><text fill="#000000" font-family="sans-serif" font-size="14" lengthAdjust="spacing" textLength="127.6816" x="36" y="135.8467">Mobile App (Expo)</text><line style="stroke:#181818;stroke-width:0.5;" x1="8" x2="165.6816" y1="147" y2="147"/><line style="stroke:#181818;stroke-width:0.5;" x1="8" x2="165.6816" y1="155" y2="155"/></g><!--class API--><g class="entity" data-qualified-name="API" data-source-line="5" id="ent0004"><rect fill="#F1F1F1" height="48" rx="2.5" ry="2.5" style="stroke:#181818;stroke-width:0.5;" width="190.4912" x="185.6" y="223"/><ellipse cx="200.6" cy="239" fill="#ADD1B2" rx="11" ry="11" style="stroke:#181818;stroke-width:1;"/><path d="M203.5688,244.6406 Q202.9906,244.9375 202.35,245.0781 Q201.7094,245.2344 201.0063,245.2344 Q198.5063,245.2344 197.1781,243.5938 Q195.8656,241.9375 195.8656,238.8125 Q195.8656,235.6875 197.1781,234.0313 Q198.5063,232.375 201.0063,232.375 Q201.7094,232.375 202.35,232.5313 Q203.0063,232.6875 203.5688,232.9844 L203.5688,235.7031 Q202.9438,235.125 202.35,234.8594 Q201.7563,234.5781 201.1313,234.5781 Q199.7875,234.5781 199.1,235.6563 Q198.4125,236.7188 198.4125,238.8125 Q198.4125,240.9063 199.1,241.9844 Q199.7875,243.0469 201.1313,243.0469 Q201.7563,243.0469 202.35,242.7813 Q202.9438,242.5 203.5688,241.9219 L203.5688,244.6406 Z " fill="#000000"/><text fill="#000000" font-family="sans-serif" font-size="14" lengthAdjust="spacing" textLength="158.4912" x="214.6" y="243.8467">API Server (Express.js)</text><line style="stroke:#181818;stroke-width:0.5;" x1="186.6" x2="375.0912" y1="255" y2="255"/><line style="stroke:#181818;stroke-width:0.5;" x1="186.6" x2="375.0912" y1="263" y2="263"/></g><!--class DB--><g class="entity" data-qualified-name="DB" data-source-line="6" id="ent0005"><rect fill="#F1F1F1" height="48" rx="2.5" ry="2.5" style="stroke:#181818;stroke-width:0.5;" width="180.9824" x="79.35" y="331"/><ellipse cx="94.35" cy="347" fill="#ADD1B2" rx="11" ry="11" style="stroke:#181818;stroke-width:1;"/><path d="M97.3188,352.6406 Q96.7406,352.9375 96.1,353.0781 Q95.4594,353.2344 94.7563,353.2344 Q92.2563,353.2344 90.9281,351.5938 Q89.6156,349.9375 89.6156,346.8125 Q89.6156,343.6875 90.9281,342.0313 Q92.2563,340.375 94.7563,340.375 Q95.4594,340.375 96.1,340.5313 Q96.7563,340.6875 97.3188,340.9844 L97.3188,343.7031 Q96.6938,343.125 96.1,342.8594 Q95.5063,342.5781 94.8813,342.5781 Q93.5375,342.5781 92.85,343.6563 Q92.1625,344.7188 92.1625,346.8125 Q92.1625,348.9063 92.85,349.9844 Q93.5375,351.0469 94.8813,351.0469 Q95.5063,351.0469 96.1,350.7813 Q96.6938,350.5 97.3188,349.9219 L97.3188,352.6406 Z " fill="#000000"/><text fill="#000000" font-family="sans-serif" font-size="14" lengthAdjust="spacing" textLength="148.9824" x="108.35" y="351.8467">PostgreSQL + Prisma</text><line style="stroke:#181818;stroke-width:0.5;" x1="80.35" x2="259.3324" y1="363" y2="363"/><line style="stroke:#181818;stroke-width:0.5;" x1="80.35" x2="259.3324" y1="371" y2="371"/></g><!--class LDAP--><g class="entity" data-qualified-name="LDAP" data-source-line="7" id="ent0006"><rect fill="#F1F1F1" height="48" rx="2.5" ry="2.5" style="stroke:#181818;stroke-width:0.5;" width="195.0508" x="295.32" y="331"/><ellipse cx="310.32" cy="347" fill="#ADD1B2" rx="11" ry="11" style="stroke:#181818;stroke-width:1;"/><path d="M313.2888,352.6406 Q312.7106,352.9375 312.07,353.0781 Q311.4294,353.2344 310.7263,353.2344 Q308.2263,353.2344 306.8981,351.5938 Q305.5856,349.9375 305.5856,346.8125 Q305.5856,343.6875 306.8981,342.0313 Q308.2263,340.375 310.7263,340.375 Q311.4294,340.375 312.07,340.5313 Q312.7263,340.6875 313.2888,340.9844 L313.2888,343.7031 Q312.6638,343.125 312.07,342.8594 Q311.4763,342.5781 310.8513,342.5781 Q309.5075,342.5781 308.82,343.6563 Q308.1325,344.7188 308.1325,346.8125 Q308.1325,348.9063 308.82,349.9844 Q309.5075,351.0469 310.8513,351.0469 Q311.4763,351.0469 312.07,350.7813 Q312.6638,350.5 313.2888,349.9219 L313.2888,352.6406 Z " fill="#000000"/><text fill="#000000" font-family="sans-serif" font-size="14" lengthAdjust="spacing" textLength="163.0508" x="324.32" y="351.8467">LDAP / Active Directory</text><line style="stroke:#181818;stroke-width:0.5;" x1="296.32" x2="489.3708" y1="363" y2="363"/><line style="stroke:#181818;stroke-width:0.5;" x1="296.32" x2="489.3708" y1="371" y2="371"/></g><!--class NGINX--><g class="entity" data-qualified-name="NGINX" data-source-line="8" id="ent0007"><rect fill="#F1F1F1" height="48" rx="2.5" ry="2.5" style="stroke:#181818;stroke-width:0.5;" width="173.415" x="260.13" y="7"/><ellipse cx="275.13" cy="23" fill="#ADD1B2" rx="11" ry="11" style="stroke:#181818;stroke-width:1;"/><path d="M278.0988,28.6406 Q277.5206,28.9375 276.88,29.0781 Q276.2394,29.2344 275.5363,29.2344 Q273.0363,29.2344 271.7081,27.5938 Q270.3956,25.9375 270.3956,22.8125 Q270.3956,19.6875 271.7081,18.0313 Q273.0363,16.375 275.5363,16.375 Q276.2394,16.375 276.88,16.5313 Q277.5363,16.6875 278.0988,16.9844 L278.0988,19.7031 Q277.4738,19.125 276.88,18.8594 Q276.2863,18.5781 275.6613,18.5781 Q274.3175,18.5781 273.63,19.6563 Q272.9425,20.7188 272.9425,22.8125 Q272.9425,24.9063 273.63,25.9844 Q274.3175,27.0469 275.6613,27.0469 Q276.2863,27.0469 276.88,26.7813 Q277.4738,26.5 278.0988,25.9219 L278.0988,28.6406 Z " fill="#000000"/><text fill="#000000" font-family="sans-serif" font-size="14" lengthAdjust="spacing" textLength="141.415" x="289.13" y="27.8467">Nginx (Deployment)</text><line style="stroke:#181818;stroke-width:0.5;" x1="261.13" x2="432.545" y1="39" y2="39"/><line style="stroke:#181818;stroke-width:0.5;" x1="261.13" x2="432.545" y1="47" y2="47"/></g><!--link WEB to API--><g class="link" data-entity-1="ent0002" data-entity-2="ent0004" data-link-type="dependency" data-source-line="10" id="lnk8"><path codeLine="10" d="M280.84,163.26 C280.84,180.94 280.84,199.13 280.84,216.79" fill="none" id="WEB-to-API" style="stroke:#181818;stroke-width:1;"/><polygon fill="#181818" points="280.84,222.79,284.84,213.79,280.84,217.79,276.84,213.79,280.84,222.79" style="stroke:#181818;stroke-width:1;"/></g><!--link MOBILE to API--><g class="link" data-entity-1="ent0003" data-entity-2="ent0004" data-link-type="dependency" data-source-line="11" id="lnk9"><path codeLine="11" d="M129.41,163.26 C161.65,180.87 200.4745,202.0935 232.7645,219.7335" fill="none" id="MOBILE-to-API" style="stroke:#181818;stroke-width:1;"/><polygon fill="#181818" points="238.03,222.61,232.0494,214.7849,233.6421,220.2129,228.2141,221.8055,238.03,222.61" style="stroke:#181818;stroke-width:1;"/></g><!--link API to DB--><g class="link" data-entity-1="ent0004" data-entity-2="ent0005" data-link-type="dependency" data-source-line="13" id="lnk10"><path codeLine="13" d="M256.48,271.26 C237.97,288.94 216.98,308.987 198.48,326.647" fill="none" id="API-to-DB" style="stroke:#181818;stroke-width:1;"/><polygon fill="#181818" points="194.14,330.79,203.412,327.4689,197.7567,327.3375,197.8881,321.6822,194.14,330.79" style="stroke:#181818;stroke-width:1;"/></g><!--link API to LDAP--><g class="link" data-entity-1="ent0004" data-entity-2="ent0006" data-link-type="dependency" data-source-line="14" id="lnk11"><path codeLine="14" d="M305.42,271.26 C324.09,288.94 345.3022,309.0057 363.9622,326.6657" fill="none" id="API-to-LDAP" style="stroke:#181818;stroke-width:1;"/><polygon fill="#181818" points="368.32,330.79,364.5328,321.6984,364.6885,327.3531,359.0338,327.5088,368.32,330.79" style="stroke:#181818;stroke-width:1;"/></g><!--link NGINX to WEB--><g class="link" data-entity-1="ent0007" data-entity-2="ent0002" data-link-type="dependency" data-source-line="16" id="lnk12"><path codeLine="16" d="M332.36,55.26 C321.35,72.94 309.4622,92.0372 298.4622,109.6972" fill="none" id="NGINX-to-WEB" style="stroke:#181818;stroke-width:1;"/><polygon fill="#181818" points="295.29,114.79,303.4435,109.2655,297.9335,110.546,296.6531,105.0359,295.29,114.79" style="stroke:#181818;stroke-width:1;"/></g><!--link NGINX to API--><g class="link" data-entity-1="ent0007" data-entity-2="ent0004" data-link-type="dependency" data-source-line="17" id="lnk13"><path codeLine="17" d="M361.13,55.15 C375.78,82.06 394.26,127.34 377.84,163 C366.3,188.06 347.9925,204.9928 327.1425,219.2528" fill="none" id="NGINX-to-API" style="stroke:#181818;stroke-width:1;"/><polygon fill="#181818" points="322.19,222.64,331.8768,220.8609,326.3171,219.8174,327.3606,214.2576,322.19,222.64" style="stroke:#181818;stroke-width:1;"/></g><?plantuml-src LP113e8m44NtFSN8IcFK6vXKQGX9hIWckaKSJGrGqZO4RYyj4N4tV-RD_D_E7lYK5SAPxIzKH9n1NcJ64F9h15Uy0wrhc0jixVfj5W5a1gviDuKEwYuB73ZMrcg03iTTpDcKeqaCAUe6jUSq6ZEUx6TJD576lZIc9mvBIBGqPUQnyC-OXpI13T3SoWOXb1fpgtJdIJURik8bgnRc8TQ5wagixE0hebZS2EbV1AlLriSOWe-IkDXEzDxVqXydVjThzo4_vRO-?></g></svg>