<?plantuml 1.2026.1?><svg xmlns="http://www.w3.org/2000/svg" xmlns:xlink="http://www.w3.org/1999/xlink" contentStyleType="text/css" data-diagram-type="CLASS" height="540px" preserveAspectRatio="none" style="width:1592px;height:540px;background:#FFFFFF;" version="1.1" viewBox="0 0 1592 540" width="1592px" zoomAndPan="magnify"><defs/><g><!--class User--><g class="entity" data-qualified-name="User" data-source-line="4" id="ent0002"><rect fill="#F1F1F1" height="113.1875" rx="2.5" ry="2.5" style="stroke:#181818;stroke-width:0.5;" width="164.9336" x="597.93" y="213.49"/><ellipse cx="660.1917" cy="229.49" fill="#ADD1B2" rx="11" ry="11" style="stroke:#181818;stroke-width:1;"/><path d="M663.1605,235.1306 Q662.5823,235.4275 661.9417,235.5681 Q661.3011,235.7244 660.598,235.7244 Q658.098,235.7244 656.7698,234.0837 Q655.4573,232.4275 655.4573,229.3025 Q655.4573,226.1775 656.7698,224.5212 Q658.098,222.865 660.598,222.865 Q661.3011,222.865 661.9417,223.0212 Q662.598,223.1775 663.1605,223.4744 L663.1605,226.1931 Q662.5355,225.615 661.9417,225.3494 Q661.348,225.0681 660.723,225.0681 Q659.3792,225.0681 658.6917,226.1462 Q658.0042,227.2087 658.0042,229.3025 Q658.0042,231.3962 658.6917,232.4744 Q659.3792,233.5369 660.723,233.5369 Q661.348,233.5369 661.9417,233.2712 Q662.5355,232.99 663.1605,232.4119 L663.1605,235.1306 Z " fill="#000000"/><text fill="#000000" font-family="sans-serif" font-size="14" lengthAdjust="spacing" textLength="31.9102" x="680.6917" y="234.3367">User</text><line style="stroke:#181818;stroke-width:0.5;" x1="598.93" x2="761.8636" y1="245.49" y2="245.49"/><text fill="#000000" font-family="sans-serif" font-size="14" lengthAdjust="spacing" textLength="57.3467" x="603.93" y="262.4851">id: UUID</text><text fill="#000000" font-family="sans-serif" font-size="14" lengthAdjust="spacing" textLength="89.5576" x="603.93" y="278.782">email: String</text><text fill="#000000" font-family="sans-serif" font-size="14" lengthAdjust="spacing" textLength="152.9336" x="603.93" y="295.0789">passwordHash: String</text><text fill="#000000" font-family="sans-serif" font-size="14" lengthAdjust="spacing" textLength="146.0225" x="603.93" y="311.3757">createdAt: DateTime</text><line style="stroke:#181818;stroke-width:0.5;" x1="598.93" x2="761.8636" y1="318.6775" y2="318.6775"/></g><!--class Role--><g class="entity" data-qualified-name="Role" data-source-line="11" id="ent0003"><rect fill="#F1F1F1" height="96.8906" rx="2.5" ry="2.5" style="stroke:#181818;stroke-width:0.5;" width="140.7891" x="7" y="221.64"/><ellipse cx="57.7466" cy="237.64" fill="#ADD1B2" rx="11" ry="11" style="stroke:#181818;stroke-width:1;"/><path d="M60.7153,243.2806 Q60.1372,243.5775 59.4966,243.7181 Q58.856,243.8744 58.1528,243.8744 Q55.6528,243.8744 54.3247,242.2338 Q53.0122,240.5775 53.0122,237.4525 Q53.0122,234.3275 54.3247,232.6713 Q55.6528,231.015 58.1528,231.015 Q58.856,231.015 59.4966,231.1713 Q60.1528,231.3275 60.7153,231.6244 L60.7153,234.3431 Q60.0903,233.765 59.4966,233.4994 Q58.9028,233.2181 58.2778,233.2181 Q56.9341,233.2181 56.2466,234.2963 Q55.5591,235.3588 55.5591,237.4525 Q55.5591,239.5463 56.2466,240.6244 Q56.9341,241.6869 58.2778,241.6869 Q58.9028,241.6869 59.4966,241.4213 Q60.0903,241.14 60.7153,240.5619 L60.7153,243.2806 Z " fill="#000000"/><text fill="#000000" font-family="sans-serif" font-size="14" lengthAdjust="spacing" textLength="30.7959" x="78.2466" y="242.4867">Role</text><line style="stroke:#181818;stroke-width:0.5;" x1="8" x2="146.7891" y1="253.64" y2="253.64"/><text fill="#000000" font-family="sans-serif" font-size="14" lengthAdjust="spacing" textLength="57.3467" x="13" y="270.6351">id: UUID</text><text fill="#000000" font-family="sans-serif" font-size="14" lengthAdjust="spacing" textLength="90.6514" x="13" y="286.932">name: String</text><text fill="#000000" font-family="sans-serif" font-size="14" lengthAdjust="spacing" textLength="128.7891" x="13" y="303.2289">description: String</text><line style="stroke:#181818;stroke-width:0.5;" x1="8" x2="146.7891" y1="310.5306" y2="310.5306"/></g><!--class Permission--><g class="entity" data-qualified-name="Permission" data-source-line="17" id="ent0004"><rect fill="#F1F1F1" height="96.8906" rx="2.5" ry="2.5" style="stroke:#181818;stroke-width:0.5;" width="140.7891" x="212" y="221.64"/><ellipse cx="241.6404" cy="237.64" fill="#ADD1B2" rx="11" ry="11" style="stroke:#181818;stroke-width:1;"/><path d="M244.6091,243.2806 Q244.031,243.5775 243.3904,243.7181 Q242.7498,243.8744 242.0466,243.8744 Q239.5466,243.8744 238.2185,242.2338 Q236.906,240.5775 236.906,237.4525 Q236.906,234.3275 238.2185,232.6713 Q239.5466,231.015 242.0466,231.015 Q242.7498,231.015 243.3904,231.1713 Q244.0466,231.3275 244.6091,231.6244 L244.6091,234.3431 Q243.9841,233.765 243.3904,233.4994 Q242.7966,233.2181 242.1716,233.2181 Q240.8279,233.2181 240.1404,234.2963 Q239.4529,235.3588 239.4529,237.4525 Q239.4529,239.5463 240.1404,240.6244 Q240.8279,241.6869 242.1716,241.6869 Q242.7966,241.6869 243.3904,241.4213 Q243.9841,241.14 244.6091,240.5619 L244.6091,243.2806 Z " fill="#000000"/><text fill="#000000" font-family="sans-serif" font-size="14" lengthAdjust="spacing" textLength="76.2549" x="258.8938" y="242.4867">Permission</text><line style="stroke:#181818;stroke-width:0.5;" x1="213" x2="351.7891" y1="253.64" y2="253.64"/><text fill="#000000" font-family="sans-serif" font-size="14" lengthAdjust="spacing" textLength="57.3467" x="218" y="270.6351">id: UUID</text><text fill="#000000" font-family="sans-serif" font-size="14" lengthAdjust="spacing" textLength="75.9541" x="218" y="286.932">key: String</text><text fill="#000000" font-family="sans-serif" font-size="14" lengthAdjust="spacing" textLength="128.7891" x="218" y="303.2289">description: String</text><line style="stroke:#181818;stroke-width:0.5;" x1="213" x2="351.7891" y1="310.5306" y2="310.5306"/></g><!--class UserRole--><g class="entity" data-qualified-name="UserRole" data-source-line="23" id="ent0005"><rect fill="#F1F1F1" height="80.5938" rx="2.5" ry="2.5" style="stroke:#181818;stroke-width:0.5;" width="100.1221" x="204.33" y="428.12"/><ellipse cx="221.7672" cy="444.12" fill="#ADD1B2" rx="11" ry="11" style="stroke:#181818;stroke-width:1;"/><path d="M224.736,449.7606 Q224.1578,450.0575 223.5172,450.1981 Q222.8766,450.3544 222.1735,450.3544 Q219.6735,450.3544 218.3453,448.7137 Q217.0328,447.0575 217.0328,443.9325 Q217.0328,440.8075 218.3453,439.1512 Q219.6735,437.495 222.1735,437.495 Q222.8766,437.495 223.5172,437.6512 Q224.1735,437.8075 224.736,438.1044 L224.736,440.8231 Q224.111,440.245 223.5172,439.9794 Q222.9235,439.6981 222.2985,439.6981 Q220.9547,439.6981 220.2672,440.7762 Q219.5797,441.8387 219.5797,443.9325 Q219.5797,446.0262 220.2672,447.1044 Q220.9547,448.1669 222.2985,448.1669 Q222.9235,448.1669 223.5172,447.9012 Q224.111,447.62 224.736,447.0419 L224.736,449.7606 Z " fill="#000000"/><text fill="#000000" font-family="sans-serif" font-size="14" lengthAdjust="spacing" textLength="62.7061" x="236.3088" y="448.9667">UserRole</text><line style="stroke:#181818;stroke-width:0.5;" x1="205.33" x2="303.4521" y1="460.12" y2="460.12"/><text fill="#000000" font-family="sans-serif" font-size="14" lengthAdjust="spacing" textLength="88.1221" x="210.33" y="477.1151">userId: UUID</text><text fill="#000000" font-family="sans-serif" font-size="14" lengthAdjust="spacing" textLength="84.4102" x="210.33" y="493.412">roleId: UUID</text><line style="stroke:#181818;stroke-width:0.5;" x1="205.33" x2="303.4521" y1="500.7137" y2="500.7137"/></g><!--class RolePermission--><g class="entity" data-qualified-name="RolePermission" data-source-line="28" id="ent0006"><rect fill="#F1F1F1" height="80.5938" rx="2.5" ry="2.5" style="stroke:#181818;stroke-width:0.5;" width="146.2852" x="17.25" y="428.12"/><ellipse cx="35.5055" cy="444.12" fill="#ADD1B2" rx="11" ry="11" style="stroke:#181818;stroke-width:1;"/><path d="M38.4742,449.7606 Q37.8961,450.0575 37.2555,450.1981 Q36.6148,450.3544 35.9117,450.3544 Q33.4117,450.3544 32.0836,448.7137 Q30.7711,447.0575 30.7711,443.9325 Q30.7711,440.8075 32.0836,439.1512 Q33.4117,437.495 35.9117,437.495 Q36.6148,437.495 37.2555,437.6512 Q37.9117,437.8075 38.4742,438.1044 L38.4742,440.8231 Q37.8492,440.245 37.2555,439.9794 Q36.6617,439.6981 36.0367,439.6981 Q34.693,439.6981 34.0055,440.7762 Q33.318,441.8387 33.318,443.9325 Q33.318,446.0262 34.0055,447.1044 Q34.693,448.1669 36.0367,448.1669 Q36.6617,448.1669 37.2555,447.9012 Q37.8492,447.62 38.4742,447.0419 L38.4742,449.7606 Z " fill="#000000"/><text fill="#000000" font-family="sans-serif" font-size="14" lengthAdjust="spacing" textLength="107.0508" x="50.2289" y="448.9667">RolePermission</text><line style="stroke:#181818;stroke-width:0.5;" x1="18.25" x2="162.5352" y1="460.12" y2="460.12"/><text fill="#000000" font-family="sans-serif" font-size="14" lengthAdjust="spacing" textLength="84.4102" x="23.25" y="477.1151">roleId: UUID</text><text fill="#000000" font-family="sans-serif" font-size="14" lengthAdjust="spacing" textLength="134.2852" x="23.25" y="493.412">permissionId: UUID</text><line style="stroke:#181818;stroke-width:0.5;" x1="18.25" x2="162.5352" y1="500.7137" y2="500.7137"/></g><!--class UserPermission--><g class="entity" data-qualified-name="UserPermission" data-source-line="33" id="ent0007"><rect fill="#F1F1F1" height="96.8906" rx="2.5" ry="2.5" style="stroke:#181818;stroke-width:0.5;" width="178.1953" x="342.3" y="419.97"/><ellipse cx="374.4136" cy="435.97" fill="#ADD1B2" rx="11" ry="11" style="stroke:#181818;stroke-width:1;"/><path d="M377.3824,441.6106 Q376.8042,441.9075 376.1636,442.0481 Q375.523,442.2044 374.8199,442.2044 Q372.3199,442.2044 370.9917,440.5637 Q369.6792,438.9075 369.6792,435.7825 Q369.6792,432.6575 370.9917,431.0012 Q372.3199,429.345 374.8199,429.345 Q375.523,429.345 376.1636,429.5012 Q376.8199,429.6575 377.3824,429.9544 L377.3824,432.6731 Q376.7574,432.095 376.1636,431.8294 Q375.5699,431.5481 374.9449,431.5481 Q373.6011,431.5481 372.9136,432.6262 Q372.2261,433.6887 372.2261,435.7825 Q372.2261,437.8762 372.9136,438.9544 Q373.6011,440.0169 374.9449,440.0169 Q375.5699,440.0169 376.1636,439.7512 Q376.7574,439.47 377.3824,438.8919 L377.3824,441.6106 Z " fill="#000000"/><text fill="#000000" font-family="sans-serif" font-size="14" lengthAdjust="spacing" textLength="108.165" x="392.2167" y="440.8167">UserPermission</text><line style="stroke:#181818;stroke-width:0.5;" x1="343.3" x2="519.4953" y1="451.97" y2="451.97"/><text fill="#000000" font-family="sans-serif" font-size="14" lengthAdjust="spacing" textLength="88.1221" x="348.3" y="468.9651">userId: UUID</text><text fill="#000000" font-family="sans-serif" font-size="14" lengthAdjust="spacing" textLength="134.2852" x="348.3" y="485.262">permissionId: UUID</text><text fill="#000000" font-family="sans-serif" font-size="14" lengthAdjust="spacing" textLength="166.1953" x="348.3" y="501.5589">effect: PermissionEffect</text><line style="stroke:#181818;stroke-width:0.5;" x1="343.3" x2="519.4953" y1="508.8606" y2="508.8606"/></g><!--class UserSettings--><g class="entity" data-qualified-name="UserSettings" data-source-line="39" id="ent0008"><rect fill="#F1F1F1" height="96.8906" rx="2.5" ry="2.5" style="stroke:#181818;stroke-width:0.5;" width="220.4551" x="621.17" y="419.97"/><ellipse cx="682.4815" cy="435.97" fill="#ADD1B2" rx="11" ry="11" style="stroke:#181818;stroke-width:1;"/><path d="M685.4503,441.6106 Q684.8721,441.9075 684.2315,442.0481 Q683.5909,442.2044 682.8878,442.2044 Q680.3878,442.2044 679.0596,440.5637 Q677.7471,438.9075 677.7471,435.7825 Q677.7471,432.6575 679.0596,431.0012 Q680.3878,429.345 682.8878,429.345 Q683.5909,429.345 684.2315,429.5012 Q684.8878,429.6575 685.4503,429.9544 L685.4503,432.6731 Q684.8253,432.095 684.2315,431.8294 Q683.6378,431.5481 683.0128,431.5481 Q681.669,431.5481 680.9815,432.6262 Q680.294,433.6887 680.294,435.7825 Q680.294,437.8762 680.9815,438.9544 Q681.669,440.0169 683.0128,440.0169 Q683.6378,440.0169 684.2315,439.7512 Q684.8253,439.47 685.4503,438.8919 L685.4503,441.6106 Z " fill="#000000"/><text fill="#000000" font-family="sans-serif" font-size="14" lengthAdjust="spacing" textLength="89.332" x="702.9815" y="440.8167">UserSettings</text><line style="stroke:#181818;stroke-width:0.5;" x1="622.17" x2="840.6251" y1="451.97" y2="451.97"/><text fill="#000000" font-family="sans-serif" font-size="14" lengthAdjust="spacing" textLength="88.1221" x="627.17" y="468.9651">userId: UUID</text><text fill="#000000" font-family="sans-serif" font-size="14" lengthAdjust="spacing" textLength="96.1748" x="627.17" y="485.262">theme: String</text><text fill="#000000" font-family="sans-serif" font-size="14" lengthAdjust="spacing" textLength="208.4551" x="627.17" y="501.5589">notificationsEnabled: Boolean</text><line style="stroke:#181818;stroke-width:0.5;" x1="622.17" x2="840.6251" y1="508.8606" y2="508.8606"/></g><!--class AuditLog--><g class="entity" data-qualified-name="AuditLog" data-source-line="45" id="ent0009"><rect fill="#F1F1F1" height="129.4844" rx="2.5" ry="2.5" style="stroke:#181818;stroke-width:0.5;" width="164.8379" x="876.98" y="403.68"/><ellipse cx="924.1651" cy="419.68" fill="#ADD1B2" rx="11" ry="11" style="stroke:#181818;stroke-width:1;"/><path d="M927.1338,425.3206 Q926.5557,425.6175 925.9151,425.7581 Q925.2744,425.9144 924.5713,425.9144 Q922.0713,425.9144 920.7432,424.2737 Q919.4307,422.6175 919.4307,419.4925 Q919.4307,416.3675 920.7432,414.7112 Q922.0713,413.055 924.5713,413.055 Q925.2744,413.055 925.9151,413.2112 Q926.5713,413.3675 927.1338,413.6644 L927.1338,416.3831 Q926.5088,415.805 925.9151,415.5394 Q925.3213,415.2581 924.6963,415.2581 Q923.3526,415.2581 922.6651,416.3362 Q921.9776,417.3987 921.9776,419.4925 Q921.9776,421.5862 922.6651,422.6644 Q923.3526,423.7269 924.6963,423.7269 Q925.3213,423.7269 925.9151,423.4612 Q926.5088,423.18 927.1338,422.6019 L927.1338,425.3206 Z " fill="#000000"/><text fill="#000000" font-family="sans-serif" font-size="14" lengthAdjust="spacing" textLength="61.9678" x="944.6651" y="424.5267">AuditLog</text><line style="stroke:#181818;stroke-width:0.5;" x1="877.98" x2="1040.8179" y1="435.68" y2="435.68"/><text fill="#000000" font-family="sans-serif" font-size="14" lengthAdjust="spacing" textLength="57.3467" x="882.98" y="452.6751">id: UUID</text><text fill="#000000" font-family="sans-serif" font-size="14" lengthAdjust="spacing" textLength="88.1221" x="882.98" y="468.972">userId: UUID</text><text fill="#000000" font-family="sans-serif" font-size="14" lengthAdjust="spacing" textLength="94.042" x="882.98" y="485.2689">action: String</text><text fill="#000000" font-family="sans-serif" font-size="14" lengthAdjust="spacing" textLength="112.1162" x="882.98" y="501.5657">resource: String</text><text fill="#000000" font-family="sans-serif" font-size="14" lengthAdjust="spacing" textLength="152.8379" x="882.98" y="517.8626">timestamp: DateTime</text><line style="stroke:#181818;stroke-width:0.5;" x1="877.98" x2="1040.8179" y1="525.1644" y2="525.1644"/></g><!--class Incident--><g class="entity" data-qualified-name="Incident" data-source-line="67" id="ent0018"><rect fill="#F1F1F1" height="129.4844" rx="2.5" ry="2.5" style="stroke:#181818;stroke-width:0.5;" width="178.209" x="889.29" y="7"/><ellipse cx="945.9189" cy="23" fill="#ADD1B2" rx="11" ry="11" style="stroke:#181818;stroke-width:1;"/><path d="M948.8877,28.6406 Q948.3095,28.9375 947.6689,29.0781 Q947.0283,29.2344 946.3252,29.2344 Q943.8252,29.2344 942.497,27.5938 Q941.1845,25.9375 941.1845,22.8125 Q941.1845,19.6875 942.497,18.0313 Q943.8252,16.375 946.3252,16.375 Q947.0283,16.375 947.6689,16.5313 Q948.3252,16.6875 948.8877,16.9844 L948.8877,19.7031 Q948.2627,19.125 947.6689,18.8594 Q947.0752,18.5781 946.4502,18.5781 Q945.1064,18.5781 944.4189,19.6563 Q943.7314,20.7188 943.7314,22.8125 Q943.7314,24.9063 944.4189,25.9844 Q945.1064,27.0469 946.4502,27.0469 Q947.0752,27.0469 947.6689,26.7813 Q948.2627,26.5 948.8877,25.9219 L948.8877,28.6406 Z " fill="#000000"/><text fill="#000000" font-family="sans-serif" font-size="14" lengthAdjust="spacing" textLength="56.4512" x="966.4189" y="27.8467">Incident</text><line style="stroke:#181818;stroke-width:0.5;" x1="890.29" x2="1066.499" y1="39" y2="39"/><text fill="#000000" font-family="sans-serif" font-size="14" lengthAdjust="spacing" textLength="57.3467" x="895.29" y="55.9951">id: UUID</text><text fill="#000000" font-family="sans-serif" font-size="14" lengthAdjust="spacing" textLength="78.3193" x="895.29" y="72.292">title: String</text><text fill="#000000" font-family="sans-serif" font-size="14" lengthAdjust="spacing" textLength="153.248" x="895.29" y="88.5889">status: IncidentStatus</text><text fill="#000000" font-family="sans-serif" font-size="14" lengthAdjust="spacing" textLength="166.209" x="895.29" y="104.8857">priority: IncidentPriority</text><text fill="#000000" font-family="sans-serif" font-size="14" lengthAdjust="spacing" textLength="146.0225" x="895.29" y="121.1826">createdAt: DateTime</text><line style="stroke:#181818;stroke-width:0.5;" x1="890.29" x2="1066.499" y1="128.4844" y2="128.4844"/></g><!--class Asset--><g class="entity" data-qualified-name="Asset" data-source-line="75" id="ent0019"><rect fill="#F1F1F1" height="96.8906" rx="2.5" ry="2.5" style="stroke:#181818;stroke-width:0.5;" width="102.6514" x="1405.07" y="221.64"/><ellipse cx="1434.6427" cy="237.64" fill="#ADD1B2" rx="11" ry="11" style="stroke:#181818;stroke-width:1;"/><path d="M1437.6115,243.2806 Q1437.0333,243.5775 1436.3927,243.7181 Q1435.7521,243.8744 1435.049,243.8744 Q1432.549,243.8744 1431.2208,242.2338 Q1429.9083,240.5775 1429.9083,237.4525 Q1429.9083,234.3275 1431.2208,232.6713 Q1432.549,231.015 1435.049,231.015 Q1435.7521,231.015 1436.3927,231.1713 Q1437.049,231.3275 1437.6115,231.6244 L1437.6115,234.3431 Q1436.9865,233.765 1436.3927,233.4994 Q1435.799,233.2181 1435.174,233.2181 Q1433.8302,233.2181 1433.1427,234.2963 Q1432.4552,235.3588 1432.4552,237.4525 Q1432.4552,239.5463 1433.1427,240.6244 Q1433.8302,241.6869 1435.174,241.6869 Q1435.799,241.6869 1436.3927,241.4213 Q1436.9865,241.14 1437.6115,240.5619 L1437.6115,243.2806 Z " fill="#000000"/><text fill="#000000" font-family="sans-serif" font-size="14" lengthAdjust="spacing" textLength="38.2676" x="1451.8811" y="242.4867">Asset</text><line style="stroke:#181818;stroke-width:0.5;" x1="1406.07" x2="1506.7214" y1="253.64" y2="253.64"/><text fill="#000000" font-family="sans-serif" font-size="14" lengthAdjust="spacing" textLength="57.3467" x="1411.07" y="270.6351">id: UUID</text><text fill="#000000" font-family="sans-serif" font-size="14" lengthAdjust="spacing" textLength="90.6514" x="1411.07" y="286.932">name: String</text><text fill="#000000" font-family="sans-serif" font-size="14" lengthAdjust="spacing" textLength="82.2227" x="1411.07" y="303.2289">type: String</text><line style="stroke:#181818;stroke-width:0.5;" x1="1406.07" x2="1506.7214" y1="310.5306" y2="310.5306"/></g><!--class Problem--><g class="entity" data-qualified-name="Problem" data-source-line="81" id="ent0020"><rect fill="#F1F1F1" height="96.8906" rx="2.5" ry="2.5" style="stroke:#181818;stroke-width:0.5;" width="119.1738" x="1188.81" y="221.64"/><ellipse cx="1217.0323" cy="237.64" fill="#ADD1B2" rx="11" ry="11" style="stroke:#181818;stroke-width:1;"/><path d="M1220.001,243.2806 Q1219.4229,243.5775 1218.7823,243.7181 Q1218.1416,243.8744 1217.4385,243.8744 Q1214.9385,243.8744 1213.6104,242.2338 Q1212.2979,240.5775 1212.2979,237.4525 Q1212.2979,234.3275 1213.6104,232.6713 Q1214.9385,231.015 1217.4385,231.015 Q1218.1416,231.015 1218.7823,231.1713 Q1219.4385,231.3275 1220.001,231.6244 L1220.001,234.3431 Q1219.376,233.765 1218.7823,233.4994 Q1218.1885,233.2181 1217.5635,233.2181 Q1216.2198,233.2181 1215.5323,234.2963 Q1214.8448,235.3588 1214.8448,237.4525 Q1214.8448,239.5463 1215.5323,240.6244 Q1216.2198,241.6869 1217.5635,241.6869 Q1218.1885,241.6869 1218.7823,241.4213 Q1219.376,241.14 1220.001,240.5619 L1220.001,243.2806 Z " fill="#000000"/><text fill="#000000" font-family="sans-serif" font-size="14" lengthAdjust="spacing" textLength="57.791" x="1233.9705" y="242.4867">Problem</text><line style="stroke:#181818;stroke-width:0.5;" x1="1189.81" x2="1306.9838" y1="253.64" y2="253.64"/><text fill="#000000" font-family="sans-serif" font-size="14" lengthAdjust="spacing" textLength="57.3467" x="1194.81" y="270.6351">id: UUID</text><text fill="#000000" font-family="sans-serif" font-size="14" lengthAdjust="spacing" textLength="78.3193" x="1194.81" y="286.932">title: String</text><text fill="#000000" font-family="sans-serif" font-size="14" lengthAdjust="spacing" textLength="107.1738" x="1194.81" y="303.2289">severity: String</text><line style="stroke:#181818;stroke-width:0.5;" x1="1189.81" x2="1306.9838" y1="310.5306" y2="310.5306"/></g><!--class Document--><g class="entity" data-qualified-name="Document" data-source-line="87" id="ent0021"><rect fill="#F1F1F1" height="96.8906" rx="2.5" ry="2.5" style="stroke:#181818;stroke-width:0.5;" width="105.707" x="1215.54" y="23.3"/><ellipse cx="1231.07" cy="39.3" fill="#ADD1B2" rx="11" ry="11" style="stroke:#181818;stroke-width:1;"/><path d="M1234.0387,44.9406 Q1233.4606,45.2375 1232.82,45.3781 Q1232.1794,45.5344 1231.4762,45.5344 Q1228.9762,45.5344 1227.6481,43.8937 Q1226.3356,42.2375 1226.3356,39.1125 Q1226.3356,35.9875 1227.6481,34.3312 Q1228.9762,32.675 1231.4762,32.675 Q1232.1794,32.675 1232.82,32.8312 Q1233.4762,32.9875 1234.0387,33.2844 L1234.0387,36.0031 Q1233.4137,35.425 1232.82,35.1594 Q1232.2262,34.8781 1231.6012,34.8781 Q1230.2575,34.8781 1229.57,35.9562 Q1228.8825,37.0187 1228.8825,39.1125 Q1228.8825,41.2062 1229.57,42.2844 Q1230.2575,43.3469 1231.6012,43.3469 Q1232.2262,43.3469 1232.82,43.0812 Q1233.4137,42.8 1234.0387,42.2219 L1234.0387,44.9406 Z " fill="#000000"/><text fill="#000000" font-family="sans-serif" font-size="14" lengthAdjust="spacing" textLength="72.5293" x="1245.1878" y="44.1467">Document</text><line style="stroke:#181818;stroke-width:0.5;" x1="1216.54" x2="1320.247" y1="55.3" y2="55.3"/><text fill="#000000" font-family="sans-serif" font-size="14" lengthAdjust="spacing" textLength="57.3467" x="1221.54" y="72.2951">id: UUID</text><text fill="#000000" font-family="sans-serif" font-size="14" lengthAdjust="spacing" textLength="78.3193" x="1221.54" y="88.592">title: String</text><text fill="#000000" font-family="sans-serif" font-size="14" lengthAdjust="spacing" textLength="93.707" x="1221.54" y="104.8889">content: Text</text><line style="stroke:#181818;stroke-width:0.5;" x1="1216.54" x2="1320.247" y1="112.1906" y2="112.1906"/></g><!--class Relationship--><g class="entity" data-qualified-name="Relationship" data-source-line="93" id="ent0022"><rect fill="#F1F1F1" height="80.5938" rx="2.5" ry="2.5" style="stroke:#181818;stroke-width:0.5;" width="118.5703" x="1459.11" y="31.45"/><ellipse cx="1474.11" cy="47.45" fill="#ADD1B2" rx="11" ry="11" style="stroke:#181818;stroke-width:1;"/><path d="M1477.0788,53.0906 Q1476.5006,53.3875 1475.86,53.5281 Q1475.2194,53.6844 1474.5163,53.6844 Q1472.0163,53.6844 1470.6881,52.0437 Q1469.3756,50.3875 1469.3756,47.2625 Q1469.3756,44.1375 1470.6881,42.4812 Q1472.0163,40.825 1474.5163,40.825 Q1475.2194,40.825 1475.86,40.9812 Q1476.5163,41.1375 1477.0788,41.4344 L1477.0788,44.1531 Q1476.4538,43.575 1475.86,43.3094 Q1475.2663,43.0281 1474.6413,43.0281 Q1473.2975,43.0281 1472.61,44.1062 Q1471.9225,45.1687 1471.9225,47.2625 Q1471.9225,49.3562 1472.61,50.4344 Q1473.2975,51.4969 1474.6413,51.4969 Q1475.2663,51.4969 1475.86,51.2312 Q1476.4538,50.95 1477.0788,50.3719 L1477.0788,53.0906 Z " fill="#000000"/><text fill="#000000" font-family="sans-serif" font-size="14" lengthAdjust="spacing" textLength="86.5703" x="1488.11" y="52.2967">Relationship</text><line style="stroke:#181818;stroke-width:0.5;" x1="1460.11" x2="1576.6803" y1="63.45" y2="63.45"/><text fill="#000000" font-family="sans-serif" font-size="14" lengthAdjust="spacing" textLength="57.3467" x="1465.11" y="80.4451">id: UUID</text><text fill="#000000" font-family="sans-serif" font-size="14" lengthAdjust="spacing" textLength="82.2227" x="1465.11" y="96.742">type: String</text><line style="stroke:#181818;stroke-width:0.5;" x1="1460.11" x2="1576.6803" y1="104.0437" y2="104.0437"/></g><!--class IncidentKnowledgeFeedback--><g class="entity" data-qualified-name="IncidentKnowledgeFeedback" data-source-line="98" id="ent0023"><rect fill="#F1F1F1" height="80.5938" rx="2.5" ry="2.5" style="stroke:#181818;stroke-width:0.5;" width="232.8467" x="797.97" y="229.78"/><ellipse cx="812.97" cy="245.78" fill="#ADD1B2" rx="11" ry="11" style="stroke:#181818;stroke-width:1;"/><path d="M815.9388,251.4206 Q815.3606,251.7175 814.72,251.8581 Q814.0794,252.0144 813.3763,252.0144 Q810.8763,252.0144 809.5481,250.3737 Q808.2356,248.7175 808.2356,245.5925 Q808.2356,242.4675 809.5481,240.8112 Q810.8763,239.155 813.3763,239.155 Q814.0794,239.155 814.72,239.3112 Q815.3763,239.4675 815.9388,239.7644 L815.9388,242.4831 Q815.3138,241.905 814.72,241.6394 Q814.1263,241.3581 813.5013,241.3581 Q812.1575,241.3581 811.47,242.4362 Q810.7825,243.4987 810.7825,245.5925 Q810.7825,247.6862 811.47,248.7644 Q812.1575,249.8269 813.5013,249.8269 Q814.1263,249.8269 814.72,249.5612 Q815.3138,249.28 815.9388,248.7019 L815.9388,251.4206 Z " fill="#000000"/><text fill="#000000" font-family="sans-serif" font-size="14" lengthAdjust="spacing" textLength="200.8467" x="826.97" y="250.6267">IncidentKnowledgeFeedback</text><line style="stroke:#181818;stroke-width:0.5;" x1="798.97" x2="1029.8167" y1="261.78" y2="261.78"/><text fill="#000000" font-family="sans-serif" font-size="14" lengthAdjust="spacing" textLength="57.3467" x="803.97" y="278.7751">id: UUID</text><text fill="#000000" font-family="sans-serif" font-size="14" lengthAdjust="spacing" textLength="141.7227" x="803.97" y="295.072">usefulnessScore: Int</text><line style="stroke:#181818;stroke-width:0.5;" x1="798.97" x2="1029.8167" y1="302.3738" y2="302.3738"/></g><!--link User to UserSettings--><g class="link" data-entity-1="ent0002" data-entity-2="ent0008" data-link-type="dependency" data-source-line="54" id="lnk10"><path codeLine="54" d="M694.94,327.08 C702.54,356.32 710.2205,385.923 717.4805,413.853" fill="none" id="User-to-UserSettings" style="stroke:#181818;stroke-width:1;"/><polygon fill="#181818" points="718.99,419.66,720.5972,409.9432,717.7321,414.8208,712.8545,411.9558,718.99,419.66" style="stroke:#181818;stroke-width:1;"/><text fill="#000000" font-family="sans-serif" font-size="13" lengthAdjust="spacing" textLength="22.9785" x="707.39" y="369.7469">has</text><text fill="#000000" font-family="sans-serif" font-size="13" lengthAdjust="spacing" textLength="8.271" x="688.1747" y="346.612">1</text><text fill="#000000" font-family="sans-serif" font-size="13" lengthAdjust="spacing" textLength="8.271" x="708.7017" y="408.8253">1</text></g><!--link User to UserRole--><g class="link" data-entity-1="ent0002" data-entity-2="ent0005" data-link-type="dependency" data-source-line="55" id="lnk11"><path codeLine="55" d="M597.74,306.48 C563.4,321.51 523.26,339.5 487.39,356.68 C472.51,363.8 469.89,368 454.39,373.68 C398.72,394.08 376.92,376.15 324.39,403.68 C312.46,409.93 305.4424,414.7091 295.3624,423.7691" fill="none" id="User-to-UserRole" style="stroke:#181818;stroke-width:1;"/><polygon fill="#181818" points="290.9,427.78,300.2675,424.7387,294.6187,424.4376,294.9197,418.7888,290.9,427.78" style="stroke:#181818;stroke-width:1;"/><text fill="#000000" font-family="sans-serif" font-size="13" lengthAdjust="spacing" textLength="93.2344" x="488.39" y="369.7469">assignedRoles</text><text fill="#000000" font-family="sans-serif" font-size="13" lengthAdjust="spacing" textLength="8.271" x="581.7638" y="306.2169">1</text><text fill="#000000" font-family="sans-serif" font-size="13" lengthAdjust="spacing" textLength="23.0356" x="271.8886" y="417.1857">0..*</text></g><!--link Role to UserRole--><g class="link" data-entity-1="ent0003" data-entity-2="ent0005" data-link-type="dependency" data-source-line="56" id="lnk12"><path codeLine="56" d="M79.03,318.9 C81.93,337.88 88.23,358.7 101.39,373.68 C126.46,402.2 148.79,384.21 181.39,403.68 C192.81,410.49 199.5738,415.266 209.7738,424.006" fill="none" id="Role-to-UserRole" style="stroke:#181818;stroke-width:1;"/><polygon fill="#181818" points="214.33,427.91,210.0984,419.0165,210.5332,424.6567,204.8931,425.0914,214.33,427.91" style="stroke:#181818;stroke-width:1;"/><text fill="#000000" font-family="sans-serif" font-size="13" lengthAdjust="spacing" textLength="110.1636" x="102.39" y="369.7469">assignedToUsers</text><text fill="#000000" font-family="sans-serif" font-size="13" lengthAdjust="spacing" textLength="8.271" x="70.7305" y="338.5431">1</text><text fill="#000000" font-family="sans-serif" font-size="13" lengthAdjust="spacing" textLength="23.0356" x="182.7932" y="417.0368">0..*</text></g><!--link Role to RolePermission--><g class="link" data-entity-1="ent0003" data-entity-2="ent0006" data-link-type="dependency" data-source-line="58" id="lnk13"><path codeLine="58" d="M29.97,318.81 C18.9,335.5 11.98,354.8 18.39,373.68 C25.13,393.49 34.093,407.7873 47.053,423.3673" fill="none" id="Role-to-RolePermission" style="stroke:#181818;stroke-width:1;"/><polygon fill="#181818" points="50.89,427.98,48.2096,418.5029,47.6925,424.1361,42.0593,423.6189,50.89,427.98" style="stroke:#181818;stroke-width:1;"/><text fill="#000000" font-family="sans-serif" font-size="13" lengthAdjust="spacing" textLength="41.6724" x="19.39" y="369.7469">grants</text><text fill="#000000" font-family="sans-serif" font-size="13" lengthAdjust="spacing" textLength="8.271" x="15.078" y="338.441">1</text><text fill="#000000" font-family="sans-serif" font-size="13" lengthAdjust="spacing" textLength="23.0356" x="19.4456" y="417.1183">0..*</text></g><!--link Permission to RolePermission--><g class="link" data-entity-1="ent0004" data-entity-2="ent0006" data-link-type="dependency" data-source-line="59" id="lnk14"><path codeLine="59" d="M257.13,318.89 C246.26,337.11 232.55,357.4 217.39,373.68 C198.72,393.73 180.1475,408.9538 158.4875,424.2838" fill="none" id="Permission-to-RolePermission" style="stroke:#181818;stroke-width:1;"/><polygon fill="#181818" points="153.59,427.75,163.247,425.8157,157.6712,424.8615,158.6254,419.2857,153.59,427.75" style="stroke:#181818;stroke-width:1;"/><text fill="#000000" font-family="sans-serif" font-size="13" lengthAdjust="spacing" textLength="67.4248" x="231.39" y="369.7469">includedIn</text><text fill="#000000" font-family="sans-serif" font-size="13" lengthAdjust="spacing" textLength="8.271" x="245.2158" y="338.5318">1</text><text fill="#000000" font-family="sans-serif" font-size="13" lengthAdjust="spacing" textLength="23.0356" x="138.8321" y="417.1509">0..*</text></g><!--link User to UserPermission--><g class="link" data-entity-1="ent0002" data-entity-2="ent0007" data-link-type="dependency" data-source-line="61" id="lnk15"><path codeLine="61" d="M636.89,327.13 C622.99,343.17 606.91,360 590.39,373.68 C569.29,391.15 549.719,404.3634 526.119,418.2734" fill="none" id="User-to-UserPermission" style="stroke:#181818;stroke-width:1;"/><polygon fill="#181818" points="520.95,421.32,530.7345,420.196,525.2575,418.7812,526.6724,413.3041,520.95,421.32" style="stroke:#181818;stroke-width:1;"/><text fill="#000000" font-family="sans-serif" font-size="13" lengthAdjust="spacing" textLength="60.9692" x="608.39" y="369.7469">overrides</text><text fill="#000000" font-family="sans-serif" font-size="13" lengthAdjust="spacing" textLength="8.271" x="623.4127" y="346.6677">1</text><text fill="#000000" font-family="sans-serif" font-size="13" lengthAdjust="spacing" textLength="23.0356" x="528.3723" y="414.3824">0..*</text></g><!--link Permission to UserPermission--><g class="link" data-entity-1="ent0004" data-entity-2="ent0007" data-link-type="dependency" data-source-line="62" id="lnk16"><path codeLine="62" d="M318.65,318.86 C341.91,349.51 368.3633,384.3601 391.6033,414.9901" fill="none" id="Permission-to-UserPermission" style="stroke:#181818;stroke-width:1;"/><polygon fill="#181818" points="395.23,419.77,392.9766,410.1824,392.2078,415.7868,386.6034,415.0179,395.23,419.77" style="stroke:#181818;stroke-width:1;"/><text fill="#000000" font-family="sans-serif" font-size="13" lengthAdjust="spacing" textLength="87.2993" x="358.39" y="369.7469">overriddenBy</text><text fill="#000000" font-family="sans-serif" font-size="13" lengthAdjust="spacing" textLength="8.271" x="315.0025" y="338.4977">1</text><text fill="#000000" font-family="sans-serif" font-size="13" lengthAdjust="spacing" textLength="23.0356" x="365.5292" y="408.9508">0..*</text></g><!--link User to AuditLog--><g class="link" data-entity-1="ent0002" data-entity-2="ent0009" data-link-type="dependency" data-source-line="64" id="lnk17"><path codeLine="64" d="M759.97,327.08 C796.53,352.81 834.9627,379.8577 871.8927,405.8377" fill="none" id="User-to-AuditLog" style="stroke:#181818;stroke-width:1;"/><polygon fill="#181818" points="876.8,409.29,871.7405,400.84,872.7106,406.4131,867.1375,407.3831,876.8,409.29" style="stroke:#181818;stroke-width:1;"/><text fill="#000000" font-family="sans-serif" font-size="13" lengthAdjust="spacing" textLength="65.6665" x="821.39" y="369.7469">generates</text><text fill="#000000" font-family="sans-serif" font-size="13" lengthAdjust="spacing" textLength="8.271" x="760.7238" y="346.612">1</text><text fill="#000000" font-family="sans-serif" font-size="13" lengthAdjust="spacing" textLength="23.0356" x="846.0089" y="400.8444">0..*</text></g><!--link Incident to User--><g class="link" data-entity-1="ent0018" data-entity-2="ent0002" data-link-type="dependency" data-source-line="104" id="lnk24"><path codeLine="104" d="M889.18,126.04 C868.1,139.01 845.81,153.03 825.39,166.49 C803.12,181.17 784.2467,194.1726 762.5267,209.5526" fill="none" id="Incident-to-User" style="stroke:#181818;stroke-width:1;"/><polygon fill="#181818" points="757.63,213.02,767.2866,211.0834,761.7106,210.1305,762.6634,204.5545,757.63,213.02" style="stroke:#181818;stroke-width:1;"/><text fill="#000000" font-family="sans-serif" font-size="13" lengthAdjust="spacing" textLength="73.7598" x="826.39" y="179.5569">assignedTo</text><text fill="#000000" font-family="sans-serif" font-size="13" lengthAdjust="spacing" textLength="23.0356" x="858.1557" y="126.8414">0..*</text><text fill="#000000" font-family="sans-serif" font-size="13" lengthAdjust="spacing" textLength="8.271" x="758.5718" y="202.2263">1</text></g><!--link Incident to Asset--><g class="link" data-entity-1="ent0018" data-entity-2="ent0019" data-link-type="dependency" data-source-line="105" id="lnk25"><path codeLine="105" d="M1067.85,122.33 C1108.35,143.31 1157.37,166.73 1203.39,183.49 C1255.86,202.6 1272.41,195.86 1325.39,213.49 C1352.12,222.38 1375.535,231.9481 1399.375,242.5181" fill="none" id="Incident-to-Asset" style="stroke:#181818;stroke-width:1;"/><polygon fill="#181818" points="1404.86,244.95,1398.2537,237.6454,1400.2891,242.9234,1395.0111,244.9588,1404.86,244.95" style="stroke:#181818;stroke-width:1;"/><text fill="#000000" font-family="sans-serif" font-size="13" lengthAdjust="spacing" textLength="44.1353" x="1204.39" y="179.5569">affects</text><text fill="#000000" font-family="sans-serif" font-size="13" lengthAdjust="spacing" textLength="23.0356" x="1075.5808" y="122.7009">0..*</text><text fill="#000000" font-family="sans-serif" font-size="13" lengthAdjust="spacing" textLength="24.8066" x="1372.3766" y="237.6404">0..1</text></g><!--link Incident to Problem--><g class="link" data-entity-1="ent0018" data-entity-2="ent0020" data-link-type="dependency" data-source-line="106" id="lnk26"><path codeLine="106" d="M1003.64,136.92 C1012.63,153.74 1024.15,170.72 1038.39,183.49 C1081.06,221.72 1137.265,242.5851 1182.845,254.8151" fill="none" id="Incident-to-Problem" style="stroke:#181818;stroke-width:1;"/><polygon fill="#181818" points="1188.64,256.37,1180.9841,250.1743,1183.8108,255.0742,1178.9109,257.901,1188.64,256.37" style="stroke:#181818;stroke-width:1;"/><text fill="#000000" font-family="sans-serif" font-size="13" lengthAdjust="spacing" textLength="99.9312" x="1039.39" y="179.5569">relatedProblem</text><text fill="#000000" font-family="sans-serif" font-size="13" lengthAdjust="spacing" textLength="23.0356" x="982.0593" y="156.4886">0..*</text><text fill="#000000" font-family="sans-serif" font-size="13" lengthAdjust="spacing" textLength="24.8066" x="1155.9438" y="250.8594">0..1</text></g><!--link Incident to IncidentKnowledgeFeedback--><g class="link" data-entity-1="ent0018" data-entity-2="ent0023" data-link-type="dependency" data-source-line="108" id="lnk27"><path codeLine="108" d="M925.08,136.79 C919.49,146.27 914.66,156.3 911.39,166.49 C904.92,186.68 904.4784,204.3033 906.5384,223.7633" fill="none" id="Incident-to-IncidentKnowledgeFeedback" style="stroke:#181818;stroke-width:1;"/><polygon fill="#181818" points="907.17,229.73,910.2003,220.3589,906.6437,224.7578,902.2448,221.2011,907.17,229.73" style="stroke:#181818;stroke-width:1;"/><text fill="#000000" font-family="sans-serif" font-size="13" lengthAdjust="spacing" textLength="85.5981" x="912.39" y="179.5569">hasFeedback</text><text fill="#000000" font-family="sans-serif" font-size="13" lengthAdjust="spacing" textLength="8.271" x="911.1834" y="156.3452">1</text><text fill="#000000" font-family="sans-serif" font-size="13" lengthAdjust="spacing" textLength="23.0356" x="880.955" y="218.5846">0..*</text></g><!--link Document to Asset--><g class="link" data-entity-1="ent0021" data-entity-2="ent0019" data-link-type="dependency" data-source-line="110" id="lnk28"><path codeLine="110" d="M1255.61,120.45 C1252.77,141.32 1253.53,165.17 1265.39,183.49 C1269.52,189.85 1344.0098,222.0126 1399.1598,245.2226" fill="none" id="Document-to-Asset" style="stroke:#181818;stroke-width:1;"/><polygon fill="#181818" points="1404.69,247.55,1397.9463,240.3721,1400.0815,245.6105,1394.8431,247.7457,1404.69,247.55" style="stroke:#181818;stroke-width:1;"/><text fill="#000000" font-family="sans-serif" font-size="13" lengthAdjust="spacing" textLength="72.3633" x="1266.39" y="179.5569">documents</text><text fill="#000000" font-family="sans-serif" font-size="13" lengthAdjust="spacing" textLength="23.0356" x="1229.1976" y="140.43">0..*</text><text fill="#000000" font-family="sans-serif" font-size="13" lengthAdjust="spacing" textLength="24.8066" x="1372.1837" y="257.6054">0..1</text></g><!--link Relationship to Asset--><g class="link" data-entity-1="ent0022" data-entity-2="ent0019" data-link-type="dependency" data-source-line="112" id="lnk29"><path codeLine="112" d="M1505.85,112.48 C1495.91,143.96 1483.7866,182.3385 1473.2466,215.7185" fill="none" id="Relationship-to-Asset" style="stroke:#181818;stroke-width:1;"/><polygon fill="#181818" points="1471.44,221.44,1477.9643,214.0621,1472.9455,216.672,1470.3356,211.6533,1471.44,221.44" style="stroke:#181818;stroke-width:1;"/><text fill="#000000" font-family="sans-serif" font-size="13" lengthAdjust="spacing" textLength="43.4561" x="1488.39" y="179.5569">source</text><text fill="#000000" font-family="sans-serif" font-size="13" lengthAdjust="spacing" textLength="23.0356" x="1479.0206" y="132.2446">0..*</text><text fill="#000000" font-family="sans-serif" font-size="13" lengthAdjust="spacing" textLength="8.271" x="1465.0122" y="210.6208">1</text></g><!--link Relationship to Asset--><g class="link" data-entity-1="ent0022" data-entity-2="ent0019" data-link-type="dependency" data-source-line="113" id="lnk30"><path codeLine="113" d="M1537.15,112.51 C1544.68,134.09 1549.63,160.9 1540.39,183.49 C1533.38,200.64 1525.3475,211.9722 1512.2975,224.9922" fill="none" id="Relationship-to-Asset-1" style="stroke:#181818;stroke-width:1;"/><polygon fill="#181818" points="1508.05,229.23,1517.2465,225.705,1511.5896,225.6985,1511.5961,220.0417,1508.05,229.23" style="stroke:#181818;stroke-width:1;"/><text fill="#000000" font-family="sans-serif" font-size="13" lengthAdjust="spacing" textLength="39.7554" x="1544.39" y="179.5569">target</text><text fill="#000000" font-family="sans-serif" font-size="13" lengthAdjust="spacing" textLength="23.0356" x="1515.2636" y="131.9774">0..*</text><text fill="#000000" font-family="sans-serif" font-size="13" lengthAdjust="spacing" textLength="8.271" x="1515.8954" y="219.5063">1</text></g><!--link Relationship to Problem--><g class="link" data-entity-1="ent0022" data-entity-2="ent0020" data-link-type="dependency" data-source-line="114" id="lnk31"><path codeLine="114" d="M1458.91,111.52 C1434.06,128.06 1405.05,147.83 1379.39,166.49 C1355.57,183.82 1334.6375,199.9098 1312.4175,217.4698" fill="none" id="Relationship-to-Problem" style="stroke:#181818;stroke-width:1;"/><polygon fill="#181818" points="1307.71,221.19,1317.2513,218.748,1311.6329,218.0898,1312.291,212.4714,1307.71,221.19" style="stroke:#181818;stroke-width:1;"/><text fill="#000000" font-family="sans-serif" font-size="13" lengthAdjust="spacing" textLength="94.25" x="1380.39" y="179.5569">contextualizes</text><text fill="#000000" font-family="sans-serif" font-size="13" lengthAdjust="spacing" textLength="23.0356" x="1428.1479" y="112.124">0..*</text><text fill="#000000" font-family="sans-serif" font-size="13" lengthAdjust="spacing" textLength="24.8066" x="1290.1219" y="210.6877">0..1</text></g><?plantuml-src ZLNRRjim37tNLmXvMBS2BRfN0nkG8XrcRC2A9la0HMOS8RPaYFJQRDY_Zt8INrJdafTOz255yf37k3MsKbwLKXSASKhapQecIBMpS_C7v8CGD_9B-Caq0qk6TlA3d6eDY7kxQ3pb4i7Blq9AaoLokKnd_0YbCaKYvnpKvdok6FZgVFPTuQPdrXuKGJQbHCxuOM5A4F_48UwBAo2EQrK9FVyCK7jJaN6sjRR-p-1BWyZluYXRs5qR91JN9bBp8Ut2UBQtnq7QqTK383UZVVlUEzmNUKUtZdXplzThqDp5plMfiGm3pu68gyEniBI1GMkj8xCsMeMsu9DLgm8O_EYu56MxiDCwC_JJvN6Be-XA3zhBBG5qjTVz6udPHr9bDHo66_a2nJwDZQbGVWmpa7qIpTXDFa_atTtNvdzGOI8t2YFCm_tzxQHZD95SWCajPE68eZ5U1YzSCA8OnKVa9pBtoXAAdksIXx6wg3F8KYjEvZzmSB_1UyDJVEQMKqwys8-xyNjQPha8iE2P4kmauLSLB86KWHQaLfiW5l4ui7eKVQwPPwenQV7pvXocsnldMMgwLyy7ooMvc282NT0BsbKm8XJUyNIN5tC6xbcJMXnWvdHTNb4rIoinB94BUEkjPd--tuKOpVZOcn_MlV9Uvl0D85iflHrPmtLTM9RikNOUGbVft5Ar_1s6eBzRWnqOH_8ZW_TCCBgH83m7FRO-OK4e0hS7W-Wv3SVoTEdDoXzFGhIad4umEq32ClSvY8e_mlUATHMKbC-1JaFZwfl9UADQ5VpfHV4V?></g></svg>