<?plantuml 1.2026.1?><svg xmlns="http://www.w3.org/2000/svg" xmlns:xlink="http://www.w3.org/1999/xlink" contentStyleType="text/css" data-diagram-type="SEQUENCE" height="415px" preserveAspectRatio="none" style="width:445px;height:415px;background:#FFFFFF;" version="1.1" viewBox="0 0 445 415" width="445px" zoomAndPan="magnify"><defs/><g><g class="participant-lifeline" data-entity-uid="part1" data-qualified-name="User" id="part1-lifeline"><g><title>User</title><rect fill="#000000" fill-opacity="0.00000" height="253.0625" width="8" x="19.9551" y="81.2969"/><line style="stroke:#181818;stroke-width:0.5;stroke-dasharray:5,5;" x1="23" x2="23" y1="81.2969" y2="334.3594"/></g></g><g class="participant-lifeline" data-entity-uid="part2" data-qualified-name="Frontend" id="part2-lifeline"><g><title>Frontend</title><rect fill="#000000" fill-opacity="0.00000" height="253.0625" width="8" x="168.1089" y="81.2969"/><line style="stroke:#181818;stroke-width:0.5;stroke-dasharray:5,5;" x1="171.5542" x2="171.5542" y1="81.2969" y2="334.3594"/></g></g><g class="participant-lifeline" data-entity-uid="part3" data-qualified-name="API" id="part3-lifeline"><g><title>API</title><rect fill="#000000" fill-opacity="0.00000" height="253.0625" width="8" x="270.3184" y="81.2969"/><line style="stroke:#181818;stroke-width:0.5;stroke-dasharray:5,5;" x1="274.2441" x2="274.2441" y1="81.2969" y2="334.3594"/></g></g><g class="participant-lifeline" data-entity-uid="part4" data-qualified-name="DB" id="part4-lifeline"><g><title>DB</title><rect fill="#000000" fill-opacity="0.00000" height="253.0625" width="8" x="418.5928" y="81.2969"/><line style="stroke:#181818;stroke-width:0.5;stroke-dasharray:5,5;" x1="422.4004" x2="422.4004" y1="81.2969" y2="334.3594"/></g></g><g class="participant participant-head" data-entity-uid="part1" data-qualified-name="User" id="part1-head"><text fill="#000000" font-family="sans-serif" font-size="14" lengthAdjust="spacing" textLength="31.9102" x="5" y="77.9951">User</text><ellipse cx="23.9551" cy="13.5" fill="#E2E2F0" rx="8" ry="8" style="stroke:#181818;stroke-width:0.5;"/><path d="M23.9551,21.5 L23.9551,48.5 M10.9551,29.5 L36.9551,29.5 M23.9551,48.5 L10.9551,63.5 M23.9551,48.5 L36.9551,63.5" fill="none" style="stroke:#181818;stroke-width:0.5;"/></g><g class="participant participant-tail" data-entity-uid="part1" data-qualified-name="User" id="part1-tail"><text fill="#000000" font-family="sans-serif" font-size="14" lengthAdjust="spacing" textLength="31.9102" x="5" y="346.3545">User</text><ellipse cx="23.9551" cy="358.1563" fill="#E2E2F0" rx="8" ry="8" style="stroke:#181818;stroke-width:0.5;"/><path d="M23.9551,366.1563 L23.9551,393.1563 M10.9551,374.1563 L36.9551,374.1563 M23.9551,393.1563 L10.9551,408.1563 M23.9551,393.1563 L36.9551,408.1563" fill="none" style="stroke:#181818;stroke-width:0.5;"/></g><g class="participant participant-head" data-entity-uid="part2" data-qualified-name="Frontend" id="part2-head"><rect fill="#E2E2F0" height="30.2969" rx="2.5" ry="2.5" style="stroke:#181818;stroke-width:0.5;" width="77.1094" x="133.5542" y="50"/><text fill="#000000" font-family="sans-serif" font-size="14" lengthAdjust="spacing" textLength="63.1094" x="140.5542" y="69.9951">Frontend</text></g><g class="participant participant-tail" data-entity-uid="part2" data-qualified-name="Frontend" id="part2-tail"><rect fill="#E2E2F0" height="30.2969" rx="2.5" ry="2.5" style="stroke:#181818;stroke-width:0.5;" width="77.1094" x="133.5542" y="333.3594"/><text fill="#000000" font-family="sans-serif" font-size="14" lengthAdjust="spacing" textLength="63.1094" x="140.5542" y="353.3545">Frontend</text></g><g class="participant participant-head" data-entity-uid="part3" data-qualified-name="API" id="part3-head"><rect fill="#E2E2F0" height="30.2969" rx="2.5" ry="2.5" style="stroke:#181818;stroke-width:0.5;" width="36.1484" x="256.2441" y="50"/><text fill="#000000" font-family="sans-serif" font-size="14" lengthAdjust="spacing" textLength="22.1484" x="263.2441" y="69.9951">API</text></g><g class="participant participant-tail" data-entity-uid="part3" data-qualified-name="API" id="part3-tail"><rect fill="#E2E2F0" height="30.2969" rx="2.5" ry="2.5" style="stroke:#181818;stroke-width:0.5;" width="36.1484" x="256.2441" y="333.3594"/><text fill="#000000" font-family="sans-serif" font-size="14" lengthAdjust="spacing" textLength="22.1484" x="263.2441" y="353.3545">API</text></g><g class="participant participant-head" data-entity-uid="part4" data-qualified-name="DB" id="part4-head"><rect fill="#E2E2F0" height="30.2969" rx="2.5" ry="2.5" style="stroke:#181818;stroke-width:0.5;" width="34.3848" x="405.4004" y="50"/><text fill="#000000" font-family="sans-serif" font-size="14" lengthAdjust="spacing" textLength="20.3848" x="412.4004" y="69.9951">DB</text></g><g class="participant participant-tail" data-entity-uid="part4" data-qualified-name="DB" id="part4-tail"><rect fill="#E2E2F0" height="30.2969" rx="2.5" ry="2.5" style="stroke:#181818;stroke-width:0.5;" width="34.3848" x="405.4004" y="333.3594"/><text fill="#000000" font-family="sans-serif" font-size="14" lengthAdjust="spacing" textLength="20.3848" x="412.4004" y="353.3545">DB</text></g><g class="message" data-entity-1="part1" data-entity-2="part2" id="msg1"><polygon fill="#181818" points="160.1089,108.4297,170.1089,112.4297,160.1089,116.4297,164.1089,112.4297" style="stroke:#181818;stroke-width:1;"/><line style="stroke:#181818;stroke-width:1;" x1="23.9551" x2="166.1089" y1="112.4297" y2="112.4297"/><text fill="#000000" font-family="sans-serif" font-size="13" lengthAdjust="spacing" textLength="124.1538" x="30.9551" y="107.3638">Enter search query</text></g><g class="message" data-entity-1="part2" data-entity-2="part3" id="msg2"><polygon fill="#181818" points="262.3184,137.5625,272.3184,141.5625,262.3184,145.5625,266.3184,141.5625" style="stroke:#181818;stroke-width:1;"/><line style="stroke:#181818;stroke-width:1;" x1="172.1089" x2="268.3184" y1="141.5625" y2="141.5625"/><text fill="#000000" font-family="sans-serif" font-size="13" lengthAdjust="spacing" textLength="78.2095" x="179.1089" y="136.4966">GET /search</text></g><g class="message" data-entity-1="part3" data-entity-2="part4" id="msg3"><polygon fill="#181818" points="410.5928,166.6953,420.5928,170.6953,410.5928,174.6953,414.5928,170.6953" style="stroke:#181818;stroke-width:1;"/><line style="stroke:#181818;stroke-width:1;" x1="274.3184" x2="416.5928" y1="170.6953" y2="170.6953"/><text fill="#000000" font-family="sans-serif" font-size="13" lengthAdjust="spacing" textLength="108.0498" x="281.3184" y="165.6294">Search incidents</text></g><g class="message" data-entity-1="part3" data-entity-2="part4" id="msg4"><polygon fill="#181818" points="410.5928,195.8281,420.5928,199.8281,410.5928,203.8281,414.5928,199.8281" style="stroke:#181818;stroke-width:1;"/><line style="stroke:#181818;stroke-width:1;" x1="274.3184" x2="416.5928" y1="199.8281" y2="199.8281"/><text fill="#000000" font-family="sans-serif" font-size="13" lengthAdjust="spacing" textLength="90.4604" x="281.3184" y="194.7622">Search assets</text></g><g class="message" data-entity-1="part3" data-entity-2="part4" id="msg5"><polygon fill="#181818" points="410.5928,224.9609,420.5928,228.9609,410.5928,232.9609,414.5928,228.9609" style="stroke:#181818;stroke-width:1;"/><line style="stroke:#181818;stroke-width:1;" x1="274.3184" x2="416.5928" y1="228.9609" y2="228.9609"/><text fill="#000000" font-family="sans-serif" font-size="13" lengthAdjust="spacing" textLength="121.4434" x="281.3184" y="223.895">Search documents</text></g><g class="message" data-entity-1="part3" data-entity-2="part4" id="msg6"><polygon fill="#181818" points="410.5928,254.0938,420.5928,258.0938,410.5928,262.0938,414.5928,258.0938" style="stroke:#181818;stroke-width:1;"/><line style="stroke:#181818;stroke-width:1;" x1="274.3184" x2="416.5928" y1="258.0938" y2="258.0938"/><text fill="#000000" font-family="sans-serif" font-size="13" lengthAdjust="spacing" textLength="109.9287" x="281.3184" y="253.0278">Search problems</text></g><g class="message" data-entity-1="part4" data-entity-2="part3" id="msg7"><polygon fill="#181818" points="285.3184,283.2266,275.3184,287.2266,285.3184,291.2266,281.3184,287.2266" style="stroke:#181818;stroke-width:1;"/><line style="stroke:#181818;stroke-width:1;stroke-dasharray:2,2;" x1="279.3184" x2="421.5928" y1="287.2266" y2="287.2266"/><text fill="#000000" font-family="sans-serif" font-size="13" lengthAdjust="spacing" textLength="124.2744" x="291.3184" y="282.1606">Aggregated results</text></g><g class="message" data-entity-1="part3" data-entity-2="part2" id="msg8"><polygon fill="#181818" points="183.1089,312.3594,173.1089,316.3594,183.1089,320.3594,179.1089,316.3594" style="stroke:#181818;stroke-width:1;"/><line style="stroke:#181818;stroke-width:1;stroke-dasharray:2,2;" x1="177.1089" x2="273.3184" y1="316.3594" y2="316.3594"/><text fill="#000000" font-family="sans-serif" font-size="13" lengthAdjust="spacing" textLength="70.751" x="189.1089" y="311.2935">Results list</text></g><?plantuml-src TOzD2eD034RtEKKk8DsxA2ZQqbtfpm6cCy4Ew8mcST7RTqIK2dOLvdlV2nbZDJ8-XHXwm-gjxqrGF74CIi5jmk9wsRoh4c0oCJkkGevrcen2XkqRXv7u0mkSYca9vdYk7tYOEm1Jb4XL9d2VFH-iTnHKzg0HeNtYeXsxVrhFyTLI9m0fpTPJYgPXQeoIGoOPsqN--LHgtMQ4hHU5Bm00?></g></svg>