<?plantuml 1.2026.1?><svg xmlns="http://www.w3.org/2000/svg" xmlns:xlink="http://www.w3.org/1999/xlink" contentStyleType="text/css" data-diagram-type="SEQUENCE" height="457px" preserveAspectRatio="none" style="width:581px;height:457px;background:#FFFFFF;" version="1.1" viewBox="0 0 581 457" width="581px" zoomAndPan="magnify"><defs/><g><g class="participant-lifeline" data-entity-uid="part1" data-qualified-name="User" id="part1-lifeline"><g><title>User</title><rect fill="#000000" fill-opacity="0.00000" height="295.1953" width="8" x="19.9551" y="81.2969"/><line style="stroke:#181818;stroke-width:0.5;stroke-dasharray:5,5;" x1="23" x2="23" y1="81.2969" y2="376.4922"/></g></g><g class="participant-lifeline" data-entity-uid="part2" data-qualified-name="FE" id="part2-lifeline"><g><title>Frontend .Next.js.</title><rect fill="#000000" fill-opacity="0.00000" height="295.1953" width="8" x="155.02" y="81.2969"/><line style="stroke:#181818;stroke-width:0.5;stroke-dasharray:5,5;" x1="158.5313" x2="158.5313" y1="81.2969" y2="376.4922"/></g></g><g class="participant-lifeline" data-entity-uid="part3" data-qualified-name="API" id="part3-lifeline"><g><title>API .Express.</title><rect fill="#000000" fill-opacity="0.00000" height="295.1953" width="8" x="288.7573" y="81.2969"/><line style="stroke:#181818;stroke-width:0.5;stroke-dasharray:5,5;" x1="292.5088" x2="292.5088" y1="81.2969" y2="376.4922"/></g></g><g class="participant-lifeline" data-entity-uid="part4" data-qualified-name="LDAP" id="part4-lifeline"><g><title>LDAP.AD</title><rect fill="#000000" fill-opacity="0.00000" height="295.1953" width="8" x="428.8687" y="81.2969"/><line style="stroke:#181818;stroke-width:0.5;stroke-dasharray:5,5;" x1="432.0317" x2="432.0317" y1="81.2969" y2="376.4922"/></g></g><g class="participant-lifeline" data-entity-uid="part5" data-qualified-name="DB" id="part5-lifeline"><g><title>PostgreSQL</title><rect fill="#000000" fill-opacity="0.00000" height="295.1953" width="8" x="524.082" y="81.2969"/><line style="stroke:#181818;stroke-width:0.5;stroke-dasharray:5,5;" x1="527.7056" x2="527.7056" y1="81.2969" y2="376.4922"/></g></g><g class="participant participant-head" data-entity-uid="part1" data-qualified-name="User" id="part1-head"><text fill="#000000" font-family="sans-serif" font-size="14" lengthAdjust="spacing" textLength="31.9102" x="5" y="77.9951">User</text><ellipse cx="23.9551" cy="13.5" fill="#E2E2F0" rx="8" ry="8" style="stroke:#181818;stroke-width:0.5;"/><path d="M23.9551,21.5 L23.9551,48.5 M10.9551,29.5 L36.9551,29.5 M23.9551,48.5 L10.9551,63.5 M23.9551,48.5 L36.9551,63.5" fill="none" style="stroke:#181818;stroke-width:0.5;"/></g><g class="participant participant-tail" data-entity-uid="part1" data-qualified-name="User" id="part1-tail"><text fill="#000000" font-family="sans-serif" font-size="14" lengthAdjust="spacing" textLength="31.9102" x="5" y="388.4873">User</text><ellipse cx="23.9551" cy="400.2891" fill="#E2E2F0" rx="8" ry="8" style="stroke:#181818;stroke-width:0.5;"/><path d="M23.9551,408.2891 L23.9551,435.2891 M10.9551,416.2891 L36.9551,416.2891 M23.9551,435.2891 L10.9551,450.2891 M23.9551,435.2891 L36.9551,450.2891" fill="none" style="stroke:#181818;stroke-width:0.5;"/></g><g class="participant participant-head" data-entity-uid="part2" data-qualified-name="FE" id="part2-head"><rect fill="#E2E2F0" height="30.2969" rx="2.5" ry="2.5" style="stroke:#181818;stroke-width:0.5;" width="140.9775" x="88.5313" y="50"/><text fill="#000000" font-family="sans-serif" font-size="14" lengthAdjust="spacing" textLength="126.9775" x="95.5313" y="69.9951">Frontend (Next.js)</text></g><g class="participant participant-tail" data-entity-uid="part2" data-qualified-name="FE" id="part2-tail"><rect fill="#E2E2F0" height="30.2969" rx="2.5" ry="2.5" style="stroke:#181818;stroke-width:0.5;" width="140.9775" x="88.5313" y="375.4922"/><text fill="#000000" font-family="sans-serif" font-size="14" lengthAdjust="spacing" textLength="126.9775" x="95.5313" y="395.4873">Frontend (Next.js)</text></g><g class="participant participant-head" data-entity-uid="part3" data-qualified-name="API" id="part3-head"><rect fill="#E2E2F0" height="30.2969" rx="2.5" ry="2.5" style="stroke:#181818;stroke-width:0.5;" width="106.4971" x="239.5088" y="50"/><text fill="#000000" font-family="sans-serif" font-size="14" lengthAdjust="spacing" textLength="92.4971" x="246.5088" y="69.9951">API (Express)</text></g><g class="participant participant-tail" data-entity-uid="part3" data-qualified-name="API" id="part3-tail"><rect fill="#E2E2F0" height="30.2969" rx="2.5" ry="2.5" style="stroke:#181818;stroke-width:0.5;" width="106.4971" x="239.5088" y="375.4922"/><text fill="#000000" font-family="sans-serif" font-size="14" lengthAdjust="spacing" textLength="92.4971" x="246.5088" y="395.4873">API (Express)</text></g><g class="participant participant-head" data-entity-uid="part4" data-qualified-name="LDAP" id="part4-head"><rect fill="#E2E2F0" height="30.2969" rx="2.5" ry="2.5" style="stroke:#181818;stroke-width:0.5;" width="75.6738" x="395.0317" y="50"/><text fill="#000000" font-family="sans-serif" font-size="14" lengthAdjust="spacing" textLength="61.6738" x="402.0317" y="69.9951">LDAP/AD</text></g><g class="participant participant-tail" data-entity-uid="part4" data-qualified-name="LDAP" id="part4-tail"><rect fill="#E2E2F0" height="30.2969" rx="2.5" ry="2.5" style="stroke:#181818;stroke-width:0.5;" width="75.6738" x="395.0317" y="375.4922"/><text fill="#000000" font-family="sans-serif" font-size="14" lengthAdjust="spacing" textLength="61.6738" x="402.0317" y="395.4873">LDAP/AD</text></g><g class="participant participant-head" data-entity-uid="part5" data-qualified-name="DB" id="part5-head"><rect fill="#E2E2F0" height="30.2969" rx="2.5" ry="2.5" style="stroke:#181818;stroke-width:0.5;" width="94.7529" x="480.7056" y="50"/><text fill="#000000" font-family="sans-serif" font-size="14" lengthAdjust="spacing" textLength="80.7529" x="487.7056" y="69.9951">PostgreSQL</text></g><g class="participant participant-tail" data-entity-uid="part5" data-qualified-name="DB" id="part5-tail"><rect fill="#E2E2F0" height="30.2969" rx="2.5" ry="2.5" style="stroke:#181818;stroke-width:0.5;" width="94.7529" x="480.7056" y="375.4922"/><text fill="#000000" font-family="sans-serif" font-size="14" lengthAdjust="spacing" textLength="80.7529" x="487.7056" y="395.4873">PostgreSQL</text></g><g class="message" data-entity-1="part1" data-entity-2="part2" id="msg1"><polygon fill="#181818" points="147.02,108.4297,157.02,112.4297,147.02,116.4297,151.02,112.4297" style="stroke:#181818;stroke-width:1;"/><line style="stroke:#181818;stroke-width:1;" x1="23.9551" x2="153.02" y1="112.4297" y2="112.4297"/><text fill="#000000" font-family="sans-serif" font-size="13" lengthAdjust="spacing" textLength="111.0649" x="30.9551" y="107.3638">Enter credentials</text></g><g class="message" data-entity-1="part2" data-entity-2="part3" id="msg2"><polygon fill="#181818" points="280.7573,137.5625,290.7573,141.5625,280.7573,145.5625,284.7573,141.5625" style="stroke:#181818;stroke-width:1;"/><line style="stroke:#181818;stroke-width:1;" x1="159.02" x2="286.7573" y1="141.5625" y2="141.5625"/><text fill="#000000" font-family="sans-serif" font-size="13" lengthAdjust="spacing" textLength="108.3672" x="166.02" y="136.4966">POST /auth/login</text></g><g class="message" data-entity-1="part3" data-entity-2="part4" id="msg3"><polygon fill="#181818" points="420.8687,166.6953,430.8687,170.6953,420.8687,174.6953,424.8687,170.6953" style="stroke:#181818;stroke-width:1;"/><line style="stroke:#181818;stroke-width:1;" x1="292.7573" x2="426.8687" y1="170.6953" y2="170.6953"/><text fill="#000000" font-family="sans-serif" font-size="13" lengthAdjust="spacing" textLength="116.1113" x="299.7573" y="165.6294">Authenticate user</text></g><g class="message" data-entity-1="part4" data-entity-2="part3" id="msg4"><polygon fill="#181818" points="303.7573,195.8281,293.7573,199.8281,303.7573,203.8281,299.7573,199.8281" style="stroke:#181818;stroke-width:1;"/><line style="stroke:#181818;stroke-width:1;stroke-dasharray:2,2;" x1="297.7573" x2="431.8687" y1="199.8281" y2="199.8281"/><text fill="#000000" font-family="sans-serif" font-size="13" lengthAdjust="spacing" textLength="58.8491" x="309.7573" y="194.7622">OK / FAIL</text></g><g class="message" data-entity-1="part3" data-entity-2="part5" id="msg5"><polygon fill="#181818" points="516.082,224.9609,526.082,228.9609,516.082,232.9609,520.082,228.9609" style="stroke:#181818;stroke-width:1;"/><line style="stroke:#181818;stroke-width:1;" x1="292.7573" x2="522.082" y1="228.9609" y2="228.9609"/><text fill="#000000" font-family="sans-serif" font-size="13" lengthAdjust="spacing" textLength="168.1685" x="299.7573" y="223.895">Fetch roles &amp; permissions</text></g><g class="message" data-entity-1="part5" data-entity-2="part3" id="msg6"><polygon fill="#181818" points="303.7573,254.0938,293.7573,258.0938,303.7573,262.0938,299.7573,258.0938" style="stroke:#181818;stroke-width:1;"/><line style="stroke:#181818;stroke-width:1;stroke-dasharray:2,2;" x1="297.7573" x2="527.082" y1="258.0938" y2="258.0938"/><text fill="#000000" font-family="sans-serif" font-size="13" lengthAdjust="spacing" textLength="63.0449" x="309.7573" y="253.0278">User data</text></g><g class="message" data-entity-1="part3" data-entity-2="part3" id="msg7"><line style="stroke:#181818;stroke-width:1;" x1="292.7573" x2="334.7573" y1="287.2266" y2="287.2266"/><line style="stroke:#181818;stroke-width:1;" x1="334.7573" x2="334.7573" y1="287.2266" y2="300.2266"/><line style="stroke:#181818;stroke-width:1;" x1="293.7573" x2="334.7573" y1="300.2266" y2="300.2266"/><polygon fill="#181818" points="303.7573,296.2266,293.7573,300.2266,303.7573,304.2266,299.7573,300.2266" style="stroke:#181818;stroke-width:1;"/><text fill="#000000" font-family="sans-serif" font-size="13" lengthAdjust="spacing" textLength="89.4766" x="299.7573" y="282.1606">Generate JWT</text></g><g class="message" data-entity-1="part3" data-entity-2="part2" id="msg8"><polygon fill="#181818" points="170.02,325.3594,160.02,329.3594,170.02,333.3594,166.02,329.3594" style="stroke:#181818;stroke-width:1;"/><line style="stroke:#181818;stroke-width:1;stroke-dasharray:2,2;" x1="164.02" x2="291.7573" y1="329.3594" y2="329.3594"/><text fill="#000000" font-family="sans-serif" font-size="13" lengthAdjust="spacing" textLength="68.4214" x="176.02" y="324.2935">JWT Token</text></g><g class="message" data-entity-1="part2" data-entity-2="part1" id="msg9"><polygon fill="#181818" points="34.9551,354.4922,24.9551,358.4922,34.9551,362.4922,30.9551,358.4922" style="stroke:#181818;stroke-width:1;"/><line style="stroke:#181818;stroke-width:1;stroke-dasharray:2,2;" x1="28.9551" x2="158.02" y1="358.4922" y2="358.4922"/><text fill="#000000" font-family="sans-serif" font-size="13" lengthAdjust="spacing" textLength="63.9336" x="40.9551" y="353.4263">Logged in</text></g><?plantuml-src LO_1JiCm44Jl_efL3wWSIkuv8BbAWWeH3MeGPyjPfOPWH-kjrCzdRKfGRjQy6S-EiHm8tYEIcWsnisusdc7JKF2CVe3jArxvuJFURy14QEgrJNS7sDRNcJ3U7AAiBMsbkq9N6QRtcdOXyaXuUckpeTehbOw1tQDqGGcrN45W2GVqxCmKbSW2Kt49tV7KGs4kV2wcC3glLD85foBXMaZAMSC8bpGoWztomV452cZqeLsIrLxa1jcUWSA44UvWHlfsCRhWenBydywN3eRDalxLdz0ZfShdZ_w6_lQ80dtuGfztY9h_AA4DuuW3o8GV?></g></svg>