<?plantuml 1.2026.1?><svg xmlns="http://www.w3.org/2000/svg" xmlns:xlink="http://www.w3.org/1999/xlink" contentStyleType="text/css" data-diagram-type="SEQUENCE" height="544px" preserveAspectRatio="none" style="width:649px;height:544px;background:#FFFFFF;" version="1.1" viewBox="0 0 649 544" width="649px" zoomAndPan="magnify"><defs/><g><g class="participant-lifeline" data-entity-uid="part1" data-qualified-name="Operator" id="part1-lifeline"><g><title>Operator</title><rect fill="#000000" fill-opacity="0.00000" height="382.5938" width="8" x="35.3325" y="81.2969"/><line style="stroke:#181818;stroke-width:0.5;stroke-dasharray:5,5;" x1="39" x2="39" y1="81.2969" y2="463.8906"/></g></g><g class="participant-lifeline" data-entity-uid="part2" data-qualified-name="Frontend" id="part2-lifeline"><g><title>Frontend</title><rect fill="#000000" fill-opacity="0.00000" height="382.5938" width="8" x="159.3652" y="81.2969"/><line style="stroke:#181818;stroke-width:0.5;stroke-dasharray:5,5;" x1="162.8105" x2="162.8105" y1="81.2969" y2="463.8906"/></g></g><g class="participant-lifeline" data-entity-uid="part3" data-qualified-name="API" id="part3-lifeline"><g><title>API</title><rect fill="#000000" fill-opacity="0.00000" height="382.5938" width="8" x="314.9966" y="81.2969"/><line style="stroke:#181818;stroke-width:0.5;stroke-dasharray:5,5;" x1="318.9224" x2="318.9224" y1="81.2969" y2="463.8906"/></g></g><g class="participant-lifeline" data-entity-uid="part4" data-qualified-name="DB" id="part4-lifeline"><g><title>DB</title><rect fill="#000000" fill-opacity="0.00000" height="382.5938" width="8" x="504.5728" y="81.2969"/><line style="stroke:#181818;stroke-width:0.5;stroke-dasharray:5,5;" x1="508.3804" x2="508.3804" y1="81.2969" y2="463.8906"/></g></g><g class="participant-lifeline" data-entity-uid="part5" data-qualified-name="AUDIT" id="part5-lifeline"><g><title>Audit System</title><rect fill="#000000" fill-opacity="0.00000" height="382.5938" width="8" x="585.4512" y="81.2969"/><line style="stroke:#181818;stroke-width:0.5;stroke-dasharray:5,5;" x1="588.7651" x2="588.7651" y1="81.2969" y2="463.8906"/></g></g><g class="participant participant-head" data-entity-uid="part1" data-qualified-name="Operator" id="part1-head"><text fill="#000000" font-family="sans-serif" font-size="14" lengthAdjust="spacing" textLength="62.665" x="5" y="77.9951">Operator</text><ellipse cx="39.3325" cy="13.5" fill="#E2E2F0" rx="8" ry="8" style="stroke:#181818;stroke-width:0.5;"/><path d="M39.3325,21.5 L39.3325,48.5 M26.3325,29.5 L52.3325,29.5 M39.3325,48.5 L26.3325,63.5 M39.3325,48.5 L52.3325,63.5" fill="none" style="stroke:#181818;stroke-width:0.5;"/></g><g class="participant participant-tail" data-entity-uid="part1" data-qualified-name="Operator" id="part1-tail"><text fill="#000000" font-family="sans-serif" font-size="14" lengthAdjust="spacing" textLength="62.665" x="5" y="475.8857">Operator</text><ellipse cx="39.3325" cy="487.6875" fill="#E2E2F0" rx="8" ry="8" style="stroke:#181818;stroke-width:0.5;"/><path d="M39.3325,495.6875 L39.3325,522.6875 M26.3325,503.6875 L52.3325,503.6875 M39.3325,522.6875 L26.3325,537.6875 M39.3325,522.6875 L52.3325,537.6875" fill="none" style="stroke:#181818;stroke-width:0.5;"/></g><g class="participant participant-head" data-entity-uid="part2" data-qualified-name="Frontend" id="part2-head"><rect fill="#E2E2F0" height="30.2969" rx="2.5" ry="2.5" style="stroke:#181818;stroke-width:0.5;" width="77.1094" x="124.8105" y="50"/><text fill="#000000" font-family="sans-serif" font-size="14" lengthAdjust="spacing" textLength="63.1094" x="131.8105" y="69.9951">Frontend</text></g><g class="participant participant-tail" data-entity-uid="part2" data-qualified-name="Frontend" id="part2-tail"><rect fill="#E2E2F0" height="30.2969" rx="2.5" ry="2.5" style="stroke:#181818;stroke-width:0.5;" width="77.1094" x="124.8105" y="462.8906"/><text fill="#000000" font-family="sans-serif" font-size="14" lengthAdjust="spacing" textLength="63.1094" x="131.8105" y="482.8857">Frontend</text></g><g class="participant participant-head" data-entity-uid="part3" data-qualified-name="API" id="part3-head"><rect fill="#E2E2F0" height="30.2969" rx="2.5" ry="2.5" style="stroke:#181818;stroke-width:0.5;" width="36.1484" x="300.9224" y="50"/><text fill="#000000" font-family="sans-serif" font-size="14" lengthAdjust="spacing" textLength="22.1484" x="307.9224" y="69.9951">API</text></g><g class="participant participant-tail" data-entity-uid="part3" data-qualified-name="API" id="part3-tail"><rect fill="#E2E2F0" height="30.2969" rx="2.5" ry="2.5" style="stroke:#181818;stroke-width:0.5;" width="36.1484" x="300.9224" y="462.8906"/><text fill="#000000" font-family="sans-serif" font-size="14" lengthAdjust="spacing" textLength="22.1484" x="307.9224" y="482.8857">API</text></g><g class="participant participant-head" data-entity-uid="part4" data-qualified-name="DB" id="part4-head"><rect fill="#E2E2F0" height="30.2969" rx="2.5" ry="2.5" style="stroke:#181818;stroke-width:0.5;" width="34.3848" x="491.3804" y="50"/><text fill="#000000" font-family="sans-serif" font-size="14" lengthAdjust="spacing" textLength="20.3848" x="498.3804" y="69.9951">DB</text></g><g class="participant participant-tail" data-entity-uid="part4" data-qualified-name="DB" id="part4-tail"><rect fill="#E2E2F0" height="30.2969" rx="2.5" ry="2.5" style="stroke:#181818;stroke-width:0.5;" width="34.3848" x="491.3804" y="462.8906"/><text fill="#000000" font-family="sans-serif" font-size="14" lengthAdjust="spacing" textLength="20.3848" x="498.3804" y="482.8857">DB</text></g><g class="participant participant-head" data-entity-uid="part5" data-qualified-name="AUDIT" id="part5-head"><rect fill="#E2E2F0" height="30.2969" rx="2.5" ry="2.5" style="stroke:#181818;stroke-width:0.5;" width="107.3721" x="535.7651" y="50"/><text fill="#000000" font-family="sans-serif" font-size="14" lengthAdjust="spacing" textLength="93.3721" x="542.7651" y="69.9951">Audit System</text></g><g class="participant participant-tail" data-entity-uid="part5" data-qualified-name="AUDIT" id="part5-tail"><rect fill="#E2E2F0" height="30.2969" rx="2.5" ry="2.5" style="stroke:#181818;stroke-width:0.5;" width="107.3721" x="535.7651" y="462.8906"/><text fill="#000000" font-family="sans-serif" font-size="14" lengthAdjust="spacing" textLength="93.3721" x="542.7651" y="482.8857">Audit System</text></g><g class="message" data-entity-1="part1" data-entity-2="part2" id="msg1"><polygon fill="#181818" points="151.3652,108.4297,161.3652,112.4297,151.3652,116.4297,155.3652,112.4297" style="stroke:#181818;stroke-width:1;"/><line style="stroke:#181818;stroke-width:1;" x1="39.3325" x2="157.3652" y1="112.4297" y2="112.4297"/><text fill="#000000" font-family="sans-serif" font-size="13" lengthAdjust="spacing" textLength="100.0327" x="46.3325" y="107.3638">Create Incident</text></g><g class="message" data-entity-1="part2" data-entity-2="part3" id="msg2"><polygon fill="#181818" points="306.9966,137.5625,316.9966,141.5625,306.9966,145.5625,310.9966,141.5625" style="stroke:#181818;stroke-width:1;"/><line style="stroke:#181818;stroke-width:1;" x1="163.3652" x2="312.9966" y1="141.5625" y2="141.5625"/><text fill="#000000" font-family="sans-serif" font-size="13" lengthAdjust="spacing" textLength="101.7466" x="170.3652" y="136.4966">POST /incidents</text></g><g class="message" data-entity-1="part3" data-entity-2="part4" id="msg3"><polygon fill="#181818" points="496.5728,166.6953,506.5728,170.6953,496.5728,174.6953,500.5728,170.6953" style="stroke:#181818;stroke-width:1;"/><line style="stroke:#181818;stroke-width:1;" x1="318.9966" x2="502.5728" y1="170.6953" y2="170.6953"/><text fill="#000000" font-family="sans-serif" font-size="13" lengthAdjust="spacing" textLength="88.4609" x="325.9966" y="165.6294">Save Incident</text></g><g class="message" data-entity-1="part3" data-entity-2="part5" id="msg4"><polygon fill="#181818" points="577.4512,195.8281,587.4512,199.8281,577.4512,203.8281,581.4512,199.8281" style="stroke:#181818;stroke-width:1;"/><line style="stroke:#181818;stroke-width:1;" x1="318.9966" x2="583.4512" y1="199.8281" y2="199.8281"/><text fill="#000000" font-family="sans-serif" font-size="13" lengthAdjust="spacing" textLength="122.0972" x="325.9966" y="194.7622">Log creation event</text></g><g class="message" data-entity-1="part4" data-entity-2="part3" id="msg5"><polygon fill="#181818" points="329.9966,224.9609,319.9966,228.9609,329.9966,232.9609,325.9966,228.9609" style="stroke:#181818;stroke-width:1;"/><line style="stroke:#181818;stroke-width:1;stroke-dasharray:2,2;" x1="323.9966" x2="507.5728" y1="228.9609" y2="228.9609"/><text fill="#000000" font-family="sans-serif" font-size="13" lengthAdjust="spacing" textLength="18.7573" x="335.9966" y="223.895">OK</text></g><g class="message" data-entity-1="part3" data-entity-2="part2" id="msg6"><polygon fill="#181818" points="174.3652,254.0938,164.3652,258.0938,174.3652,262.0938,170.3652,258.0938" style="stroke:#181818;stroke-width:1;"/><line style="stroke:#181818;stroke-width:1;stroke-dasharray:2,2;" x1="168.3652" x2="317.9966" y1="258.0938" y2="258.0938"/><text fill="#000000" font-family="sans-serif" font-size="13" lengthAdjust="spacing" textLength="106.355" x="180.3652" y="253.0278">Incident created</text></g><g class="message" data-entity-1="part1" data-entity-2="part2" id="msg7"><polygon fill="#181818" points="151.3652,283.2266,161.3652,287.2266,151.3652,291.2266,155.3652,287.2266" style="stroke:#181818;stroke-width:1;"/><line style="stroke:#181818;stroke-width:1;" x1="39.3325" x2="157.3652" y1="287.2266" y2="287.2266"/><text fill="#000000" font-family="sans-serif" font-size="13" lengthAdjust="spacing" textLength="91.1587" x="46.3325" y="282.1606">Update status</text></g><g class="message" data-entity-1="part2" data-entity-2="part3" id="msg8"><polygon fill="#181818" points="306.9966,312.3594,316.9966,316.3594,306.9966,320.3594,310.9966,316.3594" style="stroke:#181818;stroke-width:1;"/><line style="stroke:#181818;stroke-width:1;" x1="163.3652" x2="312.9966" y1="316.3594" y2="316.3594"/><text fill="#000000" font-family="sans-serif" font-size="13" lengthAdjust="spacing" textLength="131.6313" x="170.3652" y="311.2935">PATCH /incidents/:id</text></g><g class="message" data-entity-1="part3" data-entity-2="part3" id="msg9"><line style="stroke:#181818;stroke-width:1;" x1="318.9966" x2="360.9966" y1="345.4922" y2="345.4922"/><line style="stroke:#181818;stroke-width:1;" x1="360.9966" x2="360.9966" y1="345.4922" y2="358.4922"/><line style="stroke:#181818;stroke-width:1;" x1="319.9966" x2="360.9966" y1="358.4922" y2="358.4922"/><polygon fill="#181818" points="329.9966,354.4922,319.9966,358.4922,329.9966,362.4922,325.9966,358.4922" style="stroke:#181818;stroke-width:1;"/><text fill="#000000" font-family="sans-serif" font-size="13" lengthAdjust="spacing" textLength="175.5762" x="325.9966" y="340.4263">Validate RBAC permissions</text></g><g class="message" data-entity-1="part3" data-entity-2="part4" id="msg10"><polygon fill="#181818" points="496.5728,383.625,506.5728,387.625,496.5728,391.625,500.5728,387.625" style="stroke:#181818;stroke-width:1;"/><line style="stroke:#181818;stroke-width:1;" x1="318.9966" x2="502.5728" y1="387.625" y2="387.625"/><text fill="#000000" font-family="sans-serif" font-size="13" lengthAdjust="spacing" textLength="91.1587" x="325.9966" y="382.5591">Update status</text></g><g class="message" data-entity-1="part3" data-entity-2="part5" id="msg11"><polygon fill="#181818" points="577.4512,412.7578,587.4512,416.7578,577.4512,420.7578,581.4512,416.7578" style="stroke:#181818;stroke-width:1;"/><line style="stroke:#181818;stroke-width:1;" x1="318.9966" x2="583.4512" y1="416.7578" y2="416.7578"/><text fill="#000000" font-family="sans-serif" font-size="13" lengthAdjust="spacing" textLength="73.3853" x="325.9966" y="411.6919">Log update</text></g><g class="message" data-entity-1="part3" data-entity-2="part2" id="msg12"><polygon fill="#181818" points="174.3652,441.8906,164.3652,445.8906,174.3652,449.8906,170.3652,445.8906" style="stroke:#181818;stroke-width:1;"/><line style="stroke:#181818;stroke-width:1;stroke-dasharray:2,2;" x1="168.3652" x2="317.9966" y1="445.8906" y2="445.8906"/><text fill="#000000" font-family="sans-serif" font-size="13" lengthAdjust="spacing" textLength="52.3301" x="180.3652" y="440.8247">Success</text></g><?plantuml-src TK_DQiCm3BxhAKJlfVSU1ax2MDWWPKbtDxOOXjK9bbBesrT9sb13TfFq_SewwHCs0oMh0mmsIN1Xi57mFVLHAFhiQ4vrjbT5jkxCw8DWUsEXomujepbNTGVmJC3zssgCHomJMI6iemkUei0AAKsZb75gsWuFuK5WWEciQ5KesDhhY_Y1p8aAVlM_w2R_q4UawyG0LUrNw-PpaUILddQBblo_tS-3dxgpM1bvgxdfoe-NweTZy6lzXV9Z_y9iybsO4ZNc4fYrBcTVva4RNuup0RQ-QKVdY1dk?></g></svg>