<svg xmlns="http://www.w3.org/2000/svg" xmlns:xlink="http://www.w3.org/1999/xlink" contentStyleType="text/css" data-diagram-type="CLASS" height="448px" preserveAspectRatio="none" style="width:903px;height:448px;background:#FFFFFF;" version="1.1" viewBox="0 0 903 448" width="903px" zoomAndPan="magnify"><?plantuml 1.2026.4beta2?><defs/><g><!--class User--><g class="entity" data-qualified-name="User" data-source-line="4" id="ent0002"><rect fill="#F1F1F1" height="96.8906" rx="2.5" ry="2.5" style="stroke:#181818;stroke-width:0.5;" width="113.9854" x="507.53" y="163.89"/><ellipse cx="545.0638" cy="179.89" fill="#ADD1B2" rx="11" ry="11" style="stroke:#181818;stroke-width:1;"/><path d="M548.0326,185.5306 Q547.4545,185.8275 546.8138,185.9681 Q546.1732,186.1244 545.4701,186.1244 Q542.9701,186.1244 541.642,184.4838 Q540.3295,182.8275 540.3295,179.7025 Q540.3295,176.5775 541.642,174.9213 Q542.9701,173.265 545.4701,173.265 Q546.1732,173.265 546.8138,173.4213 Q547.4701,173.5775 548.0326,173.8744 L548.0326,176.5931 Q547.4076,176.015 546.8138,175.7494 Q546.2201,175.4681 545.5951,175.4681 Q544.2513,175.4681 543.5638,176.5463 Q542.8763,177.6088 542.8763,179.7025 Q542.8763,181.7963 543.5638,182.8744 Q544.2513,183.9369 545.5951,183.9369 Q546.2201,183.9369 546.8138,183.6713 Q547.4076,183.39 548.0326,182.8119 L548.0326,185.5306 Z " fill="#000000"/><text fill="#000000" font-family="sans-serif" font-size="14" lengthAdjust="spacing" textLength="31.9102" x="564.0714" y="184.7367">User</text><line style="stroke:#181818;stroke-width:0.5;" x1="508.53" x2="620.5154" y1="195.89" y2="195.89"/><text fill="#000000" font-family="sans-serif" font-size="14" lengthAdjust="spacing" textLength="12.7764" x="513.53" y="212.8851">id</text><text fill="#000000" font-family="sans-serif" font-size="14" lengthAdjust="spacing" textLength="38.6094" x="513.53" y="229.182">email</text><text fill="#000000" font-family="sans-serif" font-size="14" lengthAdjust="spacing" textLength="101.9854" x="513.53" y="245.4789">passwordHash</text><line style="stroke:#181818;stroke-width:0.5;" x1="508.53" x2="620.5154" y1="252.7806" y2="252.7806"/></g><!--class Role--><g class="entity" data-qualified-name="Role" data-source-line="10" id="ent0003"><rect fill="#F1F1F1" height="80.5938" rx="2.5" ry="2.5" style="stroke:#181818;stroke-width:0.5;" width="62.7959" x="36.13" y="172.04"/><ellipse cx="51.13" cy="188.04" fill="#ADD1B2" rx="11" ry="11" style="stroke:#181818;stroke-width:1;"/><path d="M54.0987,193.6806 Q53.5206,193.9775 52.88,194.1181 Q52.2394,194.2744 51.5362,194.2744 Q49.0362,194.2744 47.7081,192.6338 Q46.3956,190.9775 46.3956,187.8525 Q46.3956,184.7275 47.7081,183.0713 Q49.0362,181.415 51.5362,181.415 Q52.2394,181.415 52.88,181.5713 Q53.5362,181.7275 54.0987,182.0244 L54.0987,184.7431 Q53.4737,184.165 52.88,183.8994 Q52.2862,183.6181 51.6612,183.6181 Q50.3175,183.6181 49.63,184.6963 Q48.9425,185.7588 48.9425,187.8525 Q48.9425,189.9463 49.63,191.0244 Q50.3175,192.0869 51.6612,192.0869 Q52.2862,192.0869 52.88,191.8213 Q53.4737,191.54 54.0987,190.9619 L54.0987,193.6806 Z " fill="#000000"/><text fill="#000000" font-family="sans-serif" font-size="14" lengthAdjust="spacing" textLength="30.7959" x="65.13" y="192.8867">Role</text><line style="stroke:#181818;stroke-width:0.5;" x1="37.13" x2="97.9259" y1="204.04" y2="204.04"/><text fill="#000000" font-family="sans-serif" font-size="14" lengthAdjust="spacing" textLength="12.7764" x="42.13" y="221.0351">id</text><text fill="#000000" font-family="sans-serif" font-size="14" lengthAdjust="spacing" textLength="39.7031" x="42.13" y="237.332">name</text><line style="stroke:#181818;stroke-width:0.5;" x1="37.13" x2="97.9259" y1="244.6338" y2="244.6338"/></g><!--class Permission--><g class="entity" data-qualified-name="Permission" data-source-line="15" id="ent0004"><rect fill="#F1F1F1" height="80.5938" rx="2.5" ry="2.5" style="stroke:#181818;stroke-width:0.5;" width="108.2549" x="134.4" y="172.04"/><ellipse cx="149.4" cy="188.04" fill="#ADD1B2" rx="11" ry="11" style="stroke:#181818;stroke-width:1;"/><path d="M152.3688,193.6806 Q151.7906,193.9775 151.15,194.1181 Q150.5094,194.2744 149.8063,194.2744 Q147.3063,194.2744 145.9781,192.6338 Q144.6656,190.9775 144.6656,187.8525 Q144.6656,184.7275 145.9781,183.0713 Q147.3063,181.415 149.8063,181.415 Q150.5094,181.415 151.15,181.5713 Q151.8063,181.7275 152.3688,182.0244 L152.3688,184.7431 Q151.7438,184.165 151.15,183.8994 Q150.5563,183.6181 149.9313,183.6181 Q148.5875,183.6181 147.9,184.6963 Q147.2125,185.7588 147.2125,187.8525 Q147.2125,189.9463 147.9,191.0244 Q148.5875,192.0869 149.9313,192.0869 Q150.5563,192.0869 151.15,191.8213 Q151.7438,191.54 152.3688,190.9619 L152.3688,193.6806 Z " fill="#000000"/><text fill="#000000" font-family="sans-serif" font-size="14" lengthAdjust="spacing" textLength="76.2549" x="163.4" y="192.8867">Permission</text><line style="stroke:#181818;stroke-width:0.5;" x1="135.4" x2="241.6549" y1="204.04" y2="204.04"/><text fill="#000000" font-family="sans-serif" font-size="14" lengthAdjust="spacing" textLength="12.7764" x="140.4" y="221.0351">id</text><text fill="#000000" font-family="sans-serif" font-size="14" lengthAdjust="spacing" textLength="25.0059" x="140.4" y="237.332">key</text><line style="stroke:#181818;stroke-width:0.5;" x1="135.4" x2="241.6549" y1="244.6338" y2="244.6338"/></g><!--class UserRole--><g class="entity" data-qualified-name="UserRole" data-source-line="20" id="ent0005"><rect fill="#F1F1F1" height="48" rx="2.5" ry="2.5" style="stroke:#181818;stroke-width:0.5;" width="94.7061" x="186.17" y="353.38"/><ellipse cx="201.17" cy="369.38" fill="#ADD1B2" rx="11" ry="11" style="stroke:#181818;stroke-width:1;"/><path d="M204.1388,375.0206 Q203.5606,375.3175 202.92,375.4581 Q202.2794,375.6144 201.5763,375.6144 Q199.0763,375.6144 197.7481,373.9738 Q196.4356,372.3175 196.4356,369.1925 Q196.4356,366.0675 197.7481,364.4113 Q199.0763,362.755 201.5763,362.755 Q202.2794,362.755 202.92,362.9113 Q203.5763,363.0675 204.1388,363.3644 L204.1388,366.0831 Q203.5138,365.505 202.92,365.2394 Q202.3263,364.9581 201.7013,364.9581 Q200.3575,364.9581 199.67,366.0363 Q198.9825,367.0988 198.9825,369.1925 Q198.9825,371.2863 199.67,372.3644 Q200.3575,373.4269 201.7013,373.4269 Q202.3263,373.4269 202.92,373.1613 Q203.5138,372.88 204.1388,372.3019 L204.1388,375.0206 Z " fill="#000000"/><text fill="#000000" font-family="sans-serif" font-size="14" lengthAdjust="spacing" textLength="62.7061" x="215.17" y="374.2267">UserRole</text><line style="stroke:#181818;stroke-width:0.5;" x1="187.17" x2="279.8761" y1="385.38" y2="385.38"/><line style="stroke:#181818;stroke-width:0.5;" x1="187.17" x2="279.8761" y1="393.38" y2="393.38"/></g><!--class RolePermission--><g class="entity" data-qualified-name="RolePermission" data-source-line="21" id="ent0006"><rect fill="#F1F1F1" height="48" rx="2.5" ry="2.5" style="stroke:#181818;stroke-width:0.5;" width="139.0508" x="7" y="353.38"/><ellipse cx="22" cy="369.38" fill="#ADD1B2" rx="11" ry="11" style="stroke:#181818;stroke-width:1;"/><path d="M24.9688,375.0206 Q24.3906,375.3175 23.75,375.4581 Q23.1094,375.6144 22.4063,375.6144 Q19.9063,375.6144 18.5781,373.9738 Q17.2656,372.3175 17.2656,369.1925 Q17.2656,366.0675 18.5781,364.4113 Q19.9063,362.755 22.4063,362.755 Q23.1094,362.755 23.75,362.9113 Q24.4063,363.0675 24.9688,363.3644 L24.9688,366.0831 Q24.3438,365.505 23.75,365.2394 Q23.1563,364.9581 22.5313,364.9581 Q21.1875,364.9581 20.5,366.0363 Q19.8125,367.0988 19.8125,369.1925 Q19.8125,371.2863 20.5,372.3644 Q21.1875,373.4269 22.5313,373.4269 Q23.1563,373.4269 23.75,373.1613 Q24.3438,372.88 24.9688,372.3019 L24.9688,375.0206 Z " fill="#000000"/><text fill="#000000" font-family="sans-serif" font-size="14" lengthAdjust="spacing" textLength="107.0508" x="36" y="374.2267">RolePermission</text><line style="stroke:#181818;stroke-width:0.5;" x1="8" x2="145.0508" y1="385.38" y2="385.38"/><line style="stroke:#181818;stroke-width:0.5;" x1="8" x2="145.0508" y1="393.38" y2="393.38"/></g><!--class UserPermission--><g class="entity" data-qualified-name="UserPermission" data-source-line="22" id="ent0007"><rect fill="#F1F1F1" height="64.2969" rx="2.5" ry="2.5" style="stroke:#181818;stroke-width:0.5;" width="161.0508" x="318" y="345.23"/><ellipse cx="342.3986" cy="361.23" fill="#ADD1B2" rx="11" ry="11" style="stroke:#181818;stroke-width:1;"/><path d="M345.3673,366.8706 Q344.7892,367.1675 344.1486,367.3081 Q343.508,367.4644 342.8048,367.4644 Q340.3048,367.4644 338.9767,365.8238 Q337.6642,364.1675 337.6642,361.0425 Q337.6642,357.9175 338.9767,356.2613 Q340.3048,354.605 342.8048,354.605 Q343.508,354.605 344.1486,354.7613 Q344.8048,354.9175 345.3673,355.2144 L345.3673,357.9331 Q344.7423,357.355 344.1486,357.0894 Q343.5548,356.8081 342.9298,356.8081 Q341.5861,356.8081 340.8986,357.8863 Q340.2111,358.9488 340.2111,361.0425 Q340.2111,363.1363 340.8986,364.2144 Q341.5861,365.2769 342.9298,365.2769 Q343.5548,365.2769 344.1486,365.0113 Q344.7423,364.73 345.3673,364.1519 L345.3673,366.8706 Z " fill="#000000"/><text fill="#000000" font-family="sans-serif" font-size="14" lengthAdjust="spacing" textLength="108.165" x="358.4872" y="366.0767">UserPermission</text><line style="stroke:#181818;stroke-width:0.5;" x1="319" x2="478.0508" y1="377.23" y2="377.23"/><line style="stroke:#181818;stroke-width:0.5;" x1="319" x2="478.0508" y1="385.23" y2="385.23"/><text fill="#000000" font-family="sans-serif" font-size="14" lengthAdjust="spacing" textLength="149.0508" x="324" y="402.2251">effect (ALLOW/DENY)</text></g><!--class UserSettings--><g class="entity" data-qualified-name="UserSettings" data-source-line="26" id="ent0008"><rect fill="#F1F1F1" height="48" rx="2.5" ry="2.5" style="stroke:#181818;stroke-width:0.5;" width="121.332" x="644.86" y="353.38"/><ellipse cx="659.86" cy="369.38" fill="#ADD1B2" rx="11" ry="11" style="stroke:#181818;stroke-width:1;"/><path d="M662.8288,375.0206 Q662.2506,375.3175 661.61,375.4581 Q660.9694,375.6144 660.2663,375.6144 Q657.7663,375.6144 656.4381,373.9738 Q655.1256,372.3175 655.1256,369.1925 Q655.1256,366.0675 656.4381,364.4113 Q657.7663,362.755 660.2663,362.755 Q660.9694,362.755 661.61,362.9113 Q662.2663,363.0675 662.8288,363.3644 L662.8288,366.0831 Q662.2038,365.505 661.61,365.2394 Q661.0163,364.9581 660.3913,364.9581 Q659.0475,364.9581 658.36,366.0363 Q657.6725,367.0988 657.6725,369.1925 Q657.6725,371.2863 658.36,372.3644 Q659.0475,373.4269 660.3913,373.4269 Q661.0163,373.4269 661.61,373.1613 Q662.2038,372.88 662.8288,372.3019 L662.8288,375.0206 Z " fill="#000000"/><text fill="#000000" font-family="sans-serif" font-size="14" lengthAdjust="spacing" textLength="89.332" x="673.86" y="374.2267">UserSettings</text><line style="stroke:#181818;stroke-width:0.5;" x1="645.86" x2="765.192" y1="385.38" y2="385.38"/><line style="stroke:#181818;stroke-width:0.5;" x1="645.86" x2="765.192" y1="393.38" y2="393.38"/></g><!--class AuditLog--><g class="entity" data-qualified-name="AuditLog" data-source-line="28" id="ent0009"><rect fill="#F1F1F1" height="113.1875" rx="2.5" ry="2.5" style="stroke:#181818;stroke-width:0.5;" width="93.9678" x="515.54" y="320.78"/><ellipse cx="530.54" cy="336.78" fill="#ADD1B2" rx="11" ry="11" style="stroke:#181818;stroke-width:1;"/><path d="M533.5088,342.4206 Q532.9306,342.7175 532.29,342.8581 Q531.6494,343.0144 530.9463,343.0144 Q528.4463,343.0144 527.1181,341.3738 Q525.8056,339.7175 525.8056,336.5925 Q525.8056,333.4675 527.1181,331.8113 Q528.4463,330.155 530.9463,330.155 Q531.6494,330.155 532.29,330.3113 Q532.9463,330.4675 533.5088,330.7644 L533.5088,333.4831 Q532.8838,332.905 532.29,332.6394 Q531.6963,332.3581 531.0713,332.3581 Q529.7275,332.3581 529.04,333.4363 Q528.3525,334.4988 528.3525,336.5925 Q528.3525,338.6863 529.04,339.7644 Q529.7275,340.8269 531.0713,340.8269 Q531.6963,340.8269 532.29,340.5613 Q532.8838,340.28 533.5088,339.7019 L533.5088,342.4206 Z " fill="#000000"/><text fill="#000000" font-family="sans-serif" font-size="14" lengthAdjust="spacing" textLength="61.9678" x="544.54" y="341.6267">AuditLog</text><line style="stroke:#181818;stroke-width:0.5;" x1="516.54" x2="608.5078" y1="352.78" y2="352.78"/><text fill="#000000" font-family="sans-serif" font-size="14" lengthAdjust="spacing" textLength="12.7764" x="521.54" y="369.7751">id</text><text fill="#000000" font-family="sans-serif" font-size="14" lengthAdjust="spacing" textLength="43.0938" x="521.54" y="386.072">action</text><text fill="#000000" font-family="sans-serif" font-size="14" lengthAdjust="spacing" textLength="61.168" x="521.54" y="402.3689">resource</text><text fill="#000000" font-family="sans-serif" font-size="14" lengthAdjust="spacing" textLength="75.5166" x="521.54" y="418.6657">timestamp</text><line style="stroke:#181818;stroke-width:0.5;" x1="516.54" x2="608.5078" y1="425.9675" y2="425.9675"/></g><!--class Incident--><g class="entity" data-qualified-name="Incident" data-source-line="48" id="ent0018"><rect fill="#F1F1F1" height="96.8906" rx="2.5" ry="2.5" style="stroke:#181818;stroke-width:0.5;" width="88.4512" x="520.3" y="7"/><ellipse cx="535.3" cy="23" fill="#ADD1B2" rx="11" ry="11" style="stroke:#181818;stroke-width:1;"/><path d="M538.2688,28.6406 Q537.6906,28.9375 537.05,29.0781 Q536.4094,29.2344 535.7063,29.2344 Q533.2063,29.2344 531.8781,27.5938 Q530.5656,25.9375 530.5656,22.8125 Q530.5656,19.6875 531.8781,18.0313 Q533.2063,16.375 535.7063,16.375 Q536.4094,16.375 537.05,16.5313 Q537.7063,16.6875 538.2688,16.9844 L538.2688,19.7031 Q537.6438,19.125 537.05,18.8594 Q536.4563,18.5781 535.8313,18.5781 Q534.4875,18.5781 533.8,19.6563 Q533.1125,20.7188 533.1125,22.8125 Q533.1125,24.9063 533.8,25.9844 Q534.4875,27.0469 535.8313,27.0469 Q536.4563,27.0469 537.05,26.7813 Q537.6438,26.5 538.2688,25.9219 L538.2688,28.6406 Z " fill="#000000"/><text fill="#000000" font-family="sans-serif" font-size="14" lengthAdjust="spacing" textLength="56.4512" x="549.3" y="27.8467">Incident</text><line style="stroke:#181818;stroke-width:0.5;" x1="521.3" x2="607.7512" y1="39" y2="39"/><text fill="#000000" font-family="sans-serif" font-size="14" lengthAdjust="spacing" textLength="12.7764" x="526.3" y="55.9951">id</text><text fill="#000000" font-family="sans-serif" font-size="14" lengthAdjust="spacing" textLength="43.0186" x="526.3" y="72.292">status</text><text fill="#000000" font-family="sans-serif" font-size="14" lengthAdjust="spacing" textLength="50.5176" x="526.3" y="88.5889">priority</text><line style="stroke:#181818;stroke-width:0.5;" x1="521.3" x2="607.7512" y1="95.8906" y2="95.8906"/></g><!--class Asset--><g class="entity" data-qualified-name="Asset" data-source-line="54" id="ent0019"><rect fill="#F1F1F1" height="48" rx="2.5" ry="2.5" style="stroke:#181818;stroke-width:0.5;" width="70.2676" x="277.39" y="188.34"/><ellipse cx="292.39" cy="204.34" fill="#ADD1B2" rx="11" ry="11" style="stroke:#181818;stroke-width:1;"/><path d="M295.3588,209.9806 Q294.7806,210.2775 294.14,210.4181 Q293.4994,210.5744 292.7963,210.5744 Q290.2963,210.5744 288.9681,208.9338 Q287.6556,207.2775 287.6556,204.1525 Q287.6556,201.0275 288.9681,199.3713 Q290.2963,197.715 292.7963,197.715 Q293.4994,197.715 294.14,197.8713 Q294.7963,198.0275 295.3588,198.3244 L295.3588,201.0431 Q294.7338,200.465 294.14,200.1994 Q293.5463,199.9181 292.9213,199.9181 Q291.5775,199.9181 290.89,200.9963 Q290.2025,202.0588 290.2025,204.1525 Q290.2025,206.2463 290.89,207.3244 Q291.5775,208.3869 292.9213,208.3869 Q293.5463,208.3869 294.14,208.1213 Q294.7338,207.84 295.3588,207.2619 L295.3588,209.9806 Z " fill="#000000"/><text fill="#000000" font-family="sans-serif" font-size="14" lengthAdjust="spacing" textLength="38.2676" x="306.39" y="209.1867">Asset</text><line style="stroke:#181818;stroke-width:0.5;" x1="278.39" x2="346.6576" y1="220.34" y2="220.34"/><line style="stroke:#181818;stroke-width:0.5;" x1="278.39" x2="346.6576" y1="228.34" y2="228.34"/></g><!--class Problem--><g class="entity" data-qualified-name="Problem" data-source-line="55" id="ent0020"><rect fill="#F1F1F1" height="48" rx="2.5" ry="2.5" style="stroke:#181818;stroke-width:0.5;" width="89.791" x="382.63" y="188.34"/><ellipse cx="397.63" cy="204.34" fill="#ADD1B2" rx="11" ry="11" style="stroke:#181818;stroke-width:1;"/><path d="M400.5988,209.9806 Q400.0206,210.2775 399.38,210.4181 Q398.7394,210.5744 398.0363,210.5744 Q395.5363,210.5744 394.2081,208.9338 Q392.8956,207.2775 392.8956,204.1525 Q392.8956,201.0275 394.2081,199.3713 Q395.5363,197.715 398.0363,197.715 Q398.7394,197.715 399.38,197.8713 Q400.0363,198.0275 400.5988,198.3244 L400.5988,201.0431 Q399.9738,200.465 399.38,200.1994 Q398.7863,199.9181 398.1613,199.9181 Q396.8175,199.9181 396.13,200.9963 Q395.4425,202.0588 395.4425,204.1525 Q395.4425,206.2463 396.13,207.3244 Q396.8175,208.3869 398.1613,208.3869 Q398.7863,208.3869 399.38,208.1213 Q399.9738,207.84 400.5988,207.2619 L400.5988,209.9806 Z " fill="#000000"/><text fill="#000000" font-family="sans-serif" font-size="14" lengthAdjust="spacing" textLength="57.791" x="411.63" y="209.1867">Problem</text><line style="stroke:#181818;stroke-width:0.5;" x1="383.63" x2="471.421" y1="220.34" y2="220.34"/><line style="stroke:#181818;stroke-width:0.5;" x1="383.63" x2="471.421" y1="228.34" y2="228.34"/></g><!--class Document--><g class="entity" data-qualified-name="Document" data-source-line="56" id="ent0021"><rect fill="#F1F1F1" height="48" rx="2.5" ry="2.5" style="stroke:#181818;stroke-width:0.5;" width="104.5293" x="226.26" y="31.45"/><ellipse cx="241.26" cy="47.45" fill="#ADD1B2" rx="11" ry="11" style="stroke:#181818;stroke-width:1;"/><path d="M244.2288,53.0906 Q243.6506,53.3875 243.01,53.5281 Q242.3694,53.6844 241.6663,53.6844 Q239.1663,53.6844 237.8381,52.0438 Q236.5256,50.3875 236.5256,47.2625 Q236.5256,44.1375 237.8381,42.4813 Q239.1663,40.825 241.6663,40.825 Q242.3694,40.825 243.01,40.9813 Q243.6663,41.1375 244.2288,41.4344 L244.2288,44.1531 Q243.6038,43.575 243.01,43.3094 Q242.4163,43.0281 241.7913,43.0281 Q240.4475,43.0281 239.76,44.1063 Q239.0725,45.1688 239.0725,47.2625 Q239.0725,49.3563 239.76,50.4344 Q240.4475,51.4969 241.7913,51.4969 Q242.4163,51.4969 243.01,51.2313 Q243.6038,50.95 244.2288,50.3719 L244.2288,53.0906 Z " fill="#000000"/><text fill="#000000" font-family="sans-serif" font-size="14" lengthAdjust="spacing" textLength="72.5293" x="255.26" y="52.2967">Document</text><line style="stroke:#181818;stroke-width:0.5;" x1="227.26" x2="329.7893" y1="63.45" y2="63.45"/><line style="stroke:#181818;stroke-width:0.5;" x1="227.26" x2="329.7893" y1="71.45" y2="71.45"/></g><!--class Relationship--><g class="entity" data-qualified-name="Relationship" data-source-line="57" id="ent0022"><rect fill="#F1F1F1" height="48" rx="2.5" ry="2.5" style="stroke:#181818;stroke-width:0.5;" width="118.5703" x="366.24" y="31.45"/><ellipse cx="381.24" cy="47.45" fill="#ADD1B2" rx="11" ry="11" style="stroke:#181818;stroke-width:1;"/><path d="M384.2088,53.0906 Q383.6306,53.3875 382.99,53.5281 Q382.3494,53.6844 381.6463,53.6844 Q379.1463,53.6844 377.8181,52.0438 Q376.5056,50.3875 376.5056,47.2625 Q376.5056,44.1375 377.8181,42.4813 Q379.1463,40.825 381.6463,40.825 Q382.3494,40.825 382.99,40.9813 Q383.6463,41.1375 384.2088,41.4344 L384.2088,44.1531 Q383.5838,43.575 382.99,43.3094 Q382.3963,43.0281 381.7713,43.0281 Q380.4275,43.0281 379.74,44.1063 Q379.0525,45.1688 379.0525,47.2625 Q379.0525,49.3563 379.74,50.4344 Q380.4275,51.4969 381.7713,51.4969 Q382.3963,51.4969 382.99,51.2313 Q383.5838,50.95 384.2088,50.3719 L384.2088,53.0906 Z " fill="#000000"/><text fill="#000000" font-family="sans-serif" font-size="14" lengthAdjust="spacing" textLength="86.5703" x="395.24" y="52.2967">Relationship</text><line style="stroke:#181818;stroke-width:0.5;" x1="367.24" x2="483.8103" y1="63.45" y2="63.45"/><line style="stroke:#181818;stroke-width:0.5;" x1="367.24" x2="483.8103" y1="71.45" y2="71.45"/></g><!--class IncidentKnowledgeFeedback--><g class="entity" data-qualified-name="IncidentKnowledgeFeedback" data-source-line="59" id="ent0023"><rect fill="#F1F1F1" height="48" rx="2.5" ry="2.5" style="stroke:#181818;stroke-width:0.5;" width="232.8467" x="656.1" y="188.34"/><ellipse cx="671.1" cy="204.34" fill="#ADD1B2" rx="11" ry="11" style="stroke:#181818;stroke-width:1;"/><path d="M674.0688,209.9806 Q673.4906,210.2775 672.85,210.4181 Q672.2094,210.5744 671.5063,210.5744 Q669.0063,210.5744 667.6781,208.9338 Q666.3656,207.2775 666.3656,204.1525 Q666.3656,201.0275 667.6781,199.3713 Q669.0063,197.715 671.5063,197.715 Q672.2094,197.715 672.85,197.8713 Q673.5063,198.0275 674.0688,198.3244 L674.0688,201.0431 Q673.4438,200.465 672.85,200.1994 Q672.2563,199.9181 671.6313,199.9181 Q670.2875,199.9181 669.6,200.9963 Q668.9125,202.0588 668.9125,204.1525 Q668.9125,206.2463 669.6,207.3244 Q670.2875,208.3869 671.6313,208.3869 Q672.2563,208.3869 672.85,208.1213 Q673.4438,207.84 674.0688,207.2619 L674.0688,209.9806 Z " fill="#000000"/><text fill="#000000" font-family="sans-serif" font-size="14" lengthAdjust="spacing" textLength="200.8467" x="685.1" y="209.1867">IncidentKnowledgeFeedback</text><line style="stroke:#181818;stroke-width:0.5;" x1="657.1" x2="887.9467" y1="220.34" y2="220.34"/><line style="stroke:#181818;stroke-width:0.5;" x1="657.1" x2="887.9467" y1="228.34" y2="228.34"/></g><!--link User to UserSettings--><g class="link" data-entity-1="ent0002" data-entity-2="ent0008" data-link-type="dependency" data-source-line="35" id="lnk10"><path codeLine="35" d="M605.69,260.93 C631.86,291.2 660.6747,324.5222 681.3747,348.4522" fill="none" id="User-to-UserSettings" style="stroke:#181818;stroke-width:1;"/><polygon fill="#181818" points="685.3,352.99,682.4372,343.5664,682.0289,349.2085,676.3868,348.8001,685.3,352.99" style="stroke:#181818;stroke-width:1;"/></g><!--link User to UserRole--><g class="link" data-entity-1="ent0002" data-entity-2="ent0005" data-link-type="dependency" data-source-line="36" id="lnk11"><path codeLine="36" d="M507.22,251.64 C501.35,254.94 495.39,258.05 489.53,260.78 C409.63,297.98 377.87,278.53 300.53,320.78 C284.74,329.41 273.5923,337.9869 261.4323,349.0269" fill="none" id="User-to-UserRole" style="stroke:#181818;stroke-width:1;"/><polygon fill="#181818" points="256.99,353.06,266.3422,349.9718,260.6919,349.6991,260.9647,344.0488,256.99,353.06" style="stroke:#181818;stroke-width:1;"/></g><!--link Role to UserRole--><g class="link" data-entity-1="ent0003" data-entity-2="ent0005" data-link-type="dependency" data-source-line="37" id="lnk12"><path codeLine="37" d="M99.14,244.39 C131.41,276.08 176.47,320.3351 205.53,348.8851" fill="none" id="Role-to-UserRole" style="stroke:#181818;stroke-width:1;"/><polygon fill="#181818" points="209.81,353.09,206.1932,343.9293,206.2433,349.5859,200.5867,349.636,209.81,353.09" style="stroke:#181818;stroke-width:1;"/></g><!--link Role to RolePermission--><g class="link" data-entity-1="ent0003" data-entity-2="ent0006" data-link-type="dependency" data-source-line="39" id="lnk13"><path codeLine="39" d="M69.7,252.8 C71.43,284.09 73.46,320.7691 74.9,346.9091" fill="none" id="Role-to-RolePermission" style="stroke:#181818;stroke-width:1;"/><polygon fill="#181818" points="75.23,352.9,78.7289,343.6936,74.955,347.9076,70.741,344.1336,75.23,352.9" style="stroke:#181818;stroke-width:1;"/></g><!--link Permission to RolePermission--><g class="link" data-entity-1="ent0004" data-entity-2="ent0006" data-link-type="dependency" data-source-line="40" id="lnk14"><path codeLine="40" d="M161.41,252.8 C139.92,284.09 114.0077,321.8148 96.0477,347.9548" fill="none" id="Permission-to-RolePermission" style="stroke:#181818;stroke-width:1;"/><polygon fill="#181818" points="92.65,352.9,101.0434,347.7473,95.4814,348.779,94.4498,343.217,92.65,352.9" style="stroke:#181818;stroke-width:1;"/></g><!--link User to UserPermission--><g class="link" data-entity-1="ent0002" data-entity-2="ent0007" data-link-type="dependency" data-source-line="42" id="lnk15"><path codeLine="42" d="M516.07,260.93 C488.5,288 459.0413,316.9464 434.7913,340.7564" fill="none" id="User-to-UserPermission" style="stroke:#181818;stroke-width:1;"/><polygon fill="#181818" points="430.51,344.96,439.7344,341.5088,434.0778,341.457,434.1295,335.8004,430.51,344.96" style="stroke:#181818;stroke-width:1;"/></g><!--link Permission to UserPermission--><g class="link" data-entity-1="ent0004" data-entity-2="ent0007" data-link-type="dependency" data-source-line="43" id="lnk16"><path codeLine="43" d="M239.63,253.01 C276.05,281.29 319.6005,315.1007 353.3505,341.3007" fill="none" id="Permission-to-UserPermission" style="stroke:#181818;stroke-width:1;"/><polygon fill="#181818" points="358.09,344.98,353.4336,336.3014,354.1404,341.9139,348.5279,342.6208,358.09,344.98" style="stroke:#181818;stroke-width:1;"/></g><!--link User to AuditLog--><g class="link" data-entity-1="ent0002" data-entity-2="ent0009" data-link-type="dependency" data-source-line="45" id="lnk17"><path codeLine="45" d="M563.94,260.93 C563.71,279.54 563.5244,295.0205 563.2844,314.3705" fill="none" id="User-to-AuditLog" style="stroke:#181818;stroke-width:1;"/><polygon fill="#181818" points="563.21,320.37,567.3213,311.4203,563.272,315.3704,559.3219,311.3211,563.21,320.37" style="stroke:#181818;stroke-width:1;"/></g><!--link Incident to User--><g class="link" data-entity-1="ent0018" data-entity-2="ent0002" data-link-type="dependency" data-source-line="61" id="lnk24"><path codeLine="61" d="M564.53,104.18 C564.53,123.03 564.53,138.64 564.53,157.49" fill="none" id="Incident-to-User" style="stroke:#181818;stroke-width:1;"/><polygon fill="#181818" points="564.53,163.49,568.53,154.49,564.53,158.49,560.53,154.49,564.53,163.49" style="stroke:#181818;stroke-width:1;"/></g><!--link Incident to Asset--><g class="link" data-entity-1="ent0018" data-entity-2="ent0019" data-link-type="dependency" data-source-line="62" id="lnk25"><path codeLine="62" d="M520.04,92.48 C514.28,96.54 508.36,100.45 502.53,103.89 C445.27,137.67 421.44,127.94 365.53,163.89 C354.93,170.71 348.7509,175.531 339.8809,183.791" fill="none" id="Incident-to-Asset" style="stroke:#181818;stroke-width:1;"/><polygon fill="#181818" points="335.49,187.88,344.8024,184.6738,339.1491,184.4725,339.3504,178.8193,335.49,187.88" style="stroke:#181818;stroke-width:1;"/></g><!--link Incident to Problem--><g class="link" data-entity-1="ent0018" data-entity-2="ent0020" data-link-type="dependency" data-source-line="63" id="lnk26"><path codeLine="63" d="M522.3,104.18 C497.62,132.09 471.5344,161.5751 451.9844,183.6851" fill="none" id="Incident-to-Problem" style="stroke:#181818;stroke-width:1;"/><polygon fill="#181818" points="448.01,188.18,456.9682,184.0873,451.322,184.4343,450.9751,178.7881,448.01,188.18" style="stroke:#181818;stroke-width:1;"/></g><!--link Incident to IncidentKnowledgeFeedback--><g class="link" data-entity-1="ent0018" data-entity-2="ent0023" data-link-type="dependency" data-source-line="65" id="lnk27"><path codeLine="65" d="M609.15,89.67 C648.9,119.28 701.2374,158.2569 736.3474,184.3969" fill="none" id="Incident-to-IncidentKnowledgeFeedback" style="stroke:#181818;stroke-width:1;"/><polygon fill="#181818" points="741.16,187.98,736.3298,179.3969,737.1495,184.9941,731.5523,185.8138,741.16,187.98" style="stroke:#181818;stroke-width:1;"/></g><!--link Document to Asset--><g class="link" data-entity-1="ent0021" data-entity-2="ent0019" data-link-type="dependency" data-source-line="66" id="lnk28"><path codeLine="66" d="M283.62,79.64 C290.03,108.84 299.6826,152.8597 306.1126,182.1297" fill="none" id="Document-to-Asset" style="stroke:#181818;stroke-width:1;"/><polygon fill="#181818" points="307.4,187.99,309.3758,178.3414,306.3272,183.1064,301.5621,180.0579,307.4,187.99" style="stroke:#181818;stroke-width:1;"/></g><!--link Relationship to Asset--><g class="link" data-entity-1="ent0022" data-entity-2="ent0019" data-link-type="dependency" data-source-line="67" id="lnk29"><path codeLine="67" d="M408.61,79.64 C387.31,108.84 354.4569,153.8733 333.0969,183.1433" fill="none" id="Relationship-to-Asset" style="stroke:#181818;stroke-width:1;"/><polygon fill="#181818" points="329.56,187.99,338.0965,183.0779,332.5074,183.9511,331.6342,178.362,329.56,187.99" style="stroke:#181818;stroke-width:1;"/></g><!--link Relationship to Problem--><g class="link" data-entity-1="ent0022" data-entity-2="ent0020" data-link-type="dependency" data-source-line="68" id="lnk30"><path codeLine="68" d="M425.82,79.64 C426.2,108.84 426.7742,152.7205 427.1442,181.9905" fill="none" id="Relationship-to-Problem" style="stroke:#181818;stroke-width:1;"/><polygon fill="#181818" points="427.22,187.99,431.1059,178.9402,427.1568,182.9904,423.1066,179.0413,427.22,187.99" style="stroke:#181818;stroke-width:1;"/></g><?plantuml-src VLBBJiCm4BpxAtpYSK3m0o15AeYAYY8gX3YwphPTDROZxqPLGVmxTbhZEABaaCVixioE9xH5soglZDID8ggOFIuxXgbsTe6V86-4E9UtyPBJ6YmZx-MPhBG6eWCk-advHk3bbv0Iwt03ex09ppQKTixNZuesubiSUrzT0xdNAWEvzWBU814wcpksiCyDKIWI3BZopA1dH0Ih5MYM5zLiDd-_djm_VroMd0jWHhkcX5LTZJnpwxo6qXmbfFH0hlCQmYkZ0M9bsaZMdy7LrLt9Lw3zvht_0idGoC_0nH_LallqsAYQnvB9dFAy1Q-YppBUgTKOyy-d4LnpHp5ZZyw7_o8VPqK4dFBqRjc0ENvDdEvCe4dXGNFGsc0hHafFrkqQgDVm050lbTuAyRj4yYHBwA1RG4c-H4zhf0K7VCCb_uEFKZy0?></g></svg>