<svg xmlns="http://www.w3.org/2000/svg" xmlns:xlink="http://www.w3.org/1999/xlink" contentStyleType="text/css" data-diagram-type="CLASS" height="694px" preserveAspectRatio="none" style="width:1673px;height:694px;background:#FFFFFF;" version="1.1" viewBox="0 0 1673 694" width="1673px" zoomAndPan="magnify"><?plantuml 1.2026.4beta2?><defs/><g><!--class User--><g class="entity" data-qualified-name="User" data-source-line="5" id="ent0002"><rect fill="#F1F1F1" height="162.0781" rx="2.5" ry="2.5" style="stroke:#181818;stroke-width:0.5;" width="176.6641" x="643.09" y="278.67"/><ellipse cx="711.217" cy="294.67" fill="#ADD1B2" rx="11" ry="11" style="stroke:#181818;stroke-width:1;"/><path d="M714.1857,300.3106 Q713.6076,300.6075 712.967,300.7481 Q712.3263,300.9044 711.6232,300.9044 Q709.1232,300.9044 707.7951,299.2638 Q706.4826,297.6075 706.4826,294.4825 Q706.4826,291.3575 707.7951,289.7013 Q709.1232,288.045 711.6232,288.045 Q712.3263,288.045 712.967,288.2013 Q713.6232,288.3575 714.1857,288.6544 L714.1857,291.3731 Q713.5607,290.795 712.967,290.5294 Q712.3732,290.2481 711.7482,290.2481 Q710.4045,290.2481 709.717,291.3263 Q709.0295,292.3888 709.0295,294.4825 Q709.0295,296.5763 709.717,297.6544 Q710.4045,298.7169 711.7482,298.7169 Q712.3732,298.7169 712.967,298.4513 Q713.5607,298.17 714.1857,297.5919 L714.1857,300.3106 Z " fill="#000000"/><text fill="#000000" font-family="sans-serif" font-size="14" lengthAdjust="spacing" textLength="31.9102" x="731.717" y="299.5167">User</text><line style="stroke:#181818;stroke-width:0.5;" x1="644.09" x2="818.7541" y1="310.67" y2="310.67"/><text fill="#000000" font-family="sans-serif" font-size="14" lengthAdjust="spacing" textLength="69.0771" x="649.09" y="327.6651">+id: UUID</text><text fill="#000000" font-family="sans-serif" font-size="14" lengthAdjust="spacing" textLength="101.2881" x="649.09" y="343.962">+email: String</text><text fill="#000000" font-family="sans-serif" font-size="14" lengthAdjust="spacing" textLength="164.6641" x="649.09" y="360.2589">+passwordHash: String</text><text fill="#000000" font-family="sans-serif" font-size="14" lengthAdjust="spacing" textLength="157.7529" x="649.09" y="376.5557">+createdAt: DateTime</text><line style="stroke:#181818;stroke-width:0.5;" x1="644.09" x2="818.7541" y1="383.8575" y2="383.8575"/><text fill="#000000" font-family="sans-serif" font-size="14" lengthAdjust="spacing" textLength="111.7129" x="649.09" y="400.8526">+authenticate()</text><text fill="#000000" font-family="sans-serif" font-size="14" lengthAdjust="spacing" textLength="116.0674" x="649.09" y="417.1495">+updateProfile()</text><text fill="#000000" font-family="sans-serif" font-size="14" lengthAdjust="spacing" textLength="140.4443" x="649.09" y="433.4464">+changePassword()</text></g><!--class Role--><g class="entity" data-qualified-name="Role" data-source-line="16" id="ent0003"><rect fill="#F1F1F1" height="129.4844" rx="2.5" ry="2.5" style="stroke:#181818;stroke-width:0.5;" width="164.3799" x="42.23" y="294.97"/><ellipse cx="104.772" cy="310.97" fill="#ADD1B2" rx="11" ry="11" style="stroke:#181818;stroke-width:1;"/><path d="M107.7407,316.6106 Q107.1626,316.9075 106.522,317.0481 Q105.8814,317.2044 105.1782,317.2044 Q102.6782,317.2044 101.3501,315.5638 Q100.0376,313.9075 100.0376,310.7825 Q100.0376,307.6575 101.3501,306.0013 Q102.6782,304.345 105.1782,304.345 Q105.8814,304.345 106.522,304.5013 Q107.1782,304.6575 107.7407,304.9544 L107.7407,307.6731 Q107.1157,307.095 106.522,306.8294 Q105.9282,306.5481 105.3032,306.5481 Q103.9595,306.5481 103.272,307.6263 Q102.5845,308.6888 102.5845,310.7825 Q102.5845,312.8763 103.272,313.9544 Q103.9595,315.0169 105.3032,315.0169 Q105.9282,315.0169 106.522,314.7513 Q107.1157,314.47 107.7407,313.8919 L107.7407,316.6106 Z " fill="#000000"/><text fill="#000000" font-family="sans-serif" font-size="14" lengthAdjust="spacing" textLength="30.7959" x="125.272" y="315.8167">Role</text><line style="stroke:#181818;stroke-width:0.5;" x1="43.23" x2="205.6099" y1="326.97" y2="326.97"/><text fill="#000000" font-family="sans-serif" font-size="14" lengthAdjust="spacing" textLength="69.0771" x="48.23" y="343.9651">+id: UUID</text><text fill="#000000" font-family="sans-serif" font-size="14" lengthAdjust="spacing" textLength="102.3818" x="48.23" y="360.262">+name: String</text><text fill="#000000" font-family="sans-serif" font-size="14" lengthAdjust="spacing" textLength="140.5195" x="48.23" y="376.5589">+description: String</text><line style="stroke:#181818;stroke-width:0.5;" x1="43.23" x2="205.6099" y1="383.8606" y2="383.8606"/><text fill="#000000" font-family="sans-serif" font-size="14" lengthAdjust="spacing" textLength="125.2617" x="48.23" y="400.8557">+addPermission()</text><text fill="#000000" font-family="sans-serif" font-size="14" lengthAdjust="spacing" textLength="152.3799" x="48.23" y="417.1526">+removePermission()</text></g><!--class Permission--><g class="entity" data-qualified-name="Permission" data-source-line="25" id="ent0004"><rect fill="#F1F1F1" height="113.1875" rx="2.5" ry="2.5" style="stroke:#181818;stroke-width:0.5;" width="152.5195" x="262.17" y="303.12"/><ellipse cx="297.0891" cy="319.12" fill="#ADD1B2" rx="11" ry="11" style="stroke:#181818;stroke-width:1;"/><path d="M300.0578,324.7606 Q299.4797,325.0575 298.8391,325.1981 Q298.1985,325.3544 297.4953,325.3544 Q294.9953,325.3544 293.6672,323.7138 Q292.3547,322.0575 292.3547,318.9325 Q292.3547,315.8075 293.6672,314.1513 Q294.9953,312.495 297.4953,312.495 Q298.1985,312.495 298.8391,312.6513 Q299.4953,312.8075 300.0578,313.1044 L300.0578,315.8231 Q299.4328,315.245 298.8391,314.9794 Q298.2453,314.6981 297.6203,314.6981 Q296.2766,314.6981 295.5891,315.7763 Q294.9016,316.8388 294.9016,318.9325 Q294.9016,321.0263 295.5891,322.1044 Q296.2766,323.1669 297.6203,323.1669 Q298.2453,323.1669 298.8391,322.9013 Q299.4328,322.62 300.0578,322.0419 L300.0578,324.7606 Z " fill="#000000"/><text fill="#000000" font-family="sans-serif" font-size="14" lengthAdjust="spacing" textLength="76.2549" x="315.5156" y="323.9667">Permission</text><line style="stroke:#181818;stroke-width:0.5;" x1="263.17" x2="413.6895" y1="335.12" y2="335.12"/><text fill="#000000" font-family="sans-serif" font-size="14" lengthAdjust="spacing" textLength="69.0771" x="268.17" y="352.1151">+id: UUID</text><text fill="#000000" font-family="sans-serif" font-size="14" lengthAdjust="spacing" textLength="87.6846" x="268.17" y="368.412">+key: String</text><text fill="#000000" font-family="sans-serif" font-size="14" lengthAdjust="spacing" textLength="140.5195" x="268.17" y="384.7089">+description: String</text><line style="stroke:#181818;stroke-width:0.5;" x1="263.17" x2="413.6895" y1="392.0106" y2="392.0106"/><text fill="#000000" font-family="sans-serif" font-size="14" lengthAdjust="spacing" textLength="78.8662" x="268.17" y="409.0057">+validate()</text></g><!--class UserRole--><g class="entity" data-qualified-name="UserRole" data-source-line="33" id="ent0005"><rect fill="#F1F1F1" height="113.1875" rx="2.5" ry="2.5" style="stroke:#181818;stroke-width:0.5;" width="113.3906" x="253.73" y="542.2"/><ellipse cx="277.1381" cy="558.2" fill="#ADD1B2" rx="11" ry="11" style="stroke:#181818;stroke-width:1;"/><path d="M280.1068,563.8406 Q279.5287,564.1375 278.8881,564.2781 Q278.2474,564.4344 277.5443,564.4344 Q275.0443,564.4344 273.7162,562.7938 Q272.4037,561.1375 272.4037,558.0125 Q272.4037,554.8875 273.7162,553.2313 Q275.0443,551.575 277.5443,551.575 Q278.2474,551.575 278.8881,551.7313 Q279.5443,551.8875 280.1068,552.1844 L280.1068,554.9031 Q279.4818,554.325 278.8881,554.0594 Q278.2943,553.7781 277.6693,553.7781 Q276.3256,553.7781 275.6381,554.8563 Q274.9506,555.9188 274.9506,558.0125 Q274.9506,560.1063 275.6381,561.1844 Q276.3256,562.2469 277.6693,562.2469 Q278.2943,562.2469 278.8881,561.9813 Q279.4818,561.7 280.1068,561.1219 L280.1068,563.8406 Z " fill="#000000"/><text fill="#000000" font-family="sans-serif" font-size="14" lengthAdjust="spacing" textLength="62.7061" x="293.0065" y="563.0467">UserRole</text><line style="stroke:#181818;stroke-width:0.5;" x1="254.73" x2="366.1206" y1="574.2" y2="574.2"/><text fill="#000000" font-family="sans-serif" font-size="14" lengthAdjust="spacing" textLength="99.8525" x="259.73" y="591.1951">+userId: UUID</text><text fill="#000000" font-family="sans-serif" font-size="14" lengthAdjust="spacing" textLength="96.1406" x="259.73" y="607.492">+roleId: UUID</text><line style="stroke:#181818;stroke-width:0.5;" x1="254.73" x2="366.1206" y1="614.7938" y2="614.7938"/><text fill="#000000" font-family="sans-serif" font-size="14" lengthAdjust="spacing" textLength="98.2666" x="259.73" y="631.7889">+assignRole()</text><text fill="#000000" font-family="sans-serif" font-size="14" lengthAdjust="spacing" textLength="101.3906" x="259.73" y="648.0857">+revokeRole()</text></g><!--class RolePermission--><g class="entity" data-qualified-name="RolePermission" data-source-line="41" id="ent0006"><rect fill="#F1F1F1" height="113.1875" rx="2.5" ry="2.5" style="stroke:#181818;stroke-width:0.5;" width="158.8496" x="7" y="542.2"/><ellipse cx="30.9095" cy="558.2" fill="#ADD1B2" rx="11" ry="11" style="stroke:#181818;stroke-width:1;"/><path d="M33.8782,563.8406 Q33.3001,564.1375 32.6595,564.2781 Q32.0188,564.4344 31.3157,564.4344 Q28.8157,564.4344 27.4876,562.7938 Q26.1751,561.1375 26.1751,558.0125 Q26.1751,554.8875 27.4876,553.2313 Q28.8157,551.575 31.3157,551.575 Q32.0188,551.575 32.6595,551.7313 Q33.3157,551.8875 33.8782,552.1844 L33.8782,554.9031 Q33.2532,554.325 32.6595,554.0594 Q32.0657,553.7781 31.4407,553.7781 Q30.097,553.7781 29.4095,554.8563 Q28.722,555.9188 28.722,558.0125 Q28.722,560.1063 29.4095,561.1844 Q30.097,562.2469 31.4407,562.2469 Q32.0657,562.2469 32.6595,561.9813 Q33.2532,561.7 33.8782,561.1219 L33.8782,563.8406 Z " fill="#000000"/><text fill="#000000" font-family="sans-serif" font-size="14" lengthAdjust="spacing" textLength="107.0508" x="46.8894" y="563.0467">RolePermission</text><line style="stroke:#181818;stroke-width:0.5;" x1="8" x2="164.8496" y1="574.2" y2="574.2"/><text fill="#000000" font-family="sans-serif" font-size="14" lengthAdjust="spacing" textLength="96.1406" x="13" y="591.1951">+roleId: UUID</text><text fill="#000000" font-family="sans-serif" font-size="14" lengthAdjust="spacing" textLength="146.0156" x="13" y="607.492">+permissionId: UUID</text><line style="stroke:#181818;stroke-width:0.5;" x1="8" x2="164.8496" y1="614.7938" y2="614.7938"/><text fill="#000000" font-family="sans-serif" font-size="14" lengthAdjust="spacing" textLength="136.4932" x="13" y="631.7889">+grantPermission()</text><text fill="#000000" font-family="sans-serif" font-size="14" lengthAdjust="spacing" textLength="146.8496" x="13" y="648.0857">+revokePermission()</text></g><!--class UserPermission--><g class="entity" data-qualified-name="UserPermission" data-source-line="49" id="ent0007"><rect fill="#F1F1F1" height="113.1875" rx="2.5" ry="2.5" style="stroke:#181818;stroke-width:0.5;" width="189.9258" x="428.46" y="542.2"/><ellipse cx="465.8523" cy="558.2" fill="#ADD1B2" rx="11" ry="11" style="stroke:#181818;stroke-width:1;"/><path d="M468.8211,563.8406 Q468.243,564.1375 467.6023,564.2781 Q466.9617,564.4344 466.2586,564.4344 Q463.7586,564.4344 462.4305,562.7938 Q461.118,561.1375 461.118,558.0125 Q461.118,554.8875 462.4305,553.2313 Q463.7586,551.575 466.2586,551.575 Q466.9617,551.575 467.6023,551.7313 Q468.2586,551.8875 468.8211,552.1844 L468.8211,554.9031 Q468.1961,554.325 467.6023,554.0594 Q467.0086,553.7781 466.3836,553.7781 Q465.0398,553.7781 464.3523,554.8563 Q463.6648,555.9188 463.6648,558.0125 Q463.6648,560.1063 464.3523,561.1844 Q465.0398,562.2469 466.3836,562.2469 Q467.0086,562.2469 467.6023,561.9813 Q468.1961,561.7 468.8211,561.1219 L468.8211,563.8406 Z " fill="#000000"/><text fill="#000000" font-family="sans-serif" font-size="14" lengthAdjust="spacing" textLength="108.165" x="484.8284" y="563.0467">UserPermission</text><line style="stroke:#181818;stroke-width:0.5;" x1="429.46" x2="617.3858" y1="574.2" y2="574.2"/><text fill="#000000" font-family="sans-serif" font-size="14" lengthAdjust="spacing" textLength="99.8525" x="434.46" y="591.1951">+userId: UUID</text><text fill="#000000" font-family="sans-serif" font-size="14" lengthAdjust="spacing" textLength="146.0156" x="434.46" y="607.492">+permissionId: UUID</text><text fill="#000000" font-family="sans-serif" font-size="14" lengthAdjust="spacing" textLength="177.9258" x="434.46" y="623.7889">+effect: PermissionEffect</text><line style="stroke:#181818;stroke-width:0.5;" x1="429.46" x2="617.3858" y1="631.0906" y2="631.0906"/><text fill="#000000" font-family="sans-serif" font-size="14" lengthAdjust="spacing" textLength="157.2744" x="434.46" y="648.0857">+overridePermission()</text></g><!--class UserSettings--><g class="entity" data-qualified-name="UserSettings" data-source-line="57" id="ent0008"><rect fill="#F1F1F1" height="129.4844" rx="2.5" ry="2.5" style="stroke:#181818;stroke-width:0.5;" width="232.1855" x="666.33" y="534.05"/><ellipse cx="733.5068" cy="550.05" fill="#ADD1B2" rx="11" ry="11" style="stroke:#181818;stroke-width:1;"/><path d="M736.4755,555.6906 Q735.8974,555.9875 735.2568,556.1281 Q734.6161,556.2844 733.913,556.2844 Q731.413,556.2844 730.0849,554.6438 Q728.7724,552.9875 728.7724,549.8625 Q728.7724,546.7375 730.0849,545.0813 Q731.413,543.425 733.913,543.425 Q734.6161,543.425 735.2568,543.5813 Q735.913,543.7375 736.4755,544.0344 L736.4755,546.7531 Q735.8505,546.175 735.2568,545.9094 Q734.663,545.6281 734.038,545.6281 Q732.6943,545.6281 732.0068,546.7063 Q731.3193,547.7688 731.3193,549.8625 Q731.3193,551.9563 732.0068,553.0344 Q732.6943,554.0969 734.038,554.0969 Q734.663,554.0969 735.2568,553.8313 Q735.8505,553.55 736.4755,552.9719 L736.4755,555.6906 Z " fill="#000000"/><text fill="#000000" font-family="sans-serif" font-size="14" lengthAdjust="spacing" textLength="89.332" x="754.0068" y="554.8967">UserSettings</text><line style="stroke:#181818;stroke-width:0.5;" x1="667.33" x2="897.5155" y1="566.05" y2="566.05"/><text fill="#000000" font-family="sans-serif" font-size="14" lengthAdjust="spacing" textLength="99.8525" x="672.33" y="583.0451">+userId: UUID</text><text fill="#000000" font-family="sans-serif" font-size="14" lengthAdjust="spacing" textLength="107.9053" x="672.33" y="599.342">+theme: String</text><text fill="#000000" font-family="sans-serif" font-size="14" lengthAdjust="spacing" textLength="220.1855" x="672.33" y="615.6389">+notificationsEnabled: Boolean</text><line style="stroke:#181818;stroke-width:0.5;" x1="667.33" x2="897.5155" y1="622.9406" y2="622.9406"/><text fill="#000000" font-family="sans-serif" font-size="14" lengthAdjust="spacing" textLength="120.2715" x="672.33" y="639.9357">+updateTheme()</text><text fill="#000000" font-family="sans-serif" font-size="14" lengthAdjust="spacing" textLength="154.6084" x="672.33" y="656.2326">+toggleNotifications()</text></g><!--class AuditLog--><g class="entity" data-qualified-name="AuditLog" data-source-line="66" id="ent0009"><rect fill="#F1F1F1" height="162.0781" rx="2.5" ry="2.5" style="stroke:#181818;stroke-width:0.5;" width="176.5684" x="933.14" y="517.75"/><ellipse cx="986.1903" cy="533.75" fill="#ADD1B2" rx="11" ry="11" style="stroke:#181818;stroke-width:1;"/><path d="M989.159,539.3906 Q988.5809,539.6875 987.9403,539.8281 Q987.2997,539.9844 986.5965,539.9844 Q984.0965,539.9844 982.7684,538.3438 Q981.4559,536.6875 981.4559,533.5625 Q981.4559,530.4375 982.7684,528.7813 Q984.0965,527.125 986.5965,527.125 Q987.2997,527.125 987.9403,527.2813 Q988.5965,527.4375 989.159,527.7344 L989.159,530.4531 Q988.534,529.875 987.9403,529.6094 Q987.3465,529.3281 986.7215,529.3281 Q985.3778,529.3281 984.6903,530.4063 Q984.0028,531.4688 984.0028,533.5625 Q984.0028,535.6563 984.6903,536.7344 Q985.3778,537.7969 986.7215,537.7969 Q987.3465,537.7969 987.9403,537.5313 Q988.534,537.25 989.159,536.6719 L989.159,539.3906 Z " fill="#000000"/><text fill="#000000" font-family="sans-serif" font-size="14" lengthAdjust="spacing" textLength="61.9678" x="1006.6903" y="538.5967">AuditLog</text><line style="stroke:#181818;stroke-width:0.5;" x1="934.14" x2="1108.7084" y1="549.75" y2="549.75"/><text fill="#000000" font-family="sans-serif" font-size="14" lengthAdjust="spacing" textLength="69.0771" x="939.14" y="566.7451">+id: UUID</text><text fill="#000000" font-family="sans-serif" font-size="14" lengthAdjust="spacing" textLength="99.8525" x="939.14" y="583.042">+userId: UUID</text><text fill="#000000" font-family="sans-serif" font-size="14" lengthAdjust="spacing" textLength="105.7725" x="939.14" y="599.3389">+action: String</text><text fill="#000000" font-family="sans-serif" font-size="14" lengthAdjust="spacing" textLength="123.8467" x="939.14" y="615.6357">+resource: String</text><text fill="#000000" font-family="sans-serif" font-size="14" lengthAdjust="spacing" textLength="164.5684" x="939.14" y="631.9326">+timestamp: DateTime</text><line style="stroke:#181818;stroke-width:0.5;" x1="934.14" x2="1108.7084" y1="639.2344" y2="639.2344"/><text fill="#000000" font-family="sans-serif" font-size="14" lengthAdjust="spacing" textLength="108.0352" x="939.14" y="656.2295">+recordEvent()</text><text fill="#000000" font-family="sans-serif" font-size="14" lengthAdjust="spacing" textLength="100.7959" x="939.14" y="672.5264">+exportLogs()</text></g><!--class Incident--><g class="entity" data-qualified-name="Incident" data-source-line="93" id="ent0018"><rect fill="#F1F1F1" height="194.6719" rx="2.5" ry="2.5" style="stroke:#181818;stroke-width:0.5;" width="189.9395" x="940.46" y="7"/><ellipse cx="1002.9541" cy="23" fill="#ADD1B2" rx="11" ry="11" style="stroke:#181818;stroke-width:1;"/><path d="M1005.9229,28.6406 Q1005.3448,28.9375 1004.7041,29.0781 Q1004.0635,29.2344 1003.3604,29.2344 Q1000.8604,29.2344 999.5323,27.5938 Q998.2198,25.9375 998.2198,22.8125 Q998.2198,19.6875 999.5323,18.0313 Q1000.8604,16.375 1003.3604,16.375 Q1004.0635,16.375 1004.7041,16.5313 Q1005.3604,16.6875 1005.9229,16.9844 L1005.9229,19.7031 Q1005.2979,19.125 1004.7041,18.8594 Q1004.1104,18.5781 1003.4854,18.5781 Q1002.1416,18.5781 1001.4541,19.6563 Q1000.7666,20.7188 1000.7666,22.8125 Q1000.7666,24.9063 1001.4541,25.9844 Q1002.1416,27.0469 1003.4854,27.0469 Q1004.1104,27.0469 1004.7041,26.7813 Q1005.2979,26.5 1005.9229,25.9219 L1005.9229,28.6406 Z " fill="#000000"/><text fill="#000000" font-family="sans-serif" font-size="14" lengthAdjust="spacing" textLength="56.4512" x="1023.4541" y="27.8467">Incident</text><line style="stroke:#181818;stroke-width:0.5;" x1="941.46" x2="1129.3995" y1="39" y2="39"/><text fill="#000000" font-family="sans-serif" font-size="14" lengthAdjust="spacing" textLength="69.0771" x="946.46" y="55.9951">+id: UUID</text><text fill="#000000" font-family="sans-serif" font-size="14" lengthAdjust="spacing" textLength="90.0498" x="946.46" y="72.292">+title: String</text><text fill="#000000" font-family="sans-serif" font-size="14" lengthAdjust="spacing" textLength="164.9785" x="946.46" y="88.5889">+status: IncidentStatus</text><text fill="#000000" font-family="sans-serif" font-size="14" lengthAdjust="spacing" textLength="177.9395" x="946.46" y="104.8857">+priority: IncidentPriority</text><text fill="#000000" font-family="sans-serif" font-size="14" lengthAdjust="spacing" textLength="157.7529" x="946.46" y="121.1826">+createdAt: DateTime</text><line style="stroke:#181818;stroke-width:0.5;" x1="941.46" x2="1129.3995" y1="128.4844" y2="128.4844"/><text fill="#000000" font-family="sans-serif" font-size="14" lengthAdjust="spacing" textLength="123.8535" x="946.46" y="145.4795">+createIncident()</text><text fill="#000000" font-family="sans-serif" font-size="14" lengthAdjust="spacing" textLength="99.3809" x="946.46" y="161.7764">+assignUser()</text><text fill="#000000" font-family="sans-serif" font-size="14" lengthAdjust="spacing" textLength="116.5938" x="946.46" y="178.0732">+updateStatus()</text><text fill="#000000" font-family="sans-serif" font-size="14" lengthAdjust="spacing" textLength="115.165" x="946.46" y="194.3701">+closeIncident()</text></g><!--class Asset--><g class="entity" data-qualified-name="Asset" data-source-line="106" id="ent0019"><rect fill="#F1F1F1" height="145.7813" rx="2.5" ry="2.5" style="stroke:#181818;stroke-width:0.5;" width="173.7656" x="1441.54" y="286.82"/><ellipse cx="1505.039" cy="302.82" fill="#ADD1B2" rx="11" ry="11" style="stroke:#181818;stroke-width:1;"/><path d="M1508.0078,308.4606 Q1507.4296,308.7575 1506.789,308.8981 Q1506.1484,309.0544 1505.4453,309.0544 Q1502.9453,309.0544 1501.6171,307.4138 Q1500.3046,305.7575 1500.3046,302.6325 Q1500.3046,299.5075 1501.6171,297.8513 Q1502.9453,296.195 1505.4453,296.195 Q1506.1484,296.195 1506.789,296.3513 Q1507.4453,296.5075 1508.0078,296.8044 L1508.0078,299.5231 Q1507.3828,298.945 1506.789,298.6794 Q1506.1953,298.3981 1505.5703,298.3981 Q1504.2265,298.3981 1503.539,299.4763 Q1502.8515,300.5388 1502.8515,302.6325 Q1502.8515,304.7263 1503.539,305.8044 Q1504.2265,306.8669 1505.5703,306.8669 Q1506.1953,306.8669 1506.789,306.6013 Q1507.3828,306.32 1508.0078,305.7419 L1508.0078,308.4606 Z " fill="#000000"/><text fill="#000000" font-family="sans-serif" font-size="14" lengthAdjust="spacing" textLength="38.2676" x="1525.539" y="307.6667">Asset</text><line style="stroke:#181818;stroke-width:0.5;" x1="1442.54" x2="1614.3056" y1="318.82" y2="318.82"/><text fill="#000000" font-family="sans-serif" font-size="14" lengthAdjust="spacing" textLength="69.0771" x="1447.54" y="335.8151">+id: UUID</text><text fill="#000000" font-family="sans-serif" font-size="14" lengthAdjust="spacing" textLength="102.3818" x="1447.54" y="352.112">+name: String</text><text fill="#000000" font-family="sans-serif" font-size="14" lengthAdjust="spacing" textLength="93.9531" x="1447.54" y="368.4089">+type: String</text><line style="stroke:#181818;stroke-width:0.5;" x1="1442.54" x2="1614.3056" y1="375.7106" y2="375.7106"/><text fill="#000000" font-family="sans-serif" font-size="14" lengthAdjust="spacing" textLength="115.2197" x="1447.54" y="392.7057">+registerAsset()</text><text fill="#000000" font-family="sans-serif" font-size="14" lengthAdjust="spacing" textLength="110.25" x="1447.54" y="409.0026">+updateAsset()</text><text fill="#000000" font-family="sans-serif" font-size="14" lengthAdjust="spacing" textLength="161.7656" x="1447.54" y="425.2995">+decommissionAsset()</text></g><!--class Problem--><g class="entity" data-qualified-name="Problem" data-source-line="116" id="ent0020"><rect fill="#F1F1F1" height="145.7813" rx="2.5" ry="2.5" style="stroke:#181818;stroke-width:0.5;" width="143.4619" x="1215.69" y="286.82"/><ellipse cx="1254.8419" cy="302.82" fill="#ADD1B2" rx="11" ry="11" style="stroke:#181818;stroke-width:1;"/><path d="M1257.8107,308.4606 Q1257.2325,308.7575 1256.5919,308.8981 Q1255.9513,309.0544 1255.2482,309.0544 Q1252.7482,309.0544 1251.42,307.4138 Q1250.1075,305.7575 1250.1075,302.6325 Q1250.1075,299.5075 1251.42,297.8513 Q1252.7482,296.195 1255.2482,296.195 Q1255.9513,296.195 1256.5919,296.3513 Q1257.2482,296.5075 1257.8107,296.8044 L1257.8107,299.5231 Q1257.1857,298.945 1256.5919,298.6794 Q1255.9982,298.3981 1255.3732,298.3981 Q1254.0294,298.3981 1253.3419,299.4763 Q1252.6544,300.5388 1252.6544,302.6325 Q1252.6544,304.7263 1253.3419,305.8044 Q1254.0294,306.8669 1255.3732,306.8669 Q1255.9982,306.8669 1256.5919,306.6013 Q1257.1857,306.32 1257.8107,305.7419 L1257.8107,308.4606 Z " fill="#000000"/><text fill="#000000" font-family="sans-serif" font-size="14" lengthAdjust="spacing" textLength="57.791" x="1274.209" y="307.6667">Problem</text><line style="stroke:#181818;stroke-width:0.5;" x1="1216.69" x2="1358.1519" y1="318.82" y2="318.82"/><text fill="#000000" font-family="sans-serif" font-size="14" lengthAdjust="spacing" textLength="69.0771" x="1221.69" y="335.8151">+id: UUID</text><text fill="#000000" font-family="sans-serif" font-size="14" lengthAdjust="spacing" textLength="90.0498" x="1221.69" y="352.112">+title: String</text><text fill="#000000" font-family="sans-serif" font-size="14" lengthAdjust="spacing" textLength="118.9043" x="1221.69" y="368.4089">+severity: String</text><line style="stroke:#181818;stroke-width:0.5;" x1="1216.69" x2="1358.1519" y1="375.7106" y2="375.7106"/><text fill="#000000" font-family="sans-serif" font-size="14" lengthAdjust="spacing" textLength="125.1934" x="1221.69" y="392.7057">+createProblem()</text><text fill="#000000" font-family="sans-serif" font-size="14" lengthAdjust="spacing" textLength="129.8008" x="1221.69" y="409.0026">+updateSeverity()</text><text fill="#000000" font-family="sans-serif" font-size="14" lengthAdjust="spacing" textLength="131.4619" x="1221.69" y="425.2995">+resolveProblem()</text></g><!--class Document--><g class="entity" data-qualified-name="Document" data-source-line="126" id="ent0021"><rect fill="#F1F1F1" height="145.7813" rx="2.5" ry="2.5" style="stroke:#181818;stroke-width:0.5;" width="158.877" x="1245.99" y="31.45"/><ellipse cx="1285.4464" cy="47.45" fill="#ADD1B2" rx="11" ry="11" style="stroke:#181818;stroke-width:1;"/><path d="M1288.4152,53.0906 Q1287.8371,53.3875 1287.1964,53.5281 Q1286.5558,53.6844 1285.8527,53.6844 Q1283.3527,53.6844 1282.0246,52.0438 Q1280.7121,50.3875 1280.7121,47.2625 Q1280.7121,44.1375 1282.0246,42.4813 Q1283.3527,40.825 1285.8527,40.825 Q1286.5558,40.825 1287.1964,40.9813 Q1287.8527,41.1375 1288.4152,41.4344 L1288.4152,44.1531 Q1287.7902,43.575 1287.1964,43.3094 Q1286.6027,43.0281 1285.9777,43.0281 Q1284.6339,43.0281 1283.9464,44.1063 Q1283.2589,45.1688 1283.2589,47.2625 Q1283.2589,49.3563 1283.9464,50.4344 Q1284.6339,51.4969 1285.9777,51.4969 Q1286.6027,51.4969 1287.1964,51.2313 Q1287.7902,50.95 1288.4152,50.3719 L1288.4152,53.0906 Z " fill="#000000"/><text fill="#000000" font-family="sans-serif" font-size="14" lengthAdjust="spacing" textLength="72.5293" x="1304.8812" y="52.2967">Document</text><line style="stroke:#181818;stroke-width:0.5;" x1="1246.99" x2="1403.867" y1="63.45" y2="63.45"/><text fill="#000000" font-family="sans-serif" font-size="14" lengthAdjust="spacing" textLength="69.0771" x="1251.99" y="80.4451">+id: UUID</text><text fill="#000000" font-family="sans-serif" font-size="14" lengthAdjust="spacing" textLength="90.0498" x="1251.99" y="96.742">+title: String</text><text fill="#000000" font-family="sans-serif" font-size="14" lengthAdjust="spacing" textLength="105.4375" x="1251.99" y="113.0389">+content: Text</text><line style="stroke:#181818;stroke-width:0.5;" x1="1246.99" x2="1403.867" y1="120.3406" y2="120.3406"/><text fill="#000000" font-family="sans-serif" font-size="14" lengthAdjust="spacing" textLength="139.9316" x="1251.99" y="137.3357">+createDocument()</text><text fill="#000000" font-family="sans-serif" font-size="14" lengthAdjust="spacing" textLength="144.5117" x="1251.99" y="153.6326">+updateDocument()</text><text fill="#000000" font-family="sans-serif" font-size="14" lengthAdjust="spacing" textLength="146.877" x="1251.99" y="169.9295">+archiveDocument()</text></g><!--class Relationship--><g class="entity" data-qualified-name="Relationship" data-source-line="136" id="ent0022"><rect fill="#F1F1F1" height="113.1875" rx="2.5" ry="2.5" style="stroke:#181818;stroke-width:0.5;" width="165.9727" x="1492.44" y="47.74"/><ellipse cx="1528.7711" cy="63.74" fill="#ADD1B2" rx="11" ry="11" style="stroke:#181818;stroke-width:1;"/><path d="M1531.7398,69.3806 Q1531.1617,69.6775 1530.5211,69.8181 Q1529.8804,69.9744 1529.1773,69.9744 Q1526.6773,69.9744 1525.3492,68.3338 Q1524.0367,66.6775 1524.0367,63.5525 Q1524.0367,60.4275 1525.3492,58.7713 Q1526.6773,57.115 1529.1773,57.115 Q1529.8804,57.115 1530.5211,57.2713 Q1531.1773,57.4275 1531.7398,57.7244 L1531.7398,60.4431 Q1531.1148,59.865 1530.5211,59.5994 Q1529.9273,59.3181 1529.3023,59.3181 Q1527.9586,59.3181 1527.2711,60.3963 Q1526.5836,61.4588 1526.5836,63.5525 Q1526.5836,65.6463 1527.2711,66.7244 Q1527.9586,67.7869 1529.3023,67.7869 Q1529.9273,67.7869 1530.5211,67.5213 Q1531.1148,67.24 1531.7398,66.6619 L1531.7398,69.3806 Z " fill="#000000"/><text fill="#000000" font-family="sans-serif" font-size="14" lengthAdjust="spacing" textLength="86.5703" x="1547.5113" y="68.5867">Relationship</text><line style="stroke:#181818;stroke-width:0.5;" x1="1493.44" x2="1657.4127" y1="79.74" y2="79.74"/><text fill="#000000" font-family="sans-serif" font-size="14" lengthAdjust="spacing" textLength="69.0771" x="1498.44" y="96.7351">+id: UUID</text><text fill="#000000" font-family="sans-serif" font-size="14" lengthAdjust="spacing" textLength="93.9531" x="1498.44" y="113.032">+type: String</text><line style="stroke:#181818;stroke-width:0.5;" x1="1493.44" x2="1657.4127" y1="120.3338" y2="120.3338"/><text fill="#000000" font-family="sans-serif" font-size="14" lengthAdjust="spacing" textLength="153.9727" x="1498.44" y="137.3289">+createRelationship()</text><text fill="#000000" font-family="sans-serif" font-size="14" lengthAdjust="spacing" textLength="153.3301" x="1498.44" y="153.6257">+deleteRelationship()</text></g><!--class IncidentKnowledgeFeedback--><g class="entity" data-qualified-name="IncidentKnowledgeFeedback" data-source-line="144" id="ent0023"><rect fill="#F1F1F1" height="96.8906" rx="2.5" ry="2.5" style="stroke:#181818;stroke-width:0.5;" width="232.8467" x="855" y="311.27"/><ellipse cx="870" cy="327.27" fill="#ADD1B2" rx="11" ry="11" style="stroke:#181818;stroke-width:1;"/><path d="M872.9688,332.9106 Q872.3906,333.2075 871.75,333.3481 Q871.1094,333.5044 870.4063,333.5044 Q867.9063,333.5044 866.5781,331.8638 Q865.2656,330.2075 865.2656,327.0825 Q865.2656,323.9575 866.5781,322.3013 Q867.9063,320.645 870.4063,320.645 Q871.1094,320.645 871.75,320.8013 Q872.4063,320.9575 872.9688,321.2544 L872.9688,323.9731 Q872.3438,323.395 871.75,323.1294 Q871.1563,322.8481 870.5313,322.8481 Q869.1875,322.8481 868.5,323.9263 Q867.8125,324.9888 867.8125,327.0825 Q867.8125,329.1763 868.5,330.2544 Q869.1875,331.3169 870.5313,331.3169 Q871.1563,331.3169 871.75,331.0513 Q872.3438,330.77 872.9688,330.1919 L872.9688,332.9106 Z " fill="#000000"/><text fill="#000000" font-family="sans-serif" font-size="14" lengthAdjust="spacing" textLength="200.8467" x="884" y="332.1167">IncidentKnowledgeFeedback</text><line style="stroke:#181818;stroke-width:0.5;" x1="856" x2="1086.8467" y1="343.27" y2="343.27"/><text fill="#000000" font-family="sans-serif" font-size="14" lengthAdjust="spacing" textLength="69.0771" x="861" y="360.2651">+id: UUID</text><text fill="#000000" font-family="sans-serif" font-size="14" lengthAdjust="spacing" textLength="153.4531" x="861" y="376.562">+usefulnessScore: Int</text><line style="stroke:#181818;stroke-width:0.5;" x1="856" x2="1086.8467" y1="383.8638" y2="383.8638"/><text fill="#000000" font-family="sans-serif" font-size="14" lengthAdjust="spacing" textLength="138.1611" x="861" y="400.8589">+submitFeedback()</text></g><!--link User to UserSettings--><g class="link" data-entity-1="ent0002" data-entity-2="ent0008" data-link-type="dependency" data-source-line="79" id="lnk10"><path codeLine="79" d="M748.69,440.98 C755.19,471.2 761.2265,499.2845 767.3765,527.8345" fill="none" id="User-to-UserSettings" style="stroke:#181818;stroke-width:1;"/><polygon fill="#181818" points="768.64,533.7,770.6551,524.0595,767.5871,528.8121,762.8345,525.7441,768.64,533.7" style="stroke:#181818;stroke-width:1;"/><text fill="#000000" font-family="sans-serif" font-size="13" lengthAdjust="spacing" textLength="22.9785" x="760.42" y="483.8169">has</text><text fill="#000000" font-family="sans-serif" font-size="13" lengthAdjust="spacing" textLength="8.271" x="741.8419" y="460.6814">1</text><text fill="#000000" font-family="sans-serif" font-size="13" lengthAdjust="spacing" textLength="8.271" x="758.7098" y="522.8344">1</text></g><!--link User to UserRole--><g class="link" data-entity-1="ent0002" data-entity-2="ent0005" data-link-type="dependency" data-source-line="80" id="lnk11"><path codeLine="80" d="M642.59,411.43 C582.88,445.43 513.77,484.56 506.42,487.75 C465.82,505.4 450.53,496.99 411.42,517.75 C396.31,525.78 385.9602,532.4846 372.2102,543.0946" fill="none" id="User-to-UserRole" style="stroke:#181818;stroke-width:1;"/><polygon fill="#181818" points="367.46,546.76,377.029,544.4287,371.4185,543.7055,372.1417,538.095,367.46,546.76" style="stroke:#181818;stroke-width:1;"/><text fill="#000000" font-family="sans-serif" font-size="13" lengthAdjust="spacing" textLength="93.2344" x="536.42" y="483.8169">assignedRoles</text><text fill="#000000" font-family="sans-serif" font-size="13" lengthAdjust="spacing" textLength="8.271" x="626.9136" y="412.1644">1</text><text fill="#000000" font-family="sans-serif" font-size="13" lengthAdjust="spacing" textLength="23.0356" x="374.9579" y="537.3227">0..*</text></g><!--link Role to UserRole--><g class="link" data-entity-1="ent0003" data-entity-2="ent0005" data-link-type="dependency" data-source-line="81" id="lnk12"><path codeLine="81" d="M129.13,424.81 C133.06,446.19 140.05,469.26 152.42,487.75 C165.76,507.69 208.681,536.7039 248.321,561.1139" fill="none" id="Role-to-UserRole" style="stroke:#181818;stroke-width:1;"/><polygon fill="#181818" points="253.43,564.26,247.8639,556.1348,249.1725,561.6383,243.6691,562.9469,253.43,564.26" style="stroke:#181818;stroke-width:1;"/><text fill="#000000" font-family="sans-serif" font-size="13" lengthAdjust="spacing" textLength="110.1636" x="153.42" y="483.8169">assignedToUsers</text><text fill="#000000" font-family="sans-serif" font-size="13" lengthAdjust="spacing" textLength="8.271" x="121.2172" y="444.3704">1</text><text fill="#000000" font-family="sans-serif" font-size="13" lengthAdjust="spacing" textLength="23.0356" x="222.5123" y="556.4744">0..*</text></g><!--link Role to RolePermission--><g class="link" data-entity-1="ent0003" data-entity-2="ent0006" data-link-type="dependency" data-source-line="83" id="lnk13"><path codeLine="83" d="M86.2,424.87 C79.26,439.47 73.08,455.27 69.42,470.75 C64.01,493.71 64.8806,513.5335 69.0706,535.8035" fill="none" id="Role-to-RolePermission" style="stroke:#181818;stroke-width:1;"/><polygon fill="#181818" points="70.18,541.7,72.4469,532.1156,69.2555,536.7862,64.5849,533.5948,70.18,541.7" style="stroke:#181818;stroke-width:1;"/><text fill="#000000" font-family="sans-serif" font-size="13" lengthAdjust="spacing" textLength="41.6724" x="70.42" y="483.8169">grants</text><text fill="#000000" font-family="sans-serif" font-size="13" lengthAdjust="spacing" textLength="8.271" x="73.86" y="444.4366">1</text><text fill="#000000" font-family="sans-serif" font-size="13" lengthAdjust="spacing" textLength="23.0356" x="43.9741" y="531.3059">0..*</text></g><!--link Permission to RolePermission--><g class="link" data-entity-1="ent0004" data-entity-2="ent0006" data-link-type="dependency" data-source-line="84" id="lnk14"><path codeLine="84" d="M315.44,416.77 C303.8,440.55 287.96,467.41 268.42,487.75 C239.52,517.84 205.9536,539.9669 171.5736,558.4669" fill="none" id="Permission-to-RolePermission" style="stroke:#181818;stroke-width:1;"/><polygon fill="#181818" points="166.29,561.31,176.1108,560.5677,170.693,558.9407,172.32,553.5229,166.29,561.31" style="stroke:#181818;stroke-width:1;"/><text fill="#000000" font-family="sans-serif" font-size="13" lengthAdjust="spacing" textLength="67.4248" x="282.42" y="483.8169">includedIn</text><text fill="#000000" font-family="sans-serif" font-size="13" lengthAdjust="spacing" textLength="8.271" x="304.335" y="436.3089">1</text><text fill="#000000" font-family="sans-serif" font-size="13" lengthAdjust="spacing" textLength="23.0356" x="173.8577" y="554.6572">0..*</text></g><!--link User to UserPermission--><g class="link" data-entity-1="ent0002" data-entity-2="ent0007" data-link-type="dependency" data-source-line="86" id="lnk15"><path codeLine="86" d="M678.14,441.22 C666.6,457.1 654.05,473.3 641.42,487.75 C625.2,506.31 610.5863,521.0268 592.6163,537.7168" fill="none" id="User-to-UserPermission" style="stroke:#181818;stroke-width:1;"/><polygon fill="#181818" points="588.22,541.8,597.5366,538.6061,591.8836,538.3974,592.0924,532.7444,588.22,541.8" style="stroke:#181818;stroke-width:1;"/><text fill="#000000" font-family="sans-serif" font-size="13" lengthAdjust="spacing" textLength="60.9692" x="656.42" y="483.8169">overrides</text><text fill="#000000" font-family="sans-serif" font-size="13" lengthAdjust="spacing" textLength="8.271" x="665.229" y="460.942">1</text><text fill="#000000" font-family="sans-serif" font-size="13" lengthAdjust="spacing" textLength="23.0356" x="571.7178" y="531.0148">0..*</text></g><!--link Permission to UserPermission--><g class="link" data-entity-1="ent0004" data-entity-2="ent0007" data-link-type="dependency" data-source-line="87" id="lnk16"><path codeLine="87" d="M367.48,416.76 C380.34,439.62 396.4,465.79 413.42,487.75 C427.9,506.43 441.0784,520.9663 457.7584,537.5763" fill="none" id="Permission-to-UserPermission" style="stroke:#181818;stroke-width:1;"/><polygon fill="#181818" points="462.01,541.81,458.4551,532.6251,458.467,538.2819,452.8102,538.2938,462.01,541.81" style="stroke:#181818;stroke-width:1;"/><text fill="#000000" font-family="sans-serif" font-size="13" lengthAdjust="spacing" textLength="87.2993" x="414.42" y="483.8169">overriddenBy</text><text fill="#000000" font-family="sans-serif" font-size="13" lengthAdjust="spacing" textLength="8.271" x="362.3921" y="436.2977">1</text><text fill="#000000" font-family="sans-serif" font-size="13" lengthAdjust="spacing" textLength="23.0356" x="430.1259" y="531.026">0..*</text></g><!--link User to AuditLog--><g class="link" data-entity-1="ent0002" data-entity-2="ent0009" data-link-type="dependency" data-source-line="89" id="lnk17"><path codeLine="89" d="M820.01,433.13 C855.82,462.41 892.425,492.3321 928.235,521.6121" fill="none" id="User-to-AuditLog" style="stroke:#181818;stroke-width:1;"/><polygon fill="#181818" points="932.88,525.41,928.4445,516.6164,929.0092,522.245,923.3806,522.8097,932.88,525.41" style="stroke:#181818;stroke-width:1;"/><text fill="#000000" font-family="sans-serif" font-size="13" lengthAdjust="spacing" textLength="65.6665" x="886.42" y="483.8169">generates</text><text fill="#000000" font-family="sans-serif" font-size="13" lengthAdjust="spacing" textLength="8.271" x="827.6887" y="435.6615">1</text><text fill="#000000" font-family="sans-serif" font-size="13" lengthAdjust="spacing" textLength="23.0356" x="902.2217" y="516.2897">0..*</text></g><!--link Incident to User--><g class="link" data-entity-1="ent0018" data-entity-2="ent0002" data-link-type="dependency" data-source-line="153" id="lnk24"><path codeLine="153" d="M940.23,183.71 C921.06,199.56 901.08,216.12 882.42,231.67 C862.16,248.56 845.0233,262.9297 824.5333,280.1497" fill="none" id="Incident-to-User" style="stroke:#181818;stroke-width:1;"/><polygon fill="#181818" points="819.94,284.01,829.4035,281.2818,823.7678,280.7931,824.2564,275.1574,819.94,284.01" style="stroke:#181818;stroke-width:1;"/><text fill="#000000" font-family="sans-serif" font-size="13" lengthAdjust="spacing" textLength="73.7598" x="883.42" y="244.7369">assignedTo</text><text fill="#000000" font-family="sans-serif" font-size="13" lengthAdjust="spacing" textLength="23.0356" x="909.3955" y="186.06">0..*</text><text fill="#000000" font-family="sans-serif" font-size="13" lengthAdjust="spacing" textLength="8.271" x="827.6129" y="274.1925">1</text></g><!--link Incident to Asset--><g class="link" data-entity-1="ent0018" data-entity-2="ent0019" data-link-type="dependency" data-source-line="154" id="lnk25"><path codeLine="154" d="M1130.75,175.07 C1169.75,201.08 1216.26,229.03 1261.42,248.67 C1309.86,269.74 1327.18,259.58 1376.42,278.67 C1397.97,287.03 1415.0819,294.9012 1435.8819,305.6712" fill="none" id="Incident-to-Asset" style="stroke:#181818;stroke-width:1;"/><polygon fill="#181818" points="1441.21,308.43,1435.0571,300.7397,1436.7699,306.131,1431.3786,307.8438,1441.21,308.43" style="stroke:#181818;stroke-width:1;"/><text fill="#000000" font-family="sans-serif" font-size="13" lengthAdjust="spacing" textLength="44.1353" x="1262.42" y="244.7369">affects</text><text fill="#000000" font-family="sans-serif" font-size="13" lengthAdjust="spacing" textLength="23.0356" x="1138.2621" y="176.5877">0..*</text><text fill="#000000" font-family="sans-serif" font-size="13" lengthAdjust="spacing" textLength="24.8066" x="1408.7186" y="300.4511">0..1</text></g><!--link Incident to Problem--><g class="link" data-entity-1="ent0018" data-entity-2="ent0020" data-link-type="dependency" data-source-line="155" id="lnk26"><path codeLine="155" d="M1065.5,201.83 C1073.5,218.61 1083.37,235.02 1095.42,248.67 C1127.85,285.39 1170.1488,310.323 1209.9188,328.613" fill="none" id="Incident-to-Problem" style="stroke:#181818;stroke-width:1;"/><polygon fill="#181818" points="1215.37,331.12,1208.8646,323.7255,1210.8274,329.0309,1205.522,330.9937,1215.37,331.12" style="stroke:#181818;stroke-width:1;"/><text fill="#000000" font-family="sans-serif" font-size="13" lengthAdjust="spacing" textLength="99.9312" x="1096.42" y="244.7369">relatedProblem</text><text fill="#000000" font-family="sans-serif" font-size="13" lengthAdjust="spacing" textLength="23.0356" x="1043.8651" y="221.6123">0..*</text><text fill="#000000" font-family="sans-serif" font-size="13" lengthAdjust="spacing" textLength="24.8066" x="1182.7438" y="324.4719">0..1</text></g><!--link Incident to IncidentKnowledgeFeedback--><g class="link" data-entity-1="ent0018" data-entity-2="ent0023" data-link-type="dependency" data-source-line="157" id="lnk27"><path codeLine="157" d="M978.23,202.09 C974.27,211.84 970.88,221.8 968.42,231.67 C962.03,257.36 961.7745,280.9022 963.8545,305.0222" fill="none" id="Incident-to-IncidentKnowledgeFeedback" style="stroke:#181818;stroke-width:1;"/><polygon fill="#181818" points="964.37,311,967.582,301.6896,963.9404,306.0185,959.6115,302.3769,964.37,311" style="stroke:#181818;stroke-width:1;"/><text fill="#000000" font-family="sans-serif" font-size="13" lengthAdjust="spacing" textLength="85.5981" x="969.42" y="244.7369">hasFeedback</text><text fill="#000000" font-family="sans-serif" font-size="13" lengthAdjust="spacing" textLength="8.271" x="965.7456" y="221.8914">1</text><text fill="#000000" font-family="sans-serif" font-size="13" lengthAdjust="spacing" textLength="23.0356" x="938.7634" y="300.171">0..*</text></g><!--link Document to Asset--><g class="link" data-entity-1="ent0021" data-entity-2="ent0019" data-link-type="dependency" data-source-line="159" id="lnk28"><path codeLine="159" d="M1309.1,177.47 C1307.36,201.58 1309.82,227.65 1322.42,248.67 C1323.34,250.2 1380.216,280.505 1436.016,310.015" fill="none" id="Document-to-Asset" style="stroke:#181818;stroke-width:1;"/><polygon fill="#181818" points="1441.32,312.82,1435.2341,305.0765,1436.9,310.4825,1431.4941,312.1485,1441.32,312.82" style="stroke:#181818;stroke-width:1;"/><text fill="#000000" font-family="sans-serif" font-size="13" lengthAdjust="spacing" textLength="72.3633" x="1323.42" y="244.7369">documents</text><text fill="#000000" font-family="sans-serif" font-size="13" lengthAdjust="spacing" textLength="23.0356" x="1283.4493" y="197.2282">0..*</text><text fill="#000000" font-family="sans-serif" font-size="13" lengthAdjust="spacing" textLength="24.8066" x="1408.838" y="321.5075">0..1</text></g><!--link Relationship to Asset--><g class="link" data-entity-1="ent0022" data-entity-2="ent0019" data-link-type="dependency" data-source-line="161" id="lnk29"><path codeLine="161" d="M1565.05,161.26 C1558.21,198.13 1550.2844,240.8707 1542.9044,280.6507" fill="none" id="Relationship-to-Asset" style="stroke:#181818;stroke-width:1;"/><polygon fill="#181818" points="1541.81,286.55,1547.3846,278.4306,1542.722,281.6339,1539.5188,276.9714,1541.81,286.55" style="stroke:#181818;stroke-width:1;"/><text fill="#000000" font-family="sans-serif" font-size="13" lengthAdjust="spacing" textLength="43.4561" x="1552.42" y="244.7369">source</text><text fill="#000000" font-family="sans-serif" font-size="13" lengthAdjust="spacing" textLength="23.0356" x="1539.386" y="181.1869">0..*</text><text fill="#000000" font-family="sans-serif" font-size="13" lengthAdjust="spacing" textLength="8.271" x="1534.7474" y="275.6834">1</text></g><!--link Relationship to Asset--><g class="link" data-entity-1="ent0022" data-entity-2="ent0019" data-link-type="dependency" data-source-line="162" id="lnk30"><path codeLine="162" d="M1599.61,161.14 C1607.97,187.94 1613.27,220.31 1604.42,248.67 C1600.38,261.64 1597.2766,269.2669 1590.1666,281.2769" fill="none" id="Relationship-to-Asset-1" style="stroke:#181818;stroke-width:1;"/><polygon fill="#181818" points="1587.11,286.44,1595.1369,280.7331,1589.6571,282.1374,1588.2528,276.6577,1587.11,286.44" style="stroke:#181818;stroke-width:1;"/><text fill="#000000" font-family="sans-serif" font-size="13" lengthAdjust="spacing" textLength="39.7554" x="1608.42" y="244.7369">target</text><text fill="#000000" font-family="sans-serif" font-size="13" lengthAdjust="spacing" textLength="23.0356" x="1578.158" y="181.0523">0..*</text><text fill="#000000" font-family="sans-serif" font-size="13" lengthAdjust="spacing" textLength="8.271" x="1584.3353" y="275.8148">1</text></g><!--link Relationship to Problem--><g class="link" data-entity-1="ent0022" data-entity-2="ent0020" data-link-type="dependency" data-source-line="163" id="lnk31"><path codeLine="163" d="M1511.87,161.26 C1466.81,200.9 1410.7847,250.1867 1363.9447,291.3967" fill="none" id="Relationship-to-Problem" style="stroke:#181818;stroke-width:1;"/><polygon fill="#181818" points="1359.44,295.36,1368.8393,292.4182,1363.1939,292.0573,1363.5549,286.412,1359.44,295.36" style="stroke:#181818;stroke-width:1;"/><text fill="#000000" font-family="sans-serif" font-size="13" lengthAdjust="spacing" textLength="94.25" x="1432.42" y="244.7369">contextualizes</text><text fill="#000000" font-family="sans-serif" font-size="13" lengthAdjust="spacing" textLength="23.0356" x="1479.7247" y="181.1869">0..*</text><text fill="#000000" font-family="sans-serif" font-size="13" lengthAdjust="spacing" textLength="24.8066" x="1367.2227" y="285.8093">0..1</text></g><?plantuml-src ZLR9Rjim4BthAuWSkY91UXNG0WwIeaQBrgYT3w39iKnO8WMISk8K-VSEIIsaB3lE9UBJ3DyiRqOsEo5hgcb5M4cDcLchnRgnC6TABiKBaDiiUq--kZyovo2ji0VoZimO0sC2dcNUbJmQqEHVHiXdmNFo-3Y_TyzGKL7cP8dtoi81DTe-ASr_KBEDSQQ1Mk0pcvDxV5Y92ZA7qyPk7Iz3yCD7XpGrn-U5LXjHjX3RKbd0ehqQiTSkgh-gXEEe9AqW9kTWc1Qr5Khsi2VdV06w4iRWcq2beL9xID2UR42FANTmk8HnJql1GwglSMM7F1eypQEBDRxfppveZA2Gpg6BUAzsq9wJmepZJQvolUhV9mI5fj8UryMnJDV59J3c6gSnmUNaiza0GqaCtWyUyN5W7xGM_0pf4gp5offfIXHMAWEfhDWufU5Lva7ITGbeVgUmB5HcW_PMpZ6aRLLHbF0xTeo3c3LSs5-gEDR3E1ZA4YtuYXhLQ9P4Q74iZALLFPeI3Go5_x37IGbnmNEjj6Dkm-c6-2-K8SgjgFi1zgDxzUMAN5z_y_-JskLaIyt8vlRcvjFL8CoS1D41TqUJUV1juvLoeCacxKS2pOcNdSaYx2qF8LdPSE1pcPsCFt7e57MEvPGJRiUxmpHFhm9C0YHex9mPMlAdTeZhIRfGvv89jtAFjODRk4naWPAmZSbxbwK_-x7IGcbSsiExHOkSMxe1xpo2eaBJN7hn6WvCxHOkbOcTXYam1kpRMzWUQaYMeOP260lQ-yUi4S1H-LNRZ0uU5h9MECFL9HK4xAAlKyGVoj1UacJTMdUhpwXo7zdr_FUADTLbBSGFhaNBdApWsKRitHKnVOfHpRPY7uF3ae-cVIA6SRq3O-pKrRY48_nrhDEVKZtXmYpWEm1VKxQRN7gRffJuss69-mgSA4EkfbbNmdQE5woiVZZQ4OitLx9XfYtn4Os3Bj7QVrFCETDEIJdHBXpWBH17aWxzwRBuXTgTigmNoUa0UMlYLcNSqb7odNduRbnaQgakm9us7MVlPVfi6_oPyWBcFm00?></g></svg>