<?plantuml 1.2026.1?><svg xmlns="http://www.w3.org/2000/svg" xmlns:xlink="http://www.w3.org/1999/xlink" contentStyleType="text/css" data-diagram-type="DESCRIPTION" height="1026px" preserveAspectRatio="none" style="width:710px;height:1026px;background:#FFFFFF;" version="1.1" viewBox="0 0 710 1026" width="710px" zoomAndPan="magnify"><defs/><g><!--cluster MapIT SaaS Platform--><g class="cluster" data-qualified-name="MapIT SaaS Platform" data-source-line="20" id="ent0014"><rect fill="none" height="1010" rx="2.5" ry="2.5" style="stroke:#181818;stroke-width:1;" width="218.15" x="278.43" y="7"/><text fill="#000000" font-family="sans-serif" font-size="14" font-weight="bold" lengthAdjust="spacing" textLength="165.3682" x="304.8209" y="21.9951">MapIT SaaS Platform</text></g><!--entity UC1--><g class="entity" data-qualified-name="MapIT SaaS Platform.UC1" data-source-line="23" id="ent0015"><ellipse cx="387.5013" cy="983.0003" fill="#F1F1F1" rx="78.2013" ry="18.0403" style="stroke:#181818;stroke-width:0.5;"/><text fill="#000000" font-family="sans-serif" font-size="14" lengthAdjust="spacing" textLength="126.417" x="324.2928" y="987.6487">Authenticate User</text></g><!--entity UC2--><g class="entity" data-qualified-name="MapIT SaaS Platform.UC2" data-source-line="28" id="ent0018"><ellipse cx="387.4994" cy="266.0039" fill="#F1F1F1" rx="91.5194" ry="20.7039" style="stroke:#181818;stroke-width:0.5;"/><text fill="#000000" font-family="sans-serif" font-size="14" lengthAdjust="spacing" textLength="157.1719" x="308.9134" y="270.6523">Manage Users &amp; Roles</text></g><!--entity UC3--><g class="entity" data-qualified-name="MapIT SaaS Platform.UC3" data-source-line="29" id="ent0019"><ellipse cx="387.5006" cy="342.0041" fill="#F1F1F1" rx="91.0706" ry="20.6141" style="stroke:#181818;stroke-width:0.5;"/><text fill="#000000" font-family="sans-serif" font-size="14" lengthAdjust="spacing" textLength="156.1602" x="309.4205" y="346.6526">Configure Permissions</text></g><!--entity UC4--><g class="entity" data-qualified-name="MapIT SaaS Platform.UC4" data-source-line="30" id="ent0020"><ellipse cx="387.4983" cy="413.9957" fill="#F1F1F1" rx="72.1283" ry="16.8257" style="stroke:#181818;stroke-width:0.5;"/><text fill="#000000" font-family="sans-serif" font-size="14" lengthAdjust="spacing" textLength="111.6924" x="331.6521" y="418.6441">View Audit Logs</text></g><!--entity UC5--><g class="entity" data-qualified-name="MapIT SaaS Platform.UC5" data-source-line="40" id="ent0027"><ellipse cx="387.4969" cy="552.9974" fill="#F1F1F1" rx="70.5369" ry="16.5074" style="stroke:#181818;stroke-width:0.5;"/><text fill="#000000" font-family="sans-serif" font-size="14" lengthAdjust="spacing" textLength="107.7275" x="333.6331" y="557.6458">Create Incident</text></g><!--entity UC6--><g class="entity" data-qualified-name="MapIT SaaS Platform.UC6" data-source-line="41" id="ent0028"><ellipse cx="387.5041" cy="620.9968" fill="#F1F1F1" rx="70.1341" ry="16.4268" style="stroke:#181818;stroke-width:0.5;"/><text fill="#000000" font-family="sans-serif" font-size="14" lengthAdjust="spacing" textLength="106.7158" x="334.1462" y="625.6453">Assign Incident</text></g><!--entity UC7--><g class="entity" data-qualified-name="MapIT SaaS Platform.UC7" data-source-line="42" id="ent0029"><ellipse cx="387.5035" cy="768.0047" fill="#F1F1F1" rx="93.0735" ry="21.0147" style="stroke:#181818;stroke-width:0.5;"/><text fill="#000000" font-family="sans-serif" font-size="14" lengthAdjust="spacing" textLength="160.665" x="307.171" y="772.6531">Update Incident Status</text></g><!--entity UC8--><g class="entity" data-qualified-name="MapIT SaaS Platform.UC8" data-source-line="55" id="ent0037"><ellipse cx="387.5003" cy="840.0001" fill="#F1F1F1" rx="69.7003" ry="16.3401" style="stroke:#181818;stroke-width:0.5;"/><text fill="#000000" font-family="sans-serif" font-size="14" lengthAdjust="spacing" textLength="105.6221" x="334.6893" y="844.6485">Manage Assets</text></g><!--entity UC9--><g class="entity" data-qualified-name="MapIT SaaS Platform.UC9" data-source-line="56" id="ent0038"><ellipse cx="387.4978" cy="484.0036" fill="#F1F1F1" rx="77.6678" ry="17.9336" style="stroke:#181818;stroke-width:0.5;"/><text fill="#000000" font-family="sans-serif" font-size="14" lengthAdjust="spacing" textLength="125.1455" x="324.925" y="488.652">Manage Problems</text></g><!--entity UC10--><g class="entity" data-qualified-name="MapIT SaaS Platform.UC10" data-source-line="57" id="ent0039"><ellipse cx="387.5032" cy="910.9986" fill="#F1F1F1" rx="83.9432" ry="19.1886" style="stroke:#181818;stroke-width:0.5;"/><text fill="#000000" font-family="sans-serif" font-size="14" lengthAdjust="spacing" textLength="139.8838" x="317.5613" y="915.6471">Manage Documents</text></g><!--entity UC11--><g class="entity" data-qualified-name="MapIT SaaS Platform.UC11" data-source-line="68" id="ent0046"><ellipse cx="387.4991" cy="194.9978" fill="#F1F1F1" rx="62.3391" ry="14.8678" style="stroke:#181818;stroke-width:0.5;"/><text fill="#000000" font-family="sans-serif" font-size="14" lengthAdjust="spacing" textLength="86.2832" x="344.3575" y="199.6462">Search Data</text></g><!--entity UC12--><g class="entity" data-qualified-name="MapIT SaaS Platform.UC12" data-source-line="69" id="ent0047"><ellipse cx="387.4972" cy="127.9974" fill="#F1F1F1" rx="73.1372" ry="17.0274" style="stroke:#181818;stroke-width:0.5;"/><text fill="#000000" font-family="sans-serif" font-size="14" lengthAdjust="spacing" textLength="114.1807" x="330.4069" y="132.6459">View Dashboard</text></g><!--entity UC13--><g class="entity" data-qualified-name="MapIT SaaS Platform.UC13" data-source-line="78" id="ent0052"><ellipse cx="387.505" cy="58.997" fill="#F1F1F1" rx="72.485" ry="16.897" style="stroke:#181818;stroke-width:0.5;"/><text fill="#000000" font-family="sans-serif" font-size="14" lengthAdjust="spacing" textLength="112.5742" x="331.2179" y="63.6454">Update Settings</text></g><!--entity UC14--><g class="entity" data-qualified-name="MapIT SaaS Platform.UC14" data-source-line="79" id="ent0053"><ellipse cx="387.5011" cy="692.0022" fill="#F1F1F1" rx="87.2611" ry="19.8522" style="stroke:#181818;stroke-width:0.5;"/><text fill="#000000" font-family="sans-serif" font-size="14" lengthAdjust="spacing" textLength="147.5127" x="313.7447" y="696.6506">Receive Notifications</text></g><!--entity User--><g class="entity" data-qualified-name="User" data-source-line="4" id="ent0002"><ellipse cx="21.9551" cy="312.35" fill="#F1F1F1" rx="8" ry="8" style="stroke:#181818;stroke-width:0.5;"/><path d="M21.9551,320.35 L21.9551,347.35 M8.9551,328.35 L34.9551,328.35 M21.9551,347.35 L8.9551,362.35 M21.9551,347.35 L34.9551,362.35" fill="none" style="stroke:#181818;stroke-width:0.5;"/><text fill="#000000" font-family="sans-serif" font-size="14" lengthAdjust="spacing" textLength="31.9102" x="6" y="376.8451">User</text></g><!--entity Admin--><g class="entity" data-qualified-name="Admin" data-source-line="5" id="ent0003"><ellipse cx="166.1721" cy="312.35" fill="#F1F1F1" rx="8" ry="8" style="stroke:#181818;stroke-width:0.5;"/><path d="M166.1721,320.35 L166.1721,347.35 M153.1721,328.35 L179.1721,328.35 M166.1721,347.35 L153.1721,362.35 M166.1721,347.35 L179.1721,362.35" fill="none" style="stroke:#181818;stroke-width:0.5;"/><text fill="#000000" font-family="sans-serif" font-size="14" lengthAdjust="spacing" textLength="44.8643" x="143.74" y="376.8451">Admin</text></g><!--entity Manager--><g class="entity" data-qualified-name="Manager" data-source-line="6" id="ent0004"><ellipse cx="166.1731" cy="488.35" fill="#F1F1F1" rx="8" ry="8" style="stroke:#181818;stroke-width:0.5;"/><path d="M166.1731,496.35 L166.1731,523.35 M153.1731,504.35 L179.1731,504.35 M166.1731,523.35 L153.1731,538.35 M166.1731,523.35 L179.1731,538.35" fill="none" style="stroke:#181818;stroke-width:0.5;"/><text fill="#000000" font-family="sans-serif" font-size="14" lengthAdjust="spacing" textLength="61.3662" x="135.49" y="552.8451">Manager</text></g><!--entity Operator--><g class="entity" data-qualified-name="Operator" data-source-line="7" id="ent0005"><ellipse cx="166.1725" cy="800.35" fill="#F1F1F1" rx="8" ry="8" style="stroke:#181818;stroke-width:0.5;"/><path d="M166.1725,808.35 L166.1725,835.35 M153.1725,816.35 L179.1725,816.35 M166.1725,835.35 L153.1725,850.35 M166.1725,835.35 L179.1725,850.35" fill="none" style="stroke:#181818;stroke-width:0.5;"/><text fill="#000000" font-family="sans-serif" font-size="14" lengthAdjust="spacing" textLength="62.665" x="134.84" y="864.8451">Operator</text></g><!--entity Viewer--><g class="entity" data-qualified-name="Viewer" data-source-line="8" id="ent0006"><ellipse cx="166.1697" cy="123.35" fill="#F1F1F1" rx="8" ry="8" style="stroke:#181818;stroke-width:0.5;"/><path d="M166.1697,131.35 L166.1697,158.35 M153.1697,139.35 L179.1697,139.35 M166.1697,158.35 L153.1697,173.35 M166.1697,158.35 L179.1697,173.35" fill="none" style="stroke:#181818;stroke-width:0.5;"/><text fill="#000000" font-family="sans-serif" font-size="14" lengthAdjust="spacing" textLength="47.8994" x="142.22" y="187.8451">Viewer</text></g><!--entity LDAP--><g class="entity" data-qualified-name="LDAP" data-source-line="16" id="ent0011"><ellipse cx="622.1054" cy="953.35" fill="#F1F1F1" rx="8" ry="8" style="stroke:#181818;stroke-width:0.5;"/><path d="M622.1054,961.35 L622.1054,988.35 M609.1054,969.35 L635.1054,969.35 M622.1054,988.35 L609.1054,1003.35 M622.1054,988.35 L635.1054,1003.35" fill="none" style="stroke:#181818;stroke-width:0.5;"/><text fill="#000000" font-family="sans-serif" font-size="14" lengthAdjust="spacing" textLength="163.0508" x="540.58" y="1017.8451">LDAP / Active Directory</text></g><!--entity DB--><g class="entity" data-qualified-name="DB" data-source-line="17" id="ent0012"><ellipse cx="622.0985" cy="454.35" fill="#F1F1F1" rx="8" ry="8" style="stroke:#181818;stroke-width:0.5;"/><path d="M622.0985,462.35 L622.0985,489.35 M609.0985,470.35 L635.0985,470.35 M622.0985,489.35 L609.0985,504.35 M622.0985,489.35 L635.0985,504.35" fill="none" style="stroke:#181818;stroke-width:0.5;"/><text fill="#000000" font-family="sans-serif" font-size="14" lengthAdjust="spacing" textLength="123.457" x="560.37" y="518.8451">Database System</text></g><!--entity NOTIF--><g class="entity" data-qualified-name="NOTIF" data-source-line="18" id="ent0013"><ellipse cx="166.1703" cy="671.35" fill="#F1F1F1" rx="8" ry="8" style="stroke:#181818;stroke-width:0.5;"/><path d="M166.1703,679.35 L166.1703,706.35 M153.1703,687.35 L179.1703,687.35 M166.1703,706.35 L153.1703,721.35 M166.1703,706.35 L179.1703,721.35" fill="none" style="stroke:#181818;stroke-width:0.5;"/><text fill="#000000" font-family="sans-serif" font-size="14" lengthAdjust="spacing" textLength="136.5205" x="97.91" y="735.8451">Notification Service</text></g><!--reverse link User to Admin--><g class="link" data-entity-1="ent0002" data-entity-2="ent0003" data-link-type="extension" data-source-line="10" id="lnk7"><path d="M56.17,342 C81.54,342 114.54,342 143.6,342" fill="none" id="User-backto-Admin" style="stroke:#181818;stroke-width:1;"/><polygon fill="none" points="38.17,342,56.17,348,56.17,336,38.17,342" style="stroke:#181818;stroke-width:1;"/></g><!--reverse link User to Manager--><g class="link" data-entity-1="ent0002" data-entity-2="ent0004" data-link-type="extension" data-source-line="11" id="lnk8"><path d="M49.4861,374.8381 C72.5661,403.3881 105.53,444.19 135.22,480.93" fill="none" id="User-backto-Manager" style="stroke:#181818;stroke-width:1;"/><polygon fill="none" points="38.17,360.84,44.8201,378.6101,54.1521,371.066,38.17,360.84" style="stroke:#181818;stroke-width:1;"/></g><!--reverse link User to Operator--><g class="link" data-entity-1="ent0002" data-entity-2="ent0005" data-link-type="extension" data-source-line="12" id="lnk9"><path d="M23.1923,398.5573 C24.5123,474.6273 34.57,629.67 97.91,757 C106.74,774.74 121.21,791.28 134.47,804.11" fill="none" id="User-backto-Operator" style="stroke:#181818;stroke-width:1;"/><polygon fill="none" points="22.88,380.56,17.1932,398.6614,29.1914,398.4532,22.88,380.56" style="stroke:#181818;stroke-width:1;"/></g><!--reverse link User to Viewer--><g class="link" data-entity-1="ent0002" data-entity-2="ent0006" data-link-type="extension" data-source-line="13" id="lnk10"><path d="M46.7891,297.3496 C60.8091,271.7996 74.32,249.83 97.91,220 C111.2,203.19 128.34,186.18 141.99,173.5" fill="none" id="User-backto-Viewer" style="stroke:#181818;stroke-width:1;"/><polygon fill="none" points="38.13,313.13,52.0492,300.236,41.529,294.4633,38.13,313.13" style="stroke:#181818;stroke-width:1;"/></g><!--link User to UC1--><g class="link" data-entity-1="ent0002" data-entity-2="ent0015" data-link-type="dependency" data-source-line="24" id="lnk16"><path d="M23.23,380.45 C24.79,491.24 34.79,808.16 97.91,886 C149.35,949.43 237.8487,970.9494 304.6787,978.5794" fill="none" id="User-to-UC1" style="stroke:#181818;stroke-width:1;"/><polygon fill="#181818" points="310.64,979.26,302.1518,974.2649,305.6723,978.6928,301.2444,982.2133,310.64,979.26" style="stroke:#181818;stroke-width:1;"/></g><!--link UC1 to LDAP--><g class="link" data-entity-1="ent0015" data-entity-2="ent0011" data-link-type="dependency" data-source-line="25" id="lnk17"><path d="M465.96,983 C489.88,983 510.27,983 534.41,983" fill="none" id="UC1-to-LDAP" style="stroke:#181818;stroke-width:1;"/><polygon fill="#181818" points="540.41,983,531.41,979,535.41,983,531.41,987,540.41,983" style="stroke:#181818;stroke-width:1;"/></g><!--link Admin to UC2--><g class="link" data-entity-1="ent0003" data-entity-2="ent0018" data-link-type="dependency" data-source-line="32" id="lnk21"><path d="M188.84,333.76 C209.68,325.91 242.1,313.85 270.43,304 C290.86,296.9 307.7334,291.2731 327.5034,284.8531" fill="none" id="Admin-to-UC2" style="stroke:#181818;stroke-width:1;"/><polygon fill="#181818" points="333.21,283,323.4146,281.9753,328.4545,284.5443,325.8855,289.5842,333.21,283" style="stroke:#181818;stroke-width:1;"/></g><!--link Admin to UC3--><g class="link" data-entity-1="ent0003" data-entity-2="ent0019" data-link-type="dependency" data-source-line="33" id="lnk22"><path d="M189,342 C214.03,342 250.68,342 289.95,342" fill="none" id="Admin-to-UC3" style="stroke:#181818;stroke-width:1;"/><polygon fill="#181818" points="295.95,342,286.95,338,290.95,342,286.95,346,295.95,342" style="stroke:#181818;stroke-width:1;"/></g><!--link Admin to UC4--><g class="link" data-entity-1="ent0003" data-entity-2="ent0020" data-link-type="dependency" data-source-line="34" id="lnk23"><path d="M188.78,350.44 C209.57,358.44 241.95,370.6 270.43,380 C293.06,387.47 312.6708,393.352 333.9208,399.422" fill="none" id="Admin-to-UC4" style="stroke:#181818;stroke-width:1;"/><polygon fill="#181818" points="339.69,401.07,332.1348,394.7519,334.8823,399.6967,329.9375,402.4442,339.69,401.07" style="stroke:#181818;stroke-width:1;"/></g><!--link UC2 to DB--><g class="link" data-entity-1="ent0018" data-entity-2="ent0012" data-link-type="dependency" data-source-line="35" id="lnk24"><path d="M456.78,279.89 C473.53,285.49 490.63,293.26 504.58,304 C552.95,341.25 584.6964,399.1791 603.0464,439.9291" fill="none" id="UC2-to-DB" style="stroke:#181818;stroke-width:1;"/><polygon fill="#181818" points="605.51,445.4,605.4619,435.5513,603.457,440.8409,598.1674,438.836,605.51,445.4" style="stroke:#181818;stroke-width:1;"/></g><!--link UC3 to DB--><g class="link" data-entity-1="ent0019" data-entity-2="ent0012" data-link-type="dependency" data-source-line="36" id="lnk25"><path d="M450.77,357.2 C468.78,362.95 488.04,370.48 504.58,380 C534.89,397.46 560.0081,419.4766 581.6681,441.2466" fill="none" id="UC3-to-DB" style="stroke:#181818;stroke-width:1;"/><polygon fill="#181818" points="585.9,445.5,582.3878,436.2987,582.3734,441.9555,576.7166,441.9412,585.9,445.5" style="stroke:#181818;stroke-width:1;"/></g><!--link UC4 to DB--><g class="link" data-entity-1="ent0020" data-entity-2="ent0012" data-link-type="dependency" data-source-line="37" id="lnk26"><path d="M433.08,427.41 C469.09,438.25 514.4047,451.8905 554.2347,463.8805" fill="none" id="UC4-to-DB" style="stroke:#181818;stroke-width:1;"/><polygon fill="#181818" points="559.98,465.61,552.515,459.1855,555.1922,464.1687,550.209,466.8459,559.98,465.61" style="stroke:#181818;stroke-width:1;"/></g><!--link Manager to UC5--><g class="link" data-entity-1="ent0004" data-entity-2="ent0027" data-link-type="dependency" data-source-line="44" id="lnk30"><path d="M197.21,522.79 C230.88,528.17 280.3549,536.0649 322.5449,542.7949" fill="none" id="Manager-to-UC5" style="stroke:#181818;stroke-width:1;"/><polygon fill="#181818" points="328.47,543.74,320.2125,538.3722,323.5324,542.9524,318.9523,546.2723,328.47,543.74" style="stroke:#181818;stroke-width:1;"/></g><!--link Manager to UC6--><g class="link" data-entity-1="ent0004" data-entity-2="ent0028" data-link-type="dependency" data-source-line="45" id="lnk31"><path d="M197.34,541.74 C217.19,556.44 244.25,574.77 270.43,587 C290.98,596.6 309.052,602.6061 329.782,608.1261" fill="none" id="Manager-to-UC6" style="stroke:#181818;stroke-width:1;"/><polygon fill="#181818" points="335.58,609.67,327.9123,603.4889,330.7484,608.3834,325.8538,611.2195,335.58,609.67" style="stroke:#181818;stroke-width:1;"/></g><!--link Operator to UC7--><g class="link" data-entity-1="ent0005" data-entity-2="ent0029" data-link-type="dependency" data-source-line="46" id="lnk32"><path d="M197.67,821.38 C231.33,811.86 280.5361,797.9516 322.5061,786.0916" fill="none" id="Operator-to-UC7" style="stroke:#181818;stroke-width:1;"/><polygon fill="#181818" points="328.28,784.46,318.5314,783.0581,323.4684,785.8197,320.7069,790.7567,328.28,784.46" style="stroke:#181818;stroke-width:1;"/></g><!--link UC5 to DB--><g class="link" data-entity-1="ent0027" data-entity-2="ent0012" data-link-type="dependency" data-source-line="48" id="lnk33"><path d="M433.17,539.99 C454.75,533.69 481.02,525.99 504.58,519 C522.6,513.65 536.433,509.5138 554.303,504.1538" fill="none" id="UC5-to-DB" style="stroke:#181818;stroke-width:1;"/><polygon fill="#181818" points="560.05,502.43,550.2802,501.1843,555.2608,503.8665,552.5786,508.8471,560.05,502.43" style="stroke:#181818;stroke-width:1;"/></g><!--link UC6 to DB--><g class="link" data-entity-1="ent0028" data-entity-2="ent0012" data-link-type="dependency" data-source-line="49" id="lnk34"><path d="M442.45,610.44 C462.72,605.14 485.46,597.55 504.58,587 C535.07,570.17 560.1823,548.3875 581.8023,526.7175" fill="none" id="UC6-to-DB" style="stroke:#181818;stroke-width:1;"/><polygon fill="#181818" points="586.04,522.47,576.8517,526.0161,582.5086,526.0096,582.5151,531.6665,586.04,522.47" style="stroke:#181818;stroke-width:1;"/></g><!--link UC7 to DB--><g class="link" data-entity-1="ent0029" data-entity-2="ent0012" data-link-type="dependency" data-source-line="50" id="lnk35"><path d="M459.01,754.26 C475.34,748.52 491.69,740.43 504.58,729 C567.48,673.22 597.8556,581.9286 611.3656,528.2486" fill="none" id="UC7-to-DB" style="stroke:#181818;stroke-width:1;"/><polygon fill="#181818" points="612.83,522.43,606.7544,530.1816,611.6097,527.2788,614.5124,532.1341,612.83,522.43" style="stroke:#181818;stroke-width:1;"/></g><!--link UC7 to NOTIF--><g class="link" data-entity-1="ent0029" data-entity-2="ent0013" data-link-type="dependency" data-source-line="52" id="lnk36"><path d="M330.91,751.02 C301.67,742.09 271.3483,732.8227 240.5083,723.4027" fill="none" id="UC7-to-NOTIF" style="stroke:#181818;stroke-width:1;"/><polygon fill="#181818" points="234.77,721.65,242.2089,728.1046,239.5519,723.1106,244.5459,720.4536,234.77,721.65" style="stroke:#181818;stroke-width:1;"/></g><!--link Operator to UC8--><g class="link" data-entity-1="ent0005" data-entity-2="ent0037" data-link-type="dependency" data-source-line="59" id="lnk40"><path d="M197.67,831.39 C228.86,832.81 272.3563,834.7961 312.8463,836.6461" fill="none" id="Operator-to-UC8" style="stroke:#181818;stroke-width:1;"/><polygon fill="#181818" points="318.84,836.92,310.032,832.5134,313.8452,836.6918,309.6668,840.505,318.84,836.92" style="stroke:#181818;stroke-width:1;"/></g><!--link Manager to UC9--><g class="link" data-entity-1="ent0004" data-entity-2="ent0038" data-link-type="dependency" data-source-line="60" id="lnk41"><path d="M197.21,513.34 C229.24,508.38 275.0008,501.2893 316.2808,494.8893" fill="none" id="Manager-to-UC9" style="stroke:#181818;stroke-width:1;"/><polygon fill="#181818" points="322.21,493.97,312.7034,491.3961,317.269,494.736,313.9291,499.3017,322.21,493.97" style="stroke:#181818;stroke-width:1;"/></g><!--link Operator to UC10--><g class="link" data-entity-1="ent0005" data-entity-2="ent0039" data-link-type="dependency" data-source-line="61" id="lnk42"><path d="M197.59,843.86 C218,852.93 245.59,864.77 270.43,874 C291.25,881.73 308.7913,887.5662 328.9913,893.8562" fill="none" id="Operator-to-UC10" style="stroke:#181818;stroke-width:1;"/><polygon fill="#181818" points="334.72,895.64,327.3162,889.1451,329.9461,894.1535,324.9377,896.7834,334.72,895.64" style="stroke:#181818;stroke-width:1;"/></g><!--link UC8 to DB--><g class="link" data-entity-1="ent0037" data-entity-2="ent0012" data-link-type="dependency" data-source-line="63" id="lnk43"><path d="M451.52,833.3 C470.5,828.54 490.1,820.51 504.58,807 C587.18,729.93 610.7229,595.9382 617.7029,528.4282" fill="none" id="UC8-to-DB" style="stroke:#181818;stroke-width:1;"/><polygon fill="#181818" points="618.32,522.46,613.4156,531.0009,617.8058,527.4335,621.3732,531.8237,618.32,522.46" style="stroke:#181818;stroke-width:1;"/></g><!--link UC9 to DB--><g class="link" data-entity-1="ent0038" data-entity-2="ent0012" data-link-type="dependency" data-source-line="64" id="lnk44"><path d="M465.63,484 C496.31,484 525.11,484 554,484" fill="none" id="UC9-to-DB" style="stroke:#181818;stroke-width:1;"/><polygon fill="#181818" points="560,484,551,480,555,484,551,488,560,484" style="stroke:#181818;stroke-width:1;"/></g><!--link UC10 to DB--><g class="link" data-entity-1="ent0039" data-entity-2="ent0012" data-link-type="dependency" data-source-line="65" id="lnk45"><path d="M458.43,900.5 C475.35,895.02 492.13,886.68 504.58,874 C601.37,775.42 618.0794,605.9566 620.6694,528.5266" fill="none" id="UC10-to-DB" style="stroke:#181818;stroke-width:1;"/><polygon fill="#181818" points="620.87,522.53,616.5714,531.3912,620.7028,527.5272,624.5669,531.6587,620.87,522.53" style="stroke:#181818;stroke-width:1;"/></g><!--link User to UC11--><g class="link" data-entity-1="ent0002" data-entity-2="ent0046" data-link-type="dependency" data-source-line="71" id="lnk48"><path d="M38.34,328.19 C52.84,315.76 75.61,297.69 97.91,286 C177.59,244.22 273.9514,218.905 332.9014,205.875" fill="none" id="User-to-UC11" style="stroke:#181818;stroke-width:1;"/><polygon fill="#181818" points="338.76,204.58,329.1088,202.6167,333.8778,205.6591,330.8354,210.4282,338.76,204.58" style="stroke:#181818;stroke-width:1;"/></g><!--link Viewer to UC12--><g class="link" data-entity-1="ent0006" data-entity-2="ent0047" data-link-type="dependency" data-source-line="72" id="lnk49"><path d="M190.23,150.37 C221.02,146.86 270.8785,141.1788 315.1385,136.1388" fill="none" id="Viewer-to-UC12" style="stroke:#181818;stroke-width:1;"/><polygon fill="#181818" points="321.1,135.46,311.7052,132.504,316.1321,136.0257,312.6104,140.4526,321.1,135.46" style="stroke:#181818;stroke-width:1;"/></g><!--link UC11 to DB--><g class="link" data-entity-1="ent0046" data-entity-2="ent0012" data-link-type="dependency" data-source-line="74" id="lnk50"><path d="M445.2,201.06 C465.8,205.68 488.06,213.79 504.58,228 C571.59,285.63 600.8221,383.8755 612.9421,439.9355" fill="none" id="UC11-to-DB" style="stroke:#181818;stroke-width:1;"/><polygon fill="#181818" points="614.21,445.8,616.2178,436.158,613.1534,440.9129,608.3985,437.8485,614.21,445.8" style="stroke:#181818;stroke-width:1;"/></g><!--link UC12 to DB--><g class="link" data-entity-1="ent0047" data-entity-2="ent0012" data-link-type="dependency" data-source-line="75" id="lnk51"><path d="M452.46,136.14 C471.15,141.25 490.36,149.55 504.58,163 C585.97,240.01 610.0458,372.3058 617.4058,439.4058" fill="none" id="UC12-to-DB" style="stroke:#181818;stroke-width:1;"/><polygon fill="#181818" points="618.06,445.37,621.0549,435.9875,617.5148,440.3998,613.1025,436.8598,618.06,445.37" style="stroke:#181818;stroke-width:1;"/></g><!--link User to UC13--><g class="link" data-entity-1="ent0002" data-entity-2="ent0052" data-link-type="dependency" data-source-line="81" id="lnk54"><path d="M22.69,303.72 C24.57,248.84 36.8,148.73 97.91,97 C161.36,43.29 256.4614,42.3068 320.6014,48.8968" fill="none" id="User-to-UC13" style="stroke:#181818;stroke-width:1;"/><polygon fill="#181818" points="326.57,49.51,318.026,44.6111,321.5962,48.999,317.2083,52.5692,326.57,49.51" style="stroke:#181818;stroke-width:1;"/></g><!--link NOTIF to UC14--><g class="link" data-entity-1="ent0013" data-entity-2="ent0053" data-link-type="dependency" data-source-line="82" id="lnk55"><path d="M234.77,698.23 C255.79,697.36 273.245,696.6446 295.305,695.7446" fill="none" id="NOTIF-to-UC14" style="stroke:#181818;stroke-width:1;"/><polygon fill="#181818" points="301.3,695.5,292.1444,691.8702,296.3042,695.7038,292.4705,699.8636,301.3,695.5" style="stroke:#181818;stroke-width:1;"/></g><?plantuml-src PLJRZjem47ttLupseTi-e2wNlI2rbIXHLQIzeCtITvCCmHA9aMssGct_lHx74qpWoMVEcV6PyOGTRXmu3KPLMmUbCbWufHiXhk4h_M1fL2tD4MQ5qmP-AZJI5DjZomePeYkB9XvdPQsQU7wIZQmwvcNlK_qXmbyAVtjEK2vy-JiOnDGJvlHJf2jn2d4PjfjZePkoCspFV5uzPhCbV2PAlIDaeLjjZbSWBH37kamwkPOM8JzQXtNWi-_CFckdDggGD2X_eNbN1GR9yylRueSGL5KsrGxXwadk5s-GIvd3SYVTHXjVx8yG0DSmExWjDYuMyg6FIGJ3K3zHrTLywCdGyc3mZU5y651mtPOBu_DLshc510iVu5NlqCP28-Bdkjcewc0GbcXgPQs_dGLZ4j1ClRjIENZK5LCJkYPS4csCUdZSmvDWSnIG7nw1SGec38BzHLEeqZSVdxtsns3M80s3sUZbDapBEw-QFdL7r6fVfbcGE-aEtCWzNHYNArgzlOXG6Lwt60fvNflsS9U2-wGXHd4bg4DQgbvtyQby9-ZOtaD2B8rUxx1cQffGcIuEL8QvuOsujFnmqTVqKjHcUd7QopG5mvkpfygH_WByQcNIRjTQcf9ynIXroPQ6tJPrIgP6ehVJf6q_Pewq4i-SMHdrh3YdciecZyuXlYciz2iMI9zy-kbsYadV2wM4X-E0L_mJ_m40?></g></svg>