<svg xmlns="http://www.w3.org/2000/svg" xmlns:xlink="http://www.w3.org/1999/xlink" contentStyleType="text/css" data-diagram-type="DESCRIPTION" height="1035px" preserveAspectRatio="none" style="width:644px;height:1035px;background:#FFFFFF;" version="1.1" viewBox="0 0 644 1035" width="644px" zoomAndPan="magnify"><?plantuml 1.2026.4beta2?><defs/><g><!--cluster MapIT SaaS Platform--><g class="cluster" data-qualified-name="MapIT SaaS Platform" data-source-line="20" id="ent0014"><rect fill="none" height="1011" rx="2.5" ry="2.5" style="stroke:#181818;stroke-width:1;" width="218.14" x="204.58" y="7"/><text fill="#000000" font-family="sans-serif" font-size="14" font-weight="700" lengthAdjust="spacing" textLength="165.3682" x="230.9659" y="21.9951">MapIT SaaS Platform</text></g><!--entity UC1--><g class="entity" data-qualified-name="MapIT SaaS Platform.UC1" data-source-line="23" id="ent0015"><ellipse cx="313.6513" cy="984.0003" fill="#F1F1F1" rx="78.2013" ry="18.0403" style="stroke:#181818;stroke-width:0.5;"/><text fill="#000000" font-family="sans-serif" font-size="14" lengthAdjust="spacing" textLength="126.417" x="250.4428" y="988.6487">Authenticate User</text></g><!--entity UC2--><g class="entity" data-qualified-name="MapIT SaaS Platform.UC2" data-source-line="27" id="ent0017"><ellipse cx="313.6494" cy="342.0039" fill="#F1F1F1" rx="91.5194" ry="20.7039" style="stroke:#181818;stroke-width:0.5;"/><text fill="#000000" font-family="sans-serif" font-size="14" lengthAdjust="spacing" textLength="157.1719" x="235.0634" y="346.6523">Manage Users &amp; Roles</text></g><!--entity UC3--><g class="entity" data-qualified-name="MapIT SaaS Platform.UC3" data-source-line="28" id="ent0018"><ellipse cx="313.6506" cy="266.0041" fill="#F1F1F1" rx="91.0706" ry="20.6141" style="stroke:#181818;stroke-width:0.5;"/><text fill="#000000" font-family="sans-serif" font-size="14" lengthAdjust="spacing" textLength="156.1602" x="235.5705" y="270.6526">Configure Permissions</text></g><!--entity UC4--><g class="entity" data-qualified-name="MapIT SaaS Platform.UC4" data-source-line="29" id="ent0019"><ellipse cx="313.6483" cy="414.9957" fill="#F1F1F1" rx="72.1283" ry="16.8257" style="stroke:#181818;stroke-width:0.5;"/><text fill="#000000" font-family="sans-serif" font-size="14" lengthAdjust="spacing" textLength="111.6924" x="257.8021" y="419.6441">View Audit Logs</text></g><!--entity UC5--><g class="entity" data-qualified-name="MapIT SaaS Platform.UC5" data-source-line="36" id="ent0023"><ellipse cx="313.6469" cy="550.9974" fill="#F1F1F1" rx="70.5369" ry="16.5074" style="stroke:#181818;stroke-width:0.5;"/><text fill="#000000" font-family="sans-serif" font-size="14" lengthAdjust="spacing" textLength="107.7275" x="259.7831" y="555.6458">Create Incident</text></g><!--entity UC6--><g class="entity" data-qualified-name="MapIT SaaS Platform.UC6" data-source-line="37" id="ent0024"><ellipse cx="313.6541" cy="482.9968" fill="#F1F1F1" rx="70.1341" ry="16.4268" style="stroke:#181818;stroke-width:0.5;"/><text fill="#000000" font-family="sans-serif" font-size="14" lengthAdjust="spacing" textLength="106.7158" x="260.2962" y="487.6453">Assign Incident</text></g><!--entity UC7--><g class="entity" data-qualified-name="MapIT SaaS Platform.UC7" data-source-line="38" id="ent0025"><ellipse cx="313.6535" cy="835.0047" fill="#F1F1F1" rx="93.0735" ry="21.0147" style="stroke:#181818;stroke-width:0.5;"/><text fill="#000000" font-family="sans-serif" font-size="14" lengthAdjust="spacing" textLength="160.665" x="233.321" y="839.6531">Update Incident Status</text></g><!--entity UC8--><g class="entity" data-qualified-name="MapIT SaaS Platform.UC8" data-source-line="45" id="ent0029"><ellipse cx="313.6503" cy="763.0001" fill="#F1F1F1" rx="69.7003" ry="16.3401" style="stroke:#181818;stroke-width:0.5;"/><text fill="#000000" font-family="sans-serif" font-size="14" lengthAdjust="spacing" textLength="105.6221" x="260.8393" y="767.6485">Manage Assets</text></g><!--entity UC9--><g class="entity" data-qualified-name="MapIT SaaS Platform.UC9" data-source-line="46" id="ent0030"><ellipse cx="313.6478" cy="620.0036" fill="#F1F1F1" rx="77.6678" ry="17.9336" style="stroke:#181818;stroke-width:0.5;"/><text fill="#000000" font-family="sans-serif" font-size="14" lengthAdjust="spacing" textLength="125.1455" x="251.075" y="624.652">Manage Problems</text></g><!--entity UC10--><g class="entity" data-qualified-name="MapIT SaaS Platform.UC10" data-source-line="47" id="ent0031"><ellipse cx="313.6532" cy="691.9986" fill="#F1F1F1" rx="83.9432" ry="19.1886" style="stroke:#181818;stroke-width:0.5;"/><text fill="#000000" font-family="sans-serif" font-size="14" lengthAdjust="spacing" textLength="139.8838" x="243.7113" y="696.6471">Manage Documents</text></g><!--entity UC11--><g class="entity" data-qualified-name="MapIT SaaS Platform.UC11" data-source-line="54" id="ent0035"><ellipse cx="313.6491" cy="125.9978" fill="#F1F1F1" rx="62.3391" ry="14.8678" style="stroke:#181818;stroke-width:0.5;"/><text fill="#000000" font-family="sans-serif" font-size="14" lengthAdjust="spacing" textLength="86.2832" x="270.5075" y="130.6462">Search Data</text></g><!--entity UC12--><g class="entity" data-qualified-name="MapIT SaaS Platform.UC12" data-source-line="55" id="ent0036"><ellipse cx="313.6472" cy="58.9974" fill="#F1F1F1" rx="73.1372" ry="17.0274" style="stroke:#181818;stroke-width:0.5;"/><text fill="#000000" font-family="sans-serif" font-size="14" lengthAdjust="spacing" textLength="114.1807" x="256.5569" y="63.6459">View Dashboard</text></g><!--entity UC13--><g class="entity" data-qualified-name="MapIT SaaS Platform.UC13" data-source-line="61" id="ent0039"><ellipse cx="313.655" cy="192.997" fill="#F1F1F1" rx="72.485" ry="16.897" style="stroke:#181818;stroke-width:0.5;"/><text fill="#000000" font-family="sans-serif" font-size="14" lengthAdjust="spacing" textLength="112.5742" x="257.3679" y="197.6454">Update Settings</text></g><!--entity UC14--><g class="entity" data-qualified-name="MapIT SaaS Platform.UC14" data-source-line="62" id="ent0040"><ellipse cx="313.6511" cy="911.0022" fill="#F1F1F1" rx="87.2611" ry="19.8522" style="stroke:#181818;stroke-width:0.5;"/><text fill="#000000" font-family="sans-serif" font-size="14" lengthAdjust="spacing" textLength="147.5127" x="239.8947" y="915.6506">Receive Notifications</text></g><!--entity User--><g class="entity" data-qualified-name="User" data-source-line="4" id="ent0002"><ellipse cx="21.9551" cy="438.35" fill="#F1F1F1" rx="8" ry="8" style="stroke:#181818;stroke-width:0.5;"/><path d="M21.9551,446.35 L21.9551,473.35 M8.9551,454.35 L34.9551,454.35 M21.9551,473.35 L8.9551,488.35 M21.9551,473.35 L34.9551,488.35" fill="none" style="stroke:#181818;stroke-width:0.5;"/><text fill="#000000" font-family="sans-serif" font-size="14" lengthAdjust="spacing" textLength="31.9102" x="6" y="502.8451">User</text></g><!--entity Admin--><g class="entity" data-qualified-name="Admin" data-source-line="5" id="ent0003"><ellipse cx="129.2421" cy="379.35" fill="#F1F1F1" rx="8" ry="8" style="stroke:#181818;stroke-width:0.5;"/><path d="M129.2421,387.35 L129.2421,414.35 M116.2421,395.35 L142.2421,395.35 M129.2421,414.35 L116.2421,429.35 M129.2421,414.35 L142.2421,429.35" fill="none" style="stroke:#181818;stroke-width:0.5;"/><text fill="#000000" font-family="sans-serif" font-size="14" lengthAdjust="spacing" textLength="44.8643" x="106.81" y="443.8451">Admin</text></g><!--entity Manager--><g class="entity" data-qualified-name="Manager" data-source-line="6" id="ent0004"><ellipse cx="129.2431" cy="506.35" fill="#F1F1F1" rx="8" ry="8" style="stroke:#181818;stroke-width:0.5;"/><path d="M129.2431,514.35 L129.2431,541.35 M116.2431,522.35 L142.2431,522.35 M129.2431,541.35 L116.2431,556.35 M129.2431,541.35 L142.2431,556.35" fill="none" style="stroke:#181818;stroke-width:0.5;"/><text fill="#000000" font-family="sans-serif" font-size="14" lengthAdjust="spacing" textLength="61.3662" x="98.56" y="570.8451">Manager</text></g><!--entity Operator--><g class="entity" data-qualified-name="Operator" data-source-line="7" id="ent0005"><ellipse cx="129.2425" cy="678.35" fill="#F1F1F1" rx="8" ry="8" style="stroke:#181818;stroke-width:0.5;"/><path d="M129.2425,686.35 L129.2425,713.35 M116.2425,694.35 L142.2425,694.35 M129.2425,713.35 L116.2425,728.35 M129.2425,713.35 L142.2425,728.35" fill="none" style="stroke:#181818;stroke-width:0.5;"/><text fill="#000000" font-family="sans-serif" font-size="14" lengthAdjust="spacing" textLength="62.665" x="97.91" y="742.8451">Operator</text></g><!--entity Viewer--><g class="entity" data-qualified-name="Viewer" data-source-line="8" id="ent0006"><ellipse cx="129.2397" cy="36.35" fill="#F1F1F1" rx="8" ry="8" style="stroke:#181818;stroke-width:0.5;"/><path d="M129.2397,44.35 L129.2397,71.35 M116.2397,52.35 L142.2397,52.35 M129.2397,71.35 L116.2397,86.35 M129.2397,71.35 L142.2397,86.35" fill="none" style="stroke:#181818;stroke-width:0.5;"/><text fill="#000000" font-family="sans-serif" font-size="14" lengthAdjust="spacing" textLength="47.8994" x="105.29" y="100.8451">Viewer</text></g><!--entity LDAP--><g class="entity" data-qualified-name="LDAP" data-source-line="16" id="ent0011"><ellipse cx="548.2454" cy="954.35" fill="#F1F1F1" rx="8" ry="8" style="stroke:#181818;stroke-width:0.5;"/><path d="M548.2454,962.35 L548.2454,989.35 M535.2454,970.35 L561.2454,970.35 M548.2454,989.35 L535.2454,1004.35 M548.2454,989.35 L561.2454,1004.35" fill="none" style="stroke:#181818;stroke-width:0.5;"/><text fill="#000000" font-family="sans-serif" font-size="14" lengthAdjust="spacing" textLength="163.0508" x="466.72" y="1018.8451">LDAP / Active Directory</text></g><!--entity NOTIF--><g class="entity" data-qualified-name="NOTIF" data-source-line="17" id="ent0012"><ellipse cx="548.2503" cy="824.35" fill="#F1F1F1" rx="8" ry="8" style="stroke:#181818;stroke-width:0.5;"/><path d="M548.2503,832.35 L548.2503,859.35 M535.2503,840.35 L561.2503,840.35 M548.2503,859.35 L535.2503,874.35 M548.2503,859.35 L561.2503,874.35" fill="none" style="stroke:#181818;stroke-width:0.5;"/><text fill="#000000" font-family="sans-serif" font-size="14" lengthAdjust="spacing" textLength="136.5205" x="479.99" y="888.8451">Notification Service</text></g><!--entity DB--><g class="entity" data-qualified-name="DB" data-source-line="18" id="ent0013"><ellipse cx="548.2485" cy="419.35" fill="#F1F1F1" rx="8" ry="8" style="stroke:#181818;stroke-width:0.5;"/><path d="M548.2485,427.35 L548.2485,454.35 M535.2485,435.35 L561.2485,435.35 M548.2485,454.35 L535.2485,469.35 M548.2485,454.35 L561.2485,469.35" fill="none" style="stroke:#181818;stroke-width:0.5;"/><text fill="#000000" font-family="sans-serif" font-size="14" lengthAdjust="spacing" textLength="123.457" x="486.52" y="483.8451">Database System</text></g><!--reverse link User to Admin--><g class="link" data-entity-1="ent0002" data-entity-2="ent0003" data-link-type="extension" data-source-line="10" id="lnk7"><path d="M53.7426,450.7506 C71.7126,440.6806 86.16,432.58 106.61,421.12" fill="none" id="User-backto-Admin" style="stroke:#181818;stroke-width:1;"/><polygon fill="none" points="38.04,459.55,56.6757,455.9848,50.8094,445.5164,38.04,459.55" style="stroke:#181818;stroke-width:1;"/></g><!--reverse link User to Manager--><g class="link" data-entity-1="ent0002" data-entity-2="ent0004" data-link-type="extension" data-source-line="11" id="lnk8"><path d="M53.1577,487.5101 C68.8477,497.6501 78.72,504.02 98.42,516.74" fill="none" id="User-backto-Manager" style="stroke:#181818;stroke-width:1;"/><polygon fill="none" points="38.04,477.74,49.901,492.5494,56.4144,482.4709,38.04,477.74" style="stroke:#181818;stroke-width:1;"/></g><!--reverse link User to Operator--><g class="link" data-entity-1="ent0002" data-entity-2="ent0005" data-link-type="extension" data-source-line="12" id="lnk9"><path d="M45.6101,519.6441 C65.0801,564.0341 91.25,623.68 111.38,669.57" fill="none" id="User-backto-Operator" style="stroke:#181818;stroke-width:1;"/><polygon fill="none" points="38.38,503.16,40.1154,522.0541,51.1048,517.2341,38.38,503.16" style="stroke:#181818;stroke-width:1;"/></g><!--reverse link User to Viewer--><g class="link" data-entity-1="ent0002" data-entity-2="ent0006" data-link-type="extension" data-source-line="13" id="lnk10"><path d="M33.3866,411.6857 C45.0066,350.4657 66.65,245.38 97.91,144 C101.93,130.95 107.09,116.97 112.01,104.49" fill="none" id="User-backto-Viewer" style="stroke:#181818;stroke-width:1;"/><polygon fill="none" points="30.03,429.37,39.2814,412.8046,27.4918,410.5669,30.03,429.37" style="stroke:#181818;stroke-width:1;"/></g><!--link User to UC1--><g class="link" data-entity-1="ent0002" data-entity-2="ent0015" data-link-type="dependency" data-source-line="24" id="lnk16"><path d="M22.78,506.6 C24.04,579.34 34.47,739.74 97.91,855 C126.97,907.79 144.53,917.62 196.58,948 C214.43,958.42 229.8631,964.4838 249.2231,970.0438" fill="none" id="User-to-UC1" style="stroke:#181818;stroke-width:1;"/><polygon fill="#181818" points="254.99,971.7,247.4438,965.3711,250.1843,970.3198,245.2355,973.0603,254.99,971.7" style="stroke:#181818;stroke-width:1;"/></g><!--link Admin to UC2--><g class="link" data-entity-1="ent0003" data-entity-2="ent0017" data-link-type="dependency" data-source-line="31" id="lnk20"><path d="M151.89,399.38 C164.77,393.77 181.49,386.71 196.58,381 C216.86,373.33 233.703,367.4527 253.493,360.9127" fill="none" id="Admin-to-UC2" style="stroke:#181818;stroke-width:1;"/><polygon fill="#181818" points="259.19,359.03,249.3894,358.056,254.4425,360.5989,251.8997,365.652,259.19,359.03" style="stroke:#181818;stroke-width:1;"/></g><!--link Admin to UC3--><g class="link" data-entity-1="ent0003" data-entity-2="ent0018" data-link-type="dependency" data-source-line="32" id="lnk21"><path d="M146.43,370.51 C157.57,348.24 174.38,321.29 196.58,304 C210.54,293.12 222.0565,287.1833 238.8965,281.5833" fill="none" id="Admin-to-UC3" style="stroke:#181818;stroke-width:1;"/><polygon fill="#181818" points="244.59,279.69,234.7876,278.7343,239.8455,281.2678,237.312,286.3256,244.59,279.69" style="stroke:#181818;stroke-width:1;"/></g><!--link Admin to UC4--><g class="link" data-entity-1="ent0003" data-entity-2="ent0019" data-link-type="dependency" data-source-line="33" id="lnk22"><path d="M151.88,409.71 C174.06,410.44 203.7532,411.424 235.8732,412.474" fill="none" id="Admin-to-UC4" style="stroke:#181818;stroke-width:1;"/><polygon fill="#181818" points="241.87,412.67,233.0055,408.3781,236.8727,412.5066,232.7441,416.3738,241.87,412.67" style="stroke:#181818;stroke-width:1;"/></g><!--link Manager to UC5--><g class="link" data-entity-1="ent0004" data-entity-2="ent0023" data-link-type="dependency" data-source-line="40" id="lnk26"><path d="M160.36,538.48 C183.74,540.4 211.0401,542.6493 240.5301,545.0693" fill="none" id="Manager-to-UC5" style="stroke:#181818;stroke-width:1;"/><polygon fill="#181818" points="246.51,545.56,237.8673,540.8373,241.5268,545.1511,237.213,548.8105,246.51,545.56" style="stroke:#181818;stroke-width:1;"/></g><!--link Manager to UC6--><g class="link" data-entity-1="ent0004" data-entity-2="ent0024" data-link-type="dependency" data-source-line="41" id="lnk27"><path d="M160.36,527.25 C189.71,518.72 228.9085,507.3349 262.3785,497.6049" fill="none" id="Manager-to-UC6" style="stroke:#181818;stroke-width:1;"/><polygon fill="#181818" points="268.14,495.93,258.3812,494.6014,263.3388,497.3258,260.6144,502.2834,268.14,495.93" style="stroke:#181818;stroke-width:1;"/></g><!--link Operator to UC7--><g class="link" data-entity-1="ent0005" data-entity-2="ent0025" data-link-type="dependency" data-source-line="42" id="lnk28"><path d="M151.48,746.58 C162.84,764.12 178.27,783.84 196.58,797 C210.86,807.27 222.3986,812.9806 239.1486,818.5706" fill="none" id="Operator-to-UC7" style="stroke:#181818;stroke-width:1;"/><polygon fill="#181818" points="244.84,820.47,237.5691,813.8266,240.0972,818.8872,235.0366,821.4152,244.84,820.47" style="stroke:#181818;stroke-width:1;"/></g><!--link Operator to UC8--><g class="link" data-entity-1="ent0005" data-entity-2="ent0029" data-link-type="dependency" data-source-line="49" id="lnk32"><path d="M160.91,717.86 C172.12,721.42 184.9,725.44 196.58,729 C220.18,736.19 240.8085,742.2653 262.4485,748.5553" fill="none" id="Operator-to-UC8" style="stroke:#181818;stroke-width:1;"/><polygon fill="#181818" points="268.21,750.23,260.6841,743.8769,263.4087,748.8344,258.4512,751.559,268.21,750.23" style="stroke:#181818;stroke-width:1;"/></g><!--link Manager to UC9--><g class="link" data-entity-1="ent0004" data-entity-2="ent0030" data-link-type="dependency" data-source-line="50" id="lnk33"><path d="M160.19,561.52 C171.11,569.88 183.9,578.65 196.58,585 C215.39,594.43 231.4442,600.205 251.0642,605.725" fill="none" id="Manager-to-UC9" style="stroke:#181818;stroke-width:1;"/><polygon fill="#181818" points="256.84,607.35,249.2597,601.062,252.0269,605.9958,247.093,608.763,256.84,607.35" style="stroke:#181818;stroke-width:1;"/></g><!--link Operator to UC10--><g class="link" data-entity-1="ent0005" data-entity-2="ent0031" data-link-type="dependency" data-source-line="51" id="lnk34"><path d="M160.77,705.32 C181.06,703.54 202.6929,701.644 228.8129,699.354" fill="none" id="Operator-to-UC10" style="stroke:#181818;stroke-width:1;"/><polygon fill="#181818" points="234.79,698.83,225.475,695.6313,229.8091,699.2667,226.1737,703.6008,234.79,698.83" style="stroke:#181818;stroke-width:1;"/></g><!--link User to UC11--><g class="link" data-entity-1="ent0002" data-entity-2="ent0035" data-link-type="dependency" data-source-line="57" id="lnk37"><path d="M32.4,429.52 C43.83,387.32 65.64,318.61 97.91,266 C131.73,210.86 141.48,192.89 196.58,159 C216.03,147.04 234.1204,140.6581 255.1804,135.6881" fill="none" id="User-to-UC11" style="stroke:#181818;stroke-width:1;"/><polygon fill="#181818" points="261.02,134.31,251.3419,132.4841,256.1537,135.4584,253.1793,140.2702,261.02,134.31" style="stroke:#181818;stroke-width:1;"/></g><!--link Viewer to UC12--><g class="link" data-entity-1="ent0006" data-entity-2="ent0036" data-link-type="dependency" data-source-line="58" id="lnk38"><path d="M153.34,65.11 C175.39,64.27 203.7844,63.1807 234.9744,61.9807" fill="none" id="Viewer-to-UC12" style="stroke:#181818;stroke-width:1;"/><polygon fill="#181818" points="240.97,61.75,231.8229,58.099,235.9737,61.9422,232.1304,66.0931,240.97,61.75" style="stroke:#181818;stroke-width:1;"/></g><!--link User to UC13--><g class="link" data-entity-1="ent0002" data-entity-2="ent0039" data-link-type="dependency" data-source-line="64" id="lnk41"><path d="M38.28,433.5 C63.49,380.85 118.78,280.96 196.58,228 C213.8,216.27 229.2658,209.9379 248.8658,204.6679" fill="none" id="User-to-UC13" style="stroke:#181818;stroke-width:1;"/><polygon fill="#181818" points="254.66,203.11,244.9301,201.5841,249.8315,204.4083,247.0073,209.3097,254.66,203.11" style="stroke:#181818;stroke-width:1;"/></g><!--link User to UC14--><g class="link" data-entity-1="ent0002" data-entity-2="ent0040" data-link-type="dependency" data-source-line="65" id="lnk42"><path d="M26.75,506.56 C33.8,565.17 52.54,678.85 97.91,764 C128.79,821.96 141.43,838.33 196.58,874 C212.38,884.22 225.5003,890.0295 243.3603,895.5795" fill="none" id="User-to-UC14" style="stroke:#181818;stroke-width:1;"/><polygon fill="#181818" points="249.09,897.36,241.6824,890.8694,244.3152,895.8762,239.3084,898.509,249.09,897.36" style="stroke:#181818;stroke-width:1;"/></g><!--link UC1 to LDAP--><g class="link" data-entity-1="ent0015" data-entity-2="ent0011" data-link-type="dependency" data-source-line="68" id="lnk43"><path d="M392.1,984 C416.02,984 436.42,984 460.55,984" fill="none" id="UC1-to-LDAP" style="stroke:#181818;stroke-width:1;"/><polygon fill="#181818" points="466.55,984,457.55,980,461.55,984,457.55,988,466.55,984" style="stroke:#181818;stroke-width:1;"/></g><!--link UC2 to DB--><g class="link" data-entity-1="ent0017" data-entity-2="ent0013" data-link-type="dependency" data-source-line="70" id="lnk44"><path d="M371.33,358.48 C390.52,364.73 411.85,372.43 430.72,381 C449.38,389.47 463.7221,397.0686 481.3321,407.3786" fill="none" id="UC2-to-DB" style="stroke:#181818;stroke-width:1;"/><polygon fill="#181818" points="486.51,410.41,480.7642,402.4109,482.1951,407.8838,476.7222,409.3147,486.51,410.41" style="stroke:#181818;stroke-width:1;"/></g><!--link UC3 to DB--><g class="link" data-entity-1="ent0018" data-entity-2="ent0013" data-link-type="dependency" data-source-line="71" id="lnk45"><path d="M380.38,280.29 C397.7,285.93 415.72,293.63 430.72,304 C471.09,331.92 501.4031,372.7326 521.9731,405.4026" fill="none" id="UC3-to-DB" style="stroke:#181818;stroke-width:1;"/><polygon fill="#181818" points="525.17,410.48,523.7596,400.7327,522.5059,406.2488,516.9897,404.9952,525.17,410.48" style="stroke:#181818;stroke-width:1;"/></g><!--link UC4 to DB--><g class="link" data-entity-1="ent0019" data-entity-2="ent0013" data-link-type="dependency" data-source-line="72" id="lnk46"><path d="M375.76,423.93 C409.82,428.91 446.1532,434.2217 480.2032,439.2017" fill="none" id="UC4-to-DB" style="stroke:#181818;stroke-width:1;"/><polygon fill="#181818" points="486.14,440.07,477.8136,434.8097,481.1926,439.3464,476.6559,442.7254,486.14,440.07" style="stroke:#181818;stroke-width:1;"/></g><!--link UC5 to DB--><g class="link" data-entity-1="ent0023" data-entity-2="ent0013" data-link-type="dependency" data-source-line="73" id="lnk47"><path d="M364.72,539.2 C385.54,533.56 409.7,526.05 430.72,517 C449.87,508.76 464.6186,501.0625 482.4486,490.5725" fill="none" id="UC5-to-DB" style="stroke:#181818;stroke-width:1;"/><polygon fill="#181818" points="487.62,487.53,477.8346,488.6462,483.3105,490.0654,481.8913,495.5413,487.62,487.53" style="stroke:#181818;stroke-width:1;"/></g><!--link UC6 to DB--><g class="link" data-entity-1="ent0024" data-entity-2="ent0013" data-link-type="dependency" data-source-line="74" id="lnk48"><path d="M373.95,474.33 C408.27,469.32 445.453,463.8772 480.093,458.8172" fill="none" id="UC6-to-DB" style="stroke:#181818;stroke-width:1;"/><polygon fill="#181818" points="486.03,457.95,476.5463,455.2929,481.0825,458.6727,477.7027,463.2089,486.03,457.95" style="stroke:#181818;stroke-width:1;"/></g><!--link UC7 to DB--><g class="link" data-entity-1="ent0025" data-entity-2="ent0013" data-link-type="dependency" data-source-line="75" id="lnk49"><path d="M388.55,822.12 C404.02,816.53 419.14,808.51 430.72,797 C517.4,710.9 539.1319,564.5209 544.8119,493.4709" fill="none" id="UC7-to-DB" style="stroke:#181818;stroke-width:1;"/><polygon fill="#181818" points="545.29,487.49,540.5855,496.1426,544.8916,492.4741,548.5601,496.7801,545.29,487.49" style="stroke:#181818;stroke-width:1;"/></g><!--link UC8 to DB--><g class="link" data-entity-1="ent0029" data-entity-2="ent0013" data-link-type="dependency" data-source-line="76" id="lnk50"><path d="M376.4,755.52 C395.63,750.6 415.71,742.45 430.72,729 C502.87,664.34 530.4809,553.8928 540.8809,493.5528" fill="none" id="UC8-to-DB" style="stroke:#181818;stroke-width:1;"/><polygon fill="#181818" points="541.9,487.64,536.4295,495.8298,541.0507,492.5673,544.3132,497.1886,541.9,487.64" style="stroke:#181818;stroke-width:1;"/></g><!--link UC9 to DB--><g class="link" data-entity-1="ent0030" data-entity-2="ent0013" data-link-type="dependency" data-source-line="77" id="lnk51"><path d="M375.05,608.75 C393.88,603.47 414.06,595.86 430.72,585 C469.4,559.79 499.0352,523.0141 519.9352,492.4241" fill="none" id="UC9-to-DB" style="stroke:#181818;stroke-width:1;"/><polygon fill="#181818" points="523.32,487.47,514.9401,492.6446,520.4993,491.5984,521.5455,497.1577,523.32,487.47" style="stroke:#181818;stroke-width:1;"/></g><!--link UC10 to DB--><g class="link" data-entity-1="ent0031" data-entity-2="ent0013" data-link-type="dependency" data-source-line="78" id="lnk52"><path d="M380.64,680.18 C398.25,674.68 416.36,666.67 430.72,655 C485.25,610.69 516.9306,539.3171 533.2806,493.0571" fill="none" id="UC10-to-DB" style="stroke:#181818;stroke-width:1;"/><polygon fill="#181818" points="535.28,487.4,528.5095,494.5526,533.6138,492.1142,536.0523,497.2185,535.28,487.4" style="stroke:#181818;stroke-width:1;"/></g><!--link UC11 to DB--><g class="link" data-entity-1="ent0035" data-entity-2="ent0013" data-link-type="dependency" data-source-line="79" id="lnk53"><path d="M371.69,131.67 C392.33,136.24 414.53,144.42 430.72,159 C505.53,226.34 532.2017,342.4191 541.7117,404.5191" fill="none" id="UC11-to-DB" style="stroke:#181818;stroke-width:1;"/><polygon fill="#181818" points="542.62,410.45,545.2115,400.9482,541.8631,405.5076,537.3037,402.1592,542.62,410.45" style="stroke:#181818;stroke-width:1;"/></g><!--link UC12 to DB--><g class="link" data-entity-1="ent0036" data-entity-2="ent0013" data-link-type="dependency" data-source-line="80" id="lnk54"><path d="M379.16,66.95 C397.77,72.06 416.79,80.4 430.72,94 C520.08,181.22 540.539,332.0134 545.389,404.4234" fill="none" id="UC12-to-DB" style="stroke:#181818;stroke-width:1;"/><polygon fill="#181818" points="545.79,410.41,549.1796,401.1628,545.4559,405.4212,541.1975,401.6974,545.79,410.41" style="stroke:#181818;stroke-width:1;"/></g><!--link UC13 to DB--><g class="link" data-entity-1="ent0039" data-entity-2="ent0013" data-link-type="dependency" data-source-line="81" id="lnk55"><path d="M376.02,201.95 C395.12,207.1 415.21,215.22 430.72,228 C489.13,276.13 520.3115,355.5904 535.3515,404.9604" fill="none" id="UC13-to-DB" style="stroke:#181818;stroke-width:1;"/><polygon fill="#181818" points="537.1,410.7,538.3036,400.925,535.6429,405.917,530.6509,403.2563,537.1,410.7" style="stroke:#181818;stroke-width:1;"/></g><!--link UC7 to NOTIF--><g class="link" data-entity-1="ent0025" data-entity-2="ent0012" data-link-type="dependency" data-source-line="83" id="lnk56"><path d="M401.92,842.13 C427.7,844.23 449.5398,846.0231 473.8598,848.0031" fill="none" id="UC7-to-NOTIF" style="stroke:#181818;stroke-width:1;"/><polygon fill="#181818" points="479.84,848.49,471.1943,843.7729,474.8565,848.0843,470.5451,851.7465,479.84,848.49" style="stroke:#181818;stroke-width:1;"/></g><!--link UC14 to NOTIF--><g class="link" data-entity-1="ent0040" data-entity-2="ent0012" data-link-type="dependency" data-source-line="84" id="lnk57"><path d="M374.25,896.4 C406.42,888.51 440.4225,880.1785 473.7525,872.0085" fill="none" id="UC14-to-NOTIF" style="stroke:#181818;stroke-width:1;"/><polygon fill="#181818" points="479.58,870.58,469.8865,868.8377,474.7238,871.7704,471.7911,876.6077,479.58,870.58" style="stroke:#181818;stroke-width:1;"/></g><?plantuml-src TLHDZzem4BtdLumubFQ0kWcmWDHMeXjLGjeFj5bwDyaGB2KsiirMgEr_hyUnmGILKzwyDpFFup4DxWmO2OhNUmCLLrWQBaMI3E4h_M2jUClK2PQbaKftmOGHW8r6vJ-NLSk5_tvYWjLdvkM0YjaF3tzo_6MvX7BXov_HoATUS4Y_HCubBg5G9hWii9IY-e_FmME-NCDdelWxGkuEATLf04m3SK7tB0tVyPBH16n9zSvBTABdbxVLZw3AcM5RfX6AapROEa7-FKceAXDrWp1uOeVL6nIC5R1kcDb9PMM_amHW2CkZsQCmleqDVOmYw8RwYKfk7b9BkYEFHjySxFBTl6nQDoYdqF01NcM3scTcn3z8iUFrKI6iKRLSQzik2COae25QEnKty2ZhG4seZMlY-sOzFExXIUTh9KfUsMFu2spjftEXa8uLMDzawivjBTMYJzqJjJbKSHOKXfbZS3YZXdvDl8VfJOJAXCNneLbdbEwlPzAFqXf24xhC8sAjvBR1Db2BYCfbUQGoWKllajlEynjxYrjHbpcqYyTKkRStcZEztqgcAchdesG-T4hFbtXM1YfBUhj3skxHX4WMkXd3HKqR5A-_ZcuXI49njpolM2Azfgkae9ZqsuzxsEzCSJmSfABYeDrZqi25iLCfWmUhTJdkcJgSEMmV785n32OncCRWFWQp6CnZi8X1UdU5qYjqPI8zkuZgTtyPZfv4WR__0000?></g></svg>